InriaSerif-Italic.ufo
<glyph name="exclam" format="1">
  <advance width="258"/>
  <unicode hex="0021"/>
  <outline>
    <contour>
      <point x="133" y="184" type="line"/>
      <point x="175" y="419"/>
      <point x="210" y="474"/>
      <point x="246" y="680" type="curve"/>
      <point x="164" y="680" type="line"/>
      <point x="128" y="474"/>
      <point x="144" y="419"/>
      <point x="102" y="184" type="curve"/>
    </contour>
    <contour>
      <point x="89" y="-10" type="curve" smooth="yes"/>
      <point x="127" y="-10"/>
      <point x="151" y="17"/>
      <point x="151" y="52" type="curve" smooth="yes"/>
      <point x="151" y="84"/>
      <point x="131" y="102"/>
      <point x="98" y="102" type="curve" smooth="yes"/>
      <point x="61" y="102"/>
      <point x="36" y="75"/>
      <point x="36" y="40" type="curve" smooth="yes"/>
      <point x="36" y="8"/>
      <point x="57" y="-10"/>
    </contour>
  </outline>
</glyph>
<glyph name="quotedbl" format="1">
  <advance width="426"/>
  <unicode hex="0022"/>
  <outline>
    <contour>
      <point x="176" y="438" type="line"/>
      <point x="203" y="583"/>
      <point x="246" y="593"/>
      <point x="246" y="645" type="curve" smooth="yes"/>
      <point x="246" y="673"/>
      <point x="229" y="690"/>
      <point x="202" y="690" type="curve" smooth="yes"/>
      <point x="171" y="690"/>
      <point x="147" y="666"/>
      <point x="147" y="623" type="curve" smooth="yes"/>
      <point x="147" y="593"/>
      <point x="158" y="573"/>
      <point x="158" y="528" type="curve" smooth="yes"/>
      <point x="158" y="506"/>
      <point x="157" y="478"/>
      <point x="149" y="438" type="curve"/>
    </contour>
    <contour>
      <point x="344" y="438" type="line"/>
      <point x="371" y="583"/>
      <point x="414" y="593"/>
      <point x="414" y="645" type="curve" smooth="yes"/>
      <point x="414" y="673"/>
      <point x="397" y="690"/>
      <point x="370" y="690" type="curve" smooth="yes"/>
      <point x="339" y="690"/>
      <point x="315" y="666"/>
      <point x="315" y="623" type="curve" smooth="yes"/>
      <point x="315" y="593"/>
      <point x="326" y="573"/>
      <point x="326" y="528" type="curve" smooth="yes"/>
      <point x="326" y="506"/>
      <point x="325" y="478"/>
      <point x="317" y="438" type="curve"/>
    </contour>
  </outline>
</glyph>
<glyph name="numbersign" format="1">
  <advance width="645"/>
  <unicode hex="0023"/>
  <outline>
    <contour>
      <point x="544" y="211" type="line"/>
      <point x="550" y="243" type="line"/>
      <point x="442" y="243" type="line"/>
      <point x="535" y="436" type="line"/>
      <point x="653" y="436" type="line"/>
      <point x="659" y="468" type="line"/>
      <point x="550" y="468" type="line"/>
      <point x="651" y="677" type="line"/>
      <point x="619" y="690" type="line"/>
      <point x="512" y="468" type="line"/>
      <point x="288" y="468" type="line"/>
      <point x="389" y="677" type="line"/>
      <point x="357" y="690" type="line"/>
      <point x="250" y="468" type="line"/>
      <point x="133" y="468" type="line"/>
      <point x="127" y="436" type="line"/>
      <point x="235" y="436" type="line"/>
      <point x="142" y="243" type="line"/>
      <point x="24" y="243" type="line"/>
      <point x="18" y="211" type="line"/>
      <point x="127" y="211" type="line"/>
      <point x="26" y="2" type="line"/>
      <point x="58" y="-10" type="line"/>
      <point x="164" y="211" type="line"/>
      <point x="389" y="211" type="line"/>
      <point x="288" y="2" type="line"/>
      <point x="320" y="-10" type="line"/>
      <point x="426" y="211" type="line"/>
    </contour>
    <contour>
      <point x="180" y="243" type="line"/>
      <point x="273" y="436" type="line"/>
      <point x="497" y="436" type="line"/>
      <point x="404" y="243" type="line"/>
    </contour>
  </outline>
</glyph>
<glyph name="dollar" format="1">
  <advance width="548"/>
  <unicode hex="0024"/>
  <outline>
    <contour>
      <point x="486" y="197" type="curve" smooth="yes"/>
      <point x="486" y="280"/>
      <point x="439" y="332"/>
      <point x="355" y="365" type="curve" smooth="yes"/>
      <point x="312" y="383" type="line"/>
      <point x="359" y="654" type="line"/>
      <point x="438" y="639"/>
      <point x="459" y="570"/>
      <point x="427" y="465" type="curve"/>
      <point x="514" y="483" type="line"/>
      <point x="544" y="570"/>
      <point x="498" y="671"/>
      <point x="365" y="688" type="curve"/>
      <point x="386" y="805" type="line"/>
      <point x="350" y="805" type="line"/>
      <point x="330" y="690" type="line"/>
      <point x="325" y="690" type="line" smooth="yes"/>
      <point x="172" y="690"/>
      <point x="100" y="600"/>
      <point x="100" y="494" type="curve" smooth="yes"/>
      <point x="100" y="408"/>
      <point x="145" y="352"/>
      <point x="225" y="320" type="curve" smooth="yes"/>
      <point x="262" y="306" type="line"/>
      <point x="212" y="23" type="line"/>
      <point x="142" y="31"/>
      <point x="89" y="73"/>
      <point x="95" y="192" type="curve"/>
      <point x="32" y="172" type="line"/>
      <point x="34" y="46"/>
      <point x="114" y="0"/>
      <point x="207" y="-9" type="curve"/>
      <point x="186" y="-125" type="line"/>
      <point x="222" y="-125" type="line"/>
      <point x="242" y="-10" type="line"/>
      <point x="407" y="-10"/>
      <point x="486" y="90"/>
    </contour>
    <contour>
      <point x="178" y="524" type="curve" smooth="yes"/>
      <point x="178" y="613"/>
      <point x="234" y="658"/>
      <point x="321" y="658" type="curve" smooth="yes"/>
      <point x="324" y="658" type="line"/>
      <point x="278" y="396" type="line"/>
      <point x="204" y="425"/>
      <point x="178" y="464"/>
    </contour>
    <contour>
      <point x="299" y="291" type="line" smooth="yes"/>
      <point x="378" y="259"/>
      <point x="407" y="222"/>
      <point x="407" y="161" type="curve" smooth="yes"/>
      <point x="407" y="77"/>
      <point x="352" y="25"/>
      <point x="248" y="22" type="curve"/>
      <point x="296" y="292" type="line"/>
    </contour>
  </outline>
</glyph>
<glyph name="percent" format="1">
  <advance width="719"/>
  <unicode hex="0025"/>
  <outline>
    <contour>
      <point x="366" y="527" type="line" smooth="yes"/>
      <point x="380" y="614"/>
      <point x="335" y="685"/>
      <point x="242" y="685" type="curve" smooth="yes"/>
      <point x="164" y="685"/>
      <point x="105" y="634"/>
      <point x="91" y="547" type="curve" smooth="yes"/>
      <point x="89" y="531" type="line" smooth="yes"/>
      <point x="75" y="444"/>
      <point x="120" y="375"/>
      <point x="212" y="375" type="curve" smooth="yes"/>
      <point x="291" y="375"/>
      <point x="349" y="424"/>
      <point x="363" y="511" type="curve" smooth="yes"/>
    </contour>
    <contour>
      <point x="607" y="680" type="line"/>
      <point x="118" y="17" type="line"/>
      <point x="143" y="0" type="line"/>
      <point x="632" y="662" type="line"/>
    </contour>
    <contour>
      <point x="304" y="544" type="curve" smooth="yes"/>
      <point x="297" y="502" type="line" smooth="yes"/>
      <point x="285" y="430"/>
      <point x="251" y="400"/>
      <point x="211" y="400" type="curve" smooth="yes"/>
      <point x="162" y="400"/>
      <point x="138" y="442"/>
      <point x="151" y="516" type="curve" smooth="yes"/>
      <point x="158" y="557" type="line" smooth="yes"/>
      <point x="170" y="629"/>
      <point x="204" y="659"/>
      <point x="244" y="659" type="curve" smooth="yes"/>
      <point x="292" y="659"/>
      <point x="316" y="617"/>
    </contour>
    <contour>
      <point x="663" y="147" type="line" smooth="yes"/>
      <point x="677" y="234"/>
      <point x="632" y="305"/>
      <point x="539" y="305" type="curve" smooth="yes"/>
      <point x="461" y="305"/>
      <point x="403" y="254"/>
      <point x="389" y="167" type="curve" smooth="yes"/>
      <point x="386" y="151" type="line" smooth="yes"/>
      <point x="372" y="64"/>
      <point x="417" y="-5"/>
      <point x="509" y="-5" type="curve" smooth="yes"/>
      <point x="588" y="-5"/>
      <point x="646" y="44"/>
      <point x="660" y="131" type="curve" smooth="yes"/>
    </contour>
    <contour>
      <point x="601" y="164" type="curve" smooth="yes"/>
      <point x="594" y="122" type="line" smooth="yes"/>
      <point x="582" y="50"/>
      <point x="549" y="20"/>
      <point x="508" y="20" type="curve" smooth="yes"/>
      <point x="460" y="20"/>
      <point x="435" y="62"/>
      <point x="448" y="136" type="curve" smooth="yes"/>
      <point x="455" y="177" type="line" smooth="yes"/>
      <point x="467" y="249"/>
      <point x="501" y="279"/>
      <point x="541" y="279" type="curve" smooth="yes"/>
      <point x="589" y="279"/>
      <point x="614" y="237"/>
    </contour>
  </outline>
</glyph>
<glyph name="ampersand" format="1">
  <advance width="619"/>
  <unicode hex="0026"/>
  <outline>
    <contour>
      <point x="495" y="184" type="curve" smooth="yes"/>
      <point x="495" y="245"/>
      <point x="464" y="301"/>
      <point x="403" y="346" type="curve"/>
      <point x="473" y="357" type="line" smooth="yes"/>
      <point x="519" y="364"/>
      <point x="568" y="372"/>
      <point x="622" y="387" type="curve"/>
      <point x="603" y="471" type="line"/>
      <point x="551" y="430"/>
      <point x="495" y="406"/>
      <point x="418" y="388" type="curve" smooth="yes"/>
      <point x="288" y="361" type="line"/>
      <point x="234" y="416"/>
      <point x="216" y="482"/>
      <point x="216" y="533" type="curve" smooth="yes"/>
      <point x="216" y="616"/>
      <point x="268" y="658"/>
      <point x="327" y="658" type="curve" smooth="yes"/>
      <point x="404" y="658"/>
      <point x="447" y="594"/>
      <point x="414" y="478" type="curve"/>
      <point x="500" y="497" type="line"/>
      <point x="533" y="595"/>
      <point x="467" y="690"/>
      <point x="328" y="690" type="curve" smooth="yes"/>
      <point x="215" y="690"/>
      <point x="128" y="623"/>
      <point x="128" y="528" type="curve" smooth="yes"/>
      <point x="128" y="460"/>
      <point x="170" y="405"/>
      <point x="250" y="351" type="curve"/>
      <point x="125" y="317"/>
      <point x="38" y="254"/>
      <point x="38" y="149" type="curve" smooth="yes"/>
      <point x="38" y="43"/>
      <point x="118" y="-10"/>
      <point x="252" y="-10" type="curve" smooth="yes"/>
      <point x="391" y="-10"/>
      <point x="495" y="64"/>
    </contour>
    <contour>
      <point x="126" y="151" type="curve" smooth="yes"/>
      <point x="126" y="249"/>
      <point x="184" y="313"/>
      <point x="302" y="331" type="curve" smooth="yes"/>
      <point x="362" y="340" type="line"/>
      <point x="403" y="297"/>
      <point x="419" y="245"/>
      <point x="419" y="193" type="curve" smooth="yes"/>
      <point x="419" y="82"/>
      <point x="350" y="22"/>
      <point x="257" y="22" type="curve" smooth="yes"/>
      <point x="176" y="22"/>
      <point x="126" y="62"/>
    </contour>
  </outline>
</glyph>
<glyph name="quotesingle" format="1">
  <advance width="258"/>
  <unicode hex="0027"/>
  <outline>
    <contour>
      <point x="176" y="438" type="line"/>
      <point x="203" y="583"/>
      <point x="246" y="593"/>
      <point x="246" y="645" type="curve" smooth="yes"/>
      <point x="246" y="673"/>
      <point x="229" y="690"/>
      <point x="202" y="690" type="curve" smooth="yes"/>
      <point x="171" y="690"/>
      <point x="147" y="666"/>
      <point x="147" y="623" type="curve" smooth="yes"/>
      <point x="147" y="593"/>
      <point x="158" y="573"/>
      <point x="158" y="528" type="curve" smooth="yes"/>
      <point x="158" y="506"/>
      <point x="157" y="478"/>
      <point x="149" y="438" type="curve"/>
    </contour>
  </outline>
</glyph>
<glyph name="parenleft" format="1">
  <advance width="336"/>
  <unicode hex="0028"/>
  <outline>
    <contour>
      <point x="80" y="286" type="line" smooth="yes"/>
      <point x="58" y="140"/>
      <point x="99" y="-29"/>
      <point x="222" y="-153" type="curve"/>
      <point x="247" y="-131" type="line"/>
      <point x="156" y="-25"/>
      <point x="140" y="132"/>
      <point x="165" y="280" type="curve" smooth="yes"/>
      <point x="172" y="318" type="line" smooth="yes"/>
      <point x="200" y="482"/>
      <point x="269" y="617"/>
      <point x="402" y="722" type="curve"/>
      <point x="381" y="750" type="line"/>
      <point x="212" y="632"/>
      <point x="112" y="501"/>
      <point x="86" y="326" type="curve" smooth="yes"/>
    </contour>
  </outline>
</glyph>
<glyph name="parenright" format="1">
  <advance width="336"/>
  <unicode hex="0029"/>
  <outline>
    <contour>
      <point x="274" y="310" type="line" smooth="yes"/>
      <point x="296" y="457"/>
      <point x="254" y="626"/>
      <point x="132" y="750" type="curve"/>
      <point x="107" y="728" type="line"/>
      <point x="198" y="622"/>
      <point x="214" y="464"/>
      <point x="189" y="316" type="curve" smooth="yes"/>
      <point x="182" y="279" type="line" smooth="yes"/>
      <point x="154" y="114"/>
      <point x="85" y="-20"/>
      <point x="-47" y="-125" type="curve"/>
      <point x="-27" y="-153" type="line"/>
      <point x="141" y="-35"/>
      <point x="242" y="96"/>
      <point x="268" y="270" type="curve" smooth="yes"/>
    </contour>
  </outline>
</glyph>
<glyph name="asterisk" format="1">
  <advance width="444"/>
  <unicode hex="002A"/>
  <outline>
    <contour>
      <point x="381" y="329" type="line"/>
      <point x="349" y="396"/>
      <point x="321" y="398"/>
      <point x="283" y="476" type="curve"/>
      <point x="369" y="488"/>
      <point x="386" y="467"/>
      <point x="461" y="477" type="curve"/>
      <point x="451" y="549" type="line"/>
      <point x="376" y="539"/>
      <point x="365" y="514"/>
      <point x="280" y="501" type="curve"/>
      <point x="295" y="588"/>
      <point x="321" y="597"/>
      <point x="333" y="670" type="curve"/>
      <point x="262" y="683" type="line"/>
      <point x="249" y="609"/>
      <point x="269" y="592"/>
      <point x="254" y="507" type="curve"/>
      <point x="177" y="548"/>
      <point x="176" y="575"/>
      <point x="111" y="610" type="curve"/>
      <point x="76" y="545" type="line"/>
      <point x="142" y="511"/>
      <point x="165" y="525"/>
      <point x="243" y="484" type="curve"/>
      <point x="179" y="423"/>
      <point x="153" y="431"/>
      <point x="99" y="378" type="curve"/>
      <point x="150" y="327" type="line"/>
      <point x="204" y="378"/>
      <point x="197" y="405"/>
      <point x="260" y="465" type="curve"/>
      <point x="298" y="387"/>
      <point x="282" y="364"/>
      <point x="316" y="297" type="curve"/>
    </contour>
  </outline>
</glyph>
<glyph name="plus" format="1">
  <advance width="588"/>
  <unicode hex="002B"/>
  <outline>
    <contour>
      <point x="513" y="317" type="line"/>
      <point x="519" y="350" type="line"/>
      <point x="329" y="350" type="line"/>
      <point x="363" y="545" type="line"/>
      <point x="328" y="545" type="line"/>
      <point x="294" y="350" type="line"/>
      <point x="105" y="350" type="line"/>
      <point x="99" y="317" type="line"/>
      <point x="288" y="317" type="line"/>
      <point x="254" y="123" type="line"/>
      <point x="289" y="123" type="line"/>
      <point x="323" y="317" type="line"/>
    </contour>
  </outline>
</glyph>
<glyph name="comma" format="1">
  <advance width="258"/>
  <unicode hex="002C"/>
  <outline>
    <contour>
      <point x="148" y="41" type="curve" smooth="yes"/>
      <point x="148" y="78"/>
      <point x="127" y="98"/>
      <point x="97" y="98" type="curve" smooth="yes"/>
      <point x="62" y="98"/>
      <point x="39" y="72"/>
      <point x="39" y="38" type="curve" smooth="yes"/>
      <point x="39" y="9"/>
      <point x="57" y="-9"/>
      <point x="85" y="-10" type="curve"/>
      <point x="75" y="-52"/>
      <point x="43" y="-107"/>
      <point x="-23" y="-174" type="curve"/>
      <point x="-4" y="-193" type="line"/>
      <point x="83" y="-111"/>
      <point x="148" y="-25"/>
    </contour>
  </outline>
</glyph>
<glyph name="hyphen" format="1">
  <advance width="404"/>
  <unicode hex="002D"/>
  <outline>
    <contour>
      <point x="82" y="317" type="line"/>
      <point x="346" y="317" type="line"/>
      <point x="352" y="352" type="line"/>
      <point x="88" y="352" type="line"/>
    </contour>
  </outline>
</glyph>
<glyph name="period" format="1">
  <advance width="258"/>
  <unicode hex="002E"/>
  <outline>
    <contour>
      <point x="36" y="40" type="curve" smooth="yes"/>
      <point x="36" y="8"/>
      <point x="57" y="-10"/>
      <point x="89" y="-10" type="curve" smooth="yes"/>
      <point x="127" y="-10"/>
      <point x="151" y="17"/>
      <point x="151" y="52" type="curve" smooth="yes"/>
      <point x="151" y="84"/>
      <point x="131" y="102"/>
      <point x="98" y="102" type="curve" smooth="yes"/>
      <point x="60" y="102"/>
      <point x="36" y="75"/>
    </contour>
  </outline>
</glyph>
<glyph name="slash" format="1">
  <advance width="379"/>
  <unicode hex="002F"/>
  <outline>
    <contour>
      <point x="412" y="740" type="line"/>
      <point x="-83" y="-126" type="line"/>
      <point x="-48" y="-143" type="line"/>
      <point x="447" y="723" type="line"/>
    </contour>
  </outline>
</glyph>
<glyph name="zero" format="1">
  <advance width="614"/>
  <unicode hex="0030"/>
  <outline>
    <contour>
      <point x="559" y="366" type="line" smooth="yes"/>
      <point x="593" y="560"/>
      <point x="522" y="690"/>
      <point x="369" y="690" type="curve" smooth="yes"/>
      <point x="223" y="690"/>
      <point x="133" y="578"/>
      <point x="98" y="380" type="curve" smooth="yes"/>
      <point x="87" y="315" type="line" smooth="yes"/>
      <point x="52" y="119"/>
      <point x="123" y="-10"/>
      <point x="277" y="-10" type="curve" smooth="yes"/>
      <point x="422" y="-10"/>
      <point x="513" y="100"/>
      <point x="548" y="301" type="curve" smooth="yes"/>
    </contour>
    <contour>
      <point x="473" y="419" type="curve" smooth="yes"/>
      <point x="445" y="254" type="line" smooth="yes"/>
      <point x="416" y="90"/>
      <point x="365" y="22"/>
      <point x="276" y="22" type="curve" smooth="yes"/>
      <point x="186" y="22"/>
      <point x="145" y="98"/>
      <point x="173" y="261" type="curve" smooth="yes"/>
      <point x="201" y="426" type="line" smooth="yes"/>
      <point x="230" y="590"/>
      <point x="281" y="658"/>
      <point x="369" y="658" type="curve" smooth="yes"/>
      <point x="460" y="658"/>
      <point x="501" y="583"/>
    </contour>
  </outline>
</glyph>
<glyph name="one" format="1">
  <advance width="353"/>
  <unicode hex="0031"/>
  <outline>
    <contour>
      <point x="91" y="597" type="line"/>
      <point x="105" y="569" type="line"/>
      <point x="213" y="630" type="line"/>
      <point x="117" y="81" type="line" smooth="yes"/>
      <point x="109" y="34"/>
      <point x="107" y="33"/>
      <point x="86" y="32" type="curve" smooth="yes"/>
      <point x="10" y="26" type="line"/>
      <point x="5" y="0" type="line"/>
      <point x="266" y="0" type="line"/>
      <point x="271" y="26" type="line"/>
      <point x="217" y="32" type="line" smooth="yes"/>
      <point x="197" y="34"/>
      <point x="196" y="35"/>
      <point x="204" y="81" type="curve" smooth="yes"/>
      <point x="309" y="680" type="line"/>
      <point x="238" y="680" type="line"/>
    </contour>
  </outline>
</glyph>
<glyph name="two" format="1">
  <advance width="539"/>
  <unicode hex="0032"/>
  <outline>
    <contour>
      <point x="455" y="206" type="line"/>
      <point x="429" y="206" type="line"/>
      <point x="382" y="101" type="line" smooth="yes"/>
      <point x="371" y="78"/>
      <point x="370" y="75"/>
      <point x="323" y="75" type="curve" smooth="yes"/>
      <point x="69" y="75" type="line"/>
      <point x="96" y="176"/>
      <point x="169" y="232"/>
      <point x="252" y="274" type="curve" smooth="yes"/>
      <point x="374" y="335"/>
      <point x="513" y="375"/>
      <point x="513" y="526" type="curve" smooth="yes"/>
      <point x="513" y="617"/>
      <point x="456" y="690"/>
      <point x="323" y="690" type="curve" smooth="yes"/>
      <point x="176" y="690"/>
      <point x="98" y="594"/>
      <point x="98" y="483" type="curve"/>
      <point x="182" y="467" type="line"/>
      <point x="191" y="589"/>
      <point x="235" y="658"/>
      <point x="323" y="658" type="curve" smooth="yes"/>
      <point x="388" y="658"/>
      <point x="419" y="626"/>
      <point x="419" y="546" type="curve" smooth="yes"/>
      <point x="419" y="417"/>
      <point x="332" y="367"/>
      <point x="242" y="313" type="curve" smooth="yes"/>
      <point x="148" y="257"/>
      <point x="53" y="196"/>
      <point x="27" y="53" type="curve"/>
      <point x="17" y="0" type="line"/>
      <point x="419" y="0" type="line"/>
    </contour>
  </outline>
</glyph>
<glyph name="three" format="1">
  <advance width="527"/>
  <unicode hex="0033"/>
  <outline>
    <contour>
      <point x="458" y="195" type="curve" smooth="yes"/>
      <point x="458" y="278"/>
      <point x="411" y="329"/>
      <point x="326" y="349" type="curve"/>
      <point x="447" y="373"/>
      <point x="507" y="443"/>
      <point x="507" y="536" type="curve" smooth="yes"/>
      <point x="507" y="623"/>
      <point x="450" y="690"/>
      <point x="320" y="690" type="curve" smooth="yes"/>
      <point x="170" y="690"/>
      <point x="91" y="590"/>
      <point x="91" y="483" type="curve"/>
      <point x="175" y="467" type="line"/>
      <point x="184" y="589"/>
      <point x="228" y="658"/>
      <point x="318" y="658" type="curve" smooth="yes"/>
      <point x="379" y="658"/>
      <point x="411" y="625"/>
      <point x="411" y="551" type="curve" smooth="yes"/>
      <point x="411" y="455"/>
      <point x="361" y="366"/>
      <point x="231" y="366" type="curve" smooth="yes"/>
      <point x="204" y="366" type="line"/>
      <point x="197" y="334" type="line"/>
      <point x="224" y="334" type="line" smooth="yes"/>
      <point x="323" y="334"/>
      <point x="362" y="288"/>
      <point x="362" y="205" type="curve" smooth="yes"/>
      <point x="362" y="100"/>
      <point x="304" y="22"/>
      <point x="205" y="22" type="curve" smooth="yes"/>
      <point x="141" y="22"/>
      <point x="80" y="54"/>
      <point x="80" y="165" type="curve"/>
      <point x="23" y="147" type="line"/>
      <point x="37" y="35"/>
      <point x="108" y="-10"/>
      <point x="215" y="-10" type="curve" smooth="yes"/>
      <point x="381" y="-10"/>
      <point x="458" y="93"/>
    </contour>
  </outline>
</glyph>
<glyph name="four" format="1">
  <advance width="495"/>
  <unicode hex="0034"/>
  <outline>
    <contour>
      <point x="272" y="81" type="line" smooth="yes"/>
      <point x="264" y="34"/>
      <point x="263" y="33"/>
      <point x="241" y="32" type="curve" smooth="yes"/>
      <point x="165" y="26" type="line"/>
      <point x="160" y="0" type="line"/>
      <point x="421" y="0" type="line"/>
      <point x="426" y="26" type="line"/>
      <point x="372" y="32" type="line" smooth="yes"/>
      <point x="352" y="34"/>
      <point x="351" y="35"/>
      <point x="359" y="81" type="curve" smooth="yes"/>
      <point x="376" y="176" type="line"/>
      <point x="452" y="176" type="line"/>
      <point x="458" y="208" type="line"/>
      <point x="381" y="208" type="line"/>
      <point x="411" y="379" type="line"/>
      <point x="322" y="365" type="line"/>
      <point x="294" y="208" type="line"/>
      <point x="51" y="208" type="line"/>
      <point x="218" y="350"/>
      <point x="350" y="493"/>
      <point x="432" y="680" type="curve"/>
      <point x="326" y="680" type="line"/>
      <point x="250" y="475"/>
      <point x="166" y="353"/>
      <point x="5" y="208" type="curve"/>
      <point x="0" y="176" type="line"/>
      <point x="289" y="176" type="line"/>
    </contour>
  </outline>
</glyph>
<glyph name="five" format="1">
  <advance width="511"/>
  <unicode hex="0035"/>
  <outline>
    <contour>
      <point x="92" y="348" type="line"/>
      <point x="110" y="339" type="line"/>
      <point x="165" y="380"/>
      <point x="214" y="395"/>
      <point x="260" y="395" type="curve" smooth="yes"/>
      <point x="335" y="395"/>
      <point x="364" y="349"/>
      <point x="364" y="263" type="curve" smooth="yes"/>
      <point x="364" y="129"/>
      <point x="300" y="22"/>
      <point x="197" y="22" type="curve" smooth="yes"/>
      <point x="137" y="22"/>
      <point x="86" y="54"/>
      <point x="87" y="165" type="curve"/>
      <point x="30" y="147" type="line"/>
      <point x="43" y="35"/>
      <point x="109" y="-10"/>
      <point x="201" y="-10" type="curve" smooth="yes"/>
      <point x="383" y="-10"/>
      <point x="458" y="125"/>
      <point x="458" y="243" type="curve" smooth="yes"/>
      <point x="458" y="361"/>
      <point x="386" y="429"/>
      <point x="269" y="429" type="curve" smooth="yes"/>
      <point x="224" y="429"/>
      <point x="178" y="418"/>
      <point x="137" y="394" type="curve"/>
      <point x="185" y="603" type="line"/>
      <point x="494" y="603" type="line"/>
      <point x="521" y="762" type="line"/>
      <point x="495" y="762" type="line"/>
      <point x="474" y="706" type="line" smooth="yes"/>
      <point x="464" y="680"/>
      <point x="465" y="680"/>
      <point x="416" y="680" type="curve" smooth="yes"/>
      <point x="169" y="680" type="line"/>
    </contour>
  </outline>
</glyph>
<glyph name="six" format="1">
  <advance width="575"/>
  <unicode hex="0036"/>
  <outline>
    <contour>
      <point x="505" y="176" type="curve" smooth="yes"/>
      <point x="508" y="193" type="line" smooth="yes"/>
      <point x="526" y="317"/>
      <point x="455" y="400"/>
      <point x="343" y="400" type="curve" smooth="yes"/>
      <point x="286" y="400"/>
      <point x="231" y="378"/>
      <point x="185" y="333" type="curve"/>
      <point x="203" y="437" type="line" smooth="yes"/>
      <point x="233" y="612"/>
      <point x="299" y="658"/>
      <point x="370" y="658" type="curve" smooth="yes"/>
      <point x="459" y="658"/>
      <point x="489" y="594"/>
      <point x="459" y="481" type="curve"/>
      <point x="547" y="496" type="line"/>
      <point x="572" y="597"/>
      <point x="509" y="690"/>
      <point x="373" y="690" type="curve" smooth="yes"/>
      <point x="232" y="690"/>
      <point x="134" y="598"/>
      <point x="98" y="379" type="curve" smooth="yes"/>
      <point x="87" y="316" type="line" smooth="yes"/>
      <point x="55" y="120"/>
      <point x="112" y="-10"/>
      <point x="273" y="-10" type="curve" smooth="yes"/>
      <point x="390" y="-10"/>
      <point x="489" y="62"/>
    </contour>
    <contour>
      <point x="171" y="256" type="curve" smooth="yes"/>
      <point x="175" y="277" type="line"/>
      <point x="222" y="341"/>
      <point x="277" y="363"/>
      <point x="324" y="363" type="curve" smooth="yes"/>
      <point x="405" y="363"/>
      <point x="431" y="295"/>
      <point x="415" y="191" type="curve" smooth="yes"/>
      <point x="413" y="178" type="line" smooth="yes"/>
      <point x="396" y="65"/>
      <point x="340" y="22"/>
      <point x="270" y="22" type="curve" smooth="yes"/>
      <point x="180" y="22"/>
      <point x="143" y="92"/>
    </contour>
  </outline>
</glyph>
<glyph name="seven" format="1">
  <advance width="456"/>
  <unicode hex="0037"/>
  <outline>
    <contour>
      <point x="503" y="611" type="curve"/>
      <point x="515" y="680" type="line"/>
      <point x="102" y="680" type="line"/>
      <point x="66" y="480" type="line"/>
      <point x="93" y="480" type="line"/>
      <point x="135" y="577" type="line" smooth="yes"/>
      <point x="145" y="600"/>
      <point x="146" y="603"/>
      <point x="193" y="603" type="curve" smooth="yes"/>
      <point x="456" y="603" type="line"/>
      <point x="261" y="408"/>
      <point x="175" y="251"/>
      <point x="103" y="0" type="curve"/>
      <point x="209" y="0" type="line"/>
      <point x="278" y="317"/>
      <point x="355" y="455"/>
    </contour>
  </outline>
</glyph>
<glyph name="eight" format="1">
  <advance width="544"/>
  <unicode hex="0038"/>
  <outline>
    <contour>
      <point x="476" y="185" type="curve" smooth="yes"/>
      <point x="476" y="260"/>
      <point x="434" y="321"/>
      <point x="355" y="365" type="curve"/>
      <point x="475" y="402"/>
      <point x="519" y="474"/>
      <point x="519" y="539" type="curve" smooth="yes"/>
      <point x="519" y="628"/>
      <point x="444" y="690"/>
      <point x="326" y="690" type="curve" smooth="yes"/>
      <point x="190" y="690"/>
      <point x="112" y="606"/>
      <point x="112" y="501" type="curve" smooth="yes"/>
      <point x="112" y="427"/>
      <point x="152" y="377"/>
      <point x="215" y="338" type="curve"/>
      <point x="94" y="295"/>
      <point x="38" y="221"/>
      <point x="38" y="147" type="curve" smooth="yes"/>
      <point x="38" y="63"/>
      <point x="112" y="-10"/>
      <point x="248" y="-10" type="curve" smooth="yes"/>
      <point x="398" y="-10"/>
      <point x="476" y="84"/>
    </contour>
    <contour>
      <point x="288" y="403" type="line" smooth="yes"/>
      <point x="228" y="437"/>
      <point x="192" y="469"/>
      <point x="192" y="534" type="curve" smooth="yes"/>
      <point x="192" y="620"/>
      <point x="256" y="658"/>
      <point x="322" y="658" type="curve" smooth="yes"/>
      <point x="389" y="658"/>
      <point x="437" y="618"/>
      <point x="437" y="539" type="curve" smooth="yes"/>
      <point x="437" y="481"/>
      <point x="413" y="413"/>
      <point x="327" y="381" type="curve"/>
    </contour>
    <contour>
      <point x="120" y="149" type="curve" smooth="yes"/>
      <point x="120" y="227"/>
      <point x="163" y="291"/>
      <point x="243" y="321" type="curve"/>
      <point x="299" y="291" type="line" smooth="yes"/>
      <point x="372" y="251"/>
      <point x="397" y="211"/>
      <point x="397" y="156" type="curve" smooth="yes"/>
      <point x="397" y="75"/>
      <point x="340" y="22"/>
      <point x="251" y="22" type="curve" smooth="yes"/>
      <point x="167" y="22"/>
      <point x="120" y="70"/>
    </contour>
  </outline>
</glyph>
<glyph name="nine" format="1">
  <advance width="575"/>
  <unicode hex="0039"/>
  <outline>
    <contour>
      <point x="509" y="300" type="curve" smooth="yes"/>
      <point x="519" y="363" type="line" smooth="yes"/>
      <point x="552" y="559"/>
      <point x="495" y="690"/>
      <point x="334" y="690" type="curve" smooth="yes"/>
      <point x="217" y="690"/>
      <point x="120" y="615"/>
      <point x="102" y="497" type="curve" smooth="yes"/>
      <point x="99" y="479" type="line" smooth="yes"/>
      <point x="78" y="349"/>
      <point x="151" y="262"/>
      <point x="264" y="262" type="curve" smooth="yes"/>
      <point x="319" y="262"/>
      <point x="373" y="283"/>
      <point x="418" y="325" type="curve"/>
      <point x="404" y="243" type="line" smooth="yes"/>
      <point x="374" y="67"/>
      <point x="291" y="22"/>
      <point x="220" y="22" type="curve" smooth="yes"/>
      <point x="158" y="22"/>
      <point x="106" y="54"/>
      <point x="109" y="164" type="curve"/>
      <point x="47" y="146" type="line"/>
      <point x="58" y="35"/>
      <point x="130" y="-10"/>
      <point x="222" y="-10" type="curve" smooth="yes"/>
      <point x="363" y="-10"/>
      <point x="473" y="78"/>
    </contour>
    <contour>
      <point x="191" y="478" type="curve" smooth="yes"/>
      <point x="194" y="495" type="line" smooth="yes"/>
      <point x="213" y="613"/>
      <point x="267" y="658"/>
      <point x="337" y="658" type="curve" smooth="yes"/>
      <point x="427" y="658"/>
      <point x="464" y="587"/>
      <point x="435" y="424" type="curve" smooth="yes"/>
      <point x="427" y="379" type="line"/>
      <point x="381" y="320"/>
      <point x="328" y="299"/>
      <point x="283" y="299" type="curve" smooth="yes"/>
      <point x="202" y="299"/>
      <point x="174" y="370"/>
    </contour>
  </outline>
</glyph>
<glyph name="colon" format="1">
  <advance width="258"/>
  <unicode hex="003A"/>
  <outline>
    <contour>
      <point x="160" y="392" type="curve" smooth="yes"/>
      <point x="197" y="392"/>
      <point x="221" y="420"/>
      <point x="221" y="454" type="curve" smooth="yes"/>
      <point x="221" y="486"/>
      <point x="201" y="505"/>
      <point x="168" y="505" type="curve" smooth="yes"/>
      <point x="131" y="505"/>
      <point x="107" y="477"/>
      <point x="107" y="442" type="curve" smooth="yes"/>
      <point x="107" y="410"/>
      <point x="127" y="392"/>
    </contour>
    <contour>
      <point x="89" y="-10" type="curve" smooth="yes"/>
      <point x="127" y="-10"/>
      <point x="151" y="17"/>
      <point x="151" y="52" type="curve" smooth="yes"/>
      <point x="151" y="84"/>
      <point x="131" y="102"/>
      <point x="98" y="102" type="curve" smooth="yes"/>
      <point x="61" y="102"/>
      <point x="36" y="75"/>
      <point x="36" y="40" type="curve" smooth="yes"/>
      <point x="36" y="8"/>
      <point x="57" y="-10"/>
    </contour>
  </outline>
</glyph>
<glyph name="semicolon" format="1">
  <advance width="258"/>
  <unicode hex="003B"/>
  <outline>
    <contour>
      <point x="160" y="392" type="curve" smooth="yes"/>
      <point x="197" y="392"/>
      <point x="221" y="420"/>
      <point x="221" y="454" type="curve" smooth="yes"/>
      <point x="221" y="486"/>
      <point x="201" y="505"/>
      <point x="168" y="505" type="curve" smooth="yes"/>
      <point x="131" y="505"/>
      <point x="107" y="477"/>
      <point x="107" y="442" type="curve" smooth="yes"/>
      <point x="107" y="410"/>
      <point x="127" y="392"/>
    </contour>
    <contour>
      <point x="148" y="41" type="curve" smooth="yes"/>
      <point x="148" y="78"/>
      <point x="127" y="98"/>
      <point x="97" y="98" type="curve" smooth="yes"/>
      <point x="62" y="98"/>
      <point x="39" y="72"/>
      <point x="39" y="38" type="curve" smooth="yes"/>
      <point x="39" y="9"/>
      <point x="57" y="-9"/>
      <point x="85" y="-10" type="curve"/>
      <point x="75" y="-52"/>
      <point x="43" y="-107"/>
      <point x="-23" y="-174" type="curve"/>
      <point x="-4" y="-193" type="line"/>
      <point x="83" y="-111"/>
      <point x="148" y="-25"/>
    </contour>
  </outline>
</glyph>
<glyph name="equal" format="1">
  <advance width="588"/>
  <unicode hex="003D"/>
  <outline>
    <contour>
      <point x="116" y="417" type="line"/>
      <point x="530" y="417" type="line"/>
      <point x="536" y="450" type="line"/>
      <point x="122" y="450" type="line"/>
    </contour>
    <contour>
      <point x="81" y="217" type="line"/>
      <point x="495" y="217" type="line"/>
      <point x="501" y="250" type="line"/>
      <point x="87" y="250" type="line"/>
    </contour>
  </outline>
</glyph>
<glyph name="greater" format="1">
  <advance width="588"/>
  <unicode hex="003E"/>
  <outline>
    <contour>
      <point x="513" y="318" type="line"/>
      <point x="518" y="346" type="line"/>
      <point x="144" y="507" type="line"/>
      <point x="128" y="477" type="line"/>
      <point x="464" y="334" type="line"/>
      <point x="74" y="189" type="line"/>
      <point x="82" y="157" type="line"/>
    </contour>
  </outline>
</glyph>
<glyph name="question" format="1">
  <advance width="479"/>
  <unicode hex="003F"/>
  <outline>
    <contour>
      <point x="242" y="184" type="line"/>
      <point x="244" y="207" type="line" smooth="yes"/>
      <point x="255" y="366"/>
      <point x="484" y="359"/>
      <point x="484" y="536" type="curve" smooth="yes"/>
      <point x="484" y="624"/>
      <point x="423" y="690"/>
      <point x="302" y="690" type="curve" smooth="yes"/>
      <point x="150" y="690"/>
      <point x="86" y="592"/>
      <point x="85" y="483" type="curve"/>
      <point x="164" y="467" type="line"/>
      <point x="173" y="591"/>
      <point x="217" y="658"/>
      <point x="298" y="658" type="curve" smooth="yes"/>
      <point x="354" y="658"/>
      <point x="392" y="624"/>
      <point x="392" y="540" type="curve" smooth="yes"/>
      <point x="392" y="353"/>
      <point x="229" y="378"/>
      <point x="200" y="206" type="curve" smooth="yes"/>
      <point x="196" y="184" type="line"/>
    </contour>
    <contour>
      <point x="192" y="-10" type="curve" smooth="yes"/>
      <point x="229" y="-10"/>
      <point x="254" y="17"/>
      <point x="254" y="52" type="curve" smooth="yes"/>
      <point x="254" y="84"/>
      <point x="233" y="102"/>
      <point x="201" y="102" type="curve" smooth="yes"/>
      <point x="163" y="102"/>
      <point x="139" y="75"/>
      <point x="139" y="40" type="curve" smooth="yes"/>
      <point x="139" y="8"/>
      <point x="159" y="-10"/>
    </contour>
  </outline>
</glyph>
<glyph name="at" format="1">
  <advance width="965"/>
  <unicode hex="0040"/>
  <outline>
    <contour>
      <point x="741" y="-167" type="curve"/>
      <point x="721" y="-119" type="line"/>
      <point x="648" y="-175"/>
      <point x="561" y="-191"/>
      <point x="487" y="-191" type="curve" smooth="yes"/>
      <point x="249" y="-191"/>
      <point x="96" y="-23"/>
      <point x="96" y="214" type="curve" smooth="yes"/>
      <point x="96" y="463"/>
      <point x="263" y="658"/>
      <point x="500" y="658" type="curve" smooth="yes"/>
      <point x="716" y="658"/>
      <point x="872" y="491"/>
      <point x="872" y="278" type="curve" smooth="yes"/>
      <point x="872" y="132"/>
      <point x="792" y="29"/>
      <point x="700" y="29" type="curve" smooth="yes"/>
      <point x="663" y="29"/>
      <point x="635" y="51"/>
      <point x="653" y="153" type="curve" smooth="yes"/>
      <point x="709" y="464" type="line"/>
      <point x="674" y="464" type="line"/>
      <point x="660" y="444"/>
      <point x="643" y="424"/>
      <point x="625" y="406" type="curve"/>
      <point x="597" y="447"/>
      <point x="557" y="474"/>
      <point x="499" y="474" type="curve" smooth="yes"/>
      <point x="401" y="474"/>
      <point x="312" y="398"/>
      <point x="288" y="268" type="curve" smooth="yes"/>
      <point x="284" y="246" type="line" smooth="yes"/>
      <point x="258" y="101"/>
      <point x="316" y="-7"/>
      <point x="422" y="-7" type="curve" smooth="yes"/>
      <point x="477" y="-7"/>
      <point x="527" y="22"/>
      <point x="572" y="93" type="curve"/>
      <point x="582" y="32"/>
      <point x="631" y="-2"/>
      <point x="695" y="-2" type="curve" smooth="yes"/>
      <point x="816" y="-2"/>
      <point x="906" y="120"/>
      <point x="906" y="278" type="curve" smooth="yes"/>
      <point x="906" y="510"/>
      <point x="735" y="690"/>
      <point x="500" y="690" type="curve" smooth="yes"/>
      <point x="243" y="690"/>
      <point x="62" y="482"/>
      <point x="62" y="214" type="curve" smooth="yes"/>
      <point x="62" y="-40"/>
      <point x="229" y="-223"/>
      <point x="487" y="-223" type="curve" smooth="yes"/>
      <point x="569" y="-223"/>
      <point x="668" y="-204"/>
    </contour>
    <contour>
      <point x="363" y="216" type="curve" smooth="yes"/>
      <point x="373" y="276" type="line" smooth="yes"/>
      <point x="390" y="379"/>
      <point x="431" y="442"/>
      <point x="504" y="442" type="curve" smooth="yes"/>
      <point x="549" y="442"/>
      <point x="585" y="418"/>
      <point x="611" y="366" type="curve"/>
      <point x="575" y="161" type="line"/>
      <point x="518" y="49"/>
      <point x="472" y="25"/>
      <point x="430" y="25" type="curve" smooth="yes"/>
      <point x="375" y="25"/>
      <point x="342" y="90"/>
    </contour>
  </outline>
</glyph>
<glyph name="A" format="1">
  <advance width="628"/>
  <unicode hex="0041"/>
  <outline>
    <contour>
      <point x="152" y="26" type="line"/>
      <point x="98" y="32" type="line" smooth="yes"/>
      <point x="77" y="34"/>
      <point x="76" y="35"/>
      <point x="99" y="81" type="curve" smooth="yes"/>
      <point x="163" y="209" type="line"/>
      <point x="407" y="209" type="line"/>
      <point x="425" y="81" type="line" smooth="yes"/>
      <point x="431" y="36"/>
      <point x="430" y="34"/>
      <point x="408" y="32" type="curve" smooth="yes"/>
      <point x="352" y="26" type="line"/>
      <point x="347" y="0" type="line"/>
      <point x="587" y="0" type="line"/>
      <point x="591" y="26" type="line"/>
      <point x="537" y="32" type="line" smooth="yes"/>
      <point x="518" y="34"/>
      <point x="517" y="35"/>
      <point x="510" y="81" type="curve" smooth="yes"/>
      <point x="421" y="680" type="line"/>
      <point x="358" y="680" type="line"/>
      <point x="59" y="81" type="line" smooth="yes"/>
      <point x="37" y="35"/>
      <point x="36" y="34"/>
      <point x="14" y="32" type="curve" smooth="yes"/>
      <point x="-41" y="26" type="line"/>
      <point x="-46" y="0" type="line"/>
      <point x="147" y="0" type="line"/>
    </contour>
    <contour>
      <point x="179" y="241" type="line"/>
      <point x="352" y="589" type="line"/>
      <point x="402" y="241" type="line"/>
    </contour>
  </outline>
</glyph>
<glyph name="B" format="1">
  <advance width="605"/>
  <unicode hex="0042"/>
  <outline>
    <contour>
      <point x="119" y="653" type="line"/>
      <point x="174" y="648" type="line" smooth="yes"/>
      <point x="194" y="645"/>
      <point x="195" y="645"/>
      <point x="187" y="599" type="curve" smooth="yes"/>
      <point x="96" y="81" type="line" smooth="yes"/>
      <point x="88" y="35"/>
      <point x="87" y="34"/>
      <point x="65" y="32" type="curve" smooth="yes"/>
      <point x="9" y="26" type="line"/>
      <point x="4" y="0" type="line"/>
      <point x="307" y="0" type="line" smooth="yes"/>
      <point x="437" y="0"/>
      <point x="516" y="64"/>
      <point x="531" y="161" type="curve" smooth="yes"/>
      <point x="536" y="188" type="line" smooth="yes"/>
      <point x="549" y="269"/>
      <point x="508" y="330"/>
      <point x="421" y="349" type="curve"/>
      <point x="500" y="368"/>
      <point x="547" y="417"/>
      <point x="559" y="486" type="curve" smooth="yes"/>
      <point x="563" y="514" type="line" smooth="yes"/>
      <point x="578" y="606"/>
      <point x="521" y="680"/>
      <point x="392" y="680" type="curve" smooth="yes"/>
      <point x="124" y="680" type="line"/>
    </contour>
    <contour>
      <point x="391" y="648" type="line" smooth="yes"/>
      <point x="459" y="648"/>
      <point x="488" y="603"/>
      <point x="472" y="519" type="curve" smooth="yes"/>
      <point x="465" y="478" type="line" smooth="yes"/>
      <point x="451" y="401"/>
      <point x="408" y="362"/>
      <point x="340" y="362" type="curve" smooth="yes"/>
      <point x="232" y="362" type="line"/>
      <point x="282" y="648" type="line"/>
    </contour>
    <contour>
      <point x="360" y="330" type="line" smooth="yes"/>
      <point x="430" y="330"/>
      <point x="461" y="282"/>
      <point x="445" y="197" type="curve" smooth="yes"/>
      <point x="438" y="156" type="line" smooth="yes"/>
      <point x="423" y="74"/>
      <point x="378" y="32"/>
      <point x="307" y="32" type="curve" smooth="yes"/>
      <point x="174" y="32" type="line"/>
      <point x="226" y="330" type="line"/>
    </contour>
  </outline>
</glyph>
<glyph name="C" format="1">
  <advance width="586"/>
  <unicode hex="0043"/>
  <outline>
    <contour>
      <point x="297" y="-10" type="curve" smooth="yes"/>
      <point x="388" y="-10"/>
      <point x="470" y="29"/>
      <point x="518" y="135" type="curve"/>
      <point x="456" y="156" type="line"/>
      <point x="427" y="54"/>
      <point x="364" y="22"/>
      <point x="300" y="22" type="curve" smooth="yes"/>
      <point x="188" y="22"/>
      <point x="145" y="96"/>
      <point x="173" y="265" type="curve" smooth="yes"/>
      <point x="201" y="432" type="line" smooth="yes"/>
      <point x="228" y="592"/>
      <point x="297" y="658"/>
      <point x="392" y="658" type="curve" smooth="yes"/>
      <point x="486" y="658"/>
      <point x="520" y="587"/>
      <point x="484" y="459" type="curve"/>
      <point x="574" y="480" type="line"/>
      <point x="607" y="586"/>
      <point x="540" y="690"/>
      <point x="393" y="690" type="curve" smooth="yes"/>
      <point x="233" y="690"/>
      <point x="127" y="572"/>
      <point x="97" y="382" type="curve" smooth="yes"/>
      <point x="86" y="315" type="line" smooth="yes"/>
      <point x="55" y="120"/>
      <point x="131" y="-10"/>
    </contour>
  </outline>
</glyph>
<glyph name="D" format="1">
  <advance width="659"/>
  <unicode hex="0044"/>
  <outline>
    <contour>
      <point x="119" y="653" type="line"/>
      <point x="174" y="648" type="line" smooth="yes"/>
      <point x="194" y="645"/>
      <point x="195" y="645"/>
      <point x="187" y="599" type="curve" smooth="yes"/>
      <point x="96" y="81" type="line" smooth="yes"/>
      <point x="88" y="35"/>
      <point x="87" y="34"/>
      <point x="65" y="32" type="curve" smooth="yes"/>
      <point x="9" y="26" type="line"/>
      <point x="4" y="0" type="line"/>
      <point x="292" y="0" type="line" smooth="yes"/>
      <point x="455" y="0"/>
      <point x="562" y="119"/>
      <point x="594" y="301" type="curve" smooth="yes"/>
      <point x="606" y="366" type="line" smooth="yes"/>
      <point x="637" y="543"/>
      <point x="562" y="680"/>
      <point x="386" y="680" type="curve" smooth="yes"/>
      <point x="124" y="680" type="line"/>
    </contour>
    <contour>
      <point x="387" y="648" type="line" smooth="yes"/>
      <point x="503" y="648"/>
      <point x="545" y="564"/>
      <point x="520" y="418" type="curve" smooth="yes"/>
      <point x="491" y="253" type="line" smooth="yes"/>
      <point x="466" y="108"/>
      <point x="397" y="32"/>
      <point x="291" y="32" type="curve" smooth="yes"/>
      <point x="174" y="32" type="line"/>
      <point x="282" y="648" type="line"/>
    </contour>
  </outline>
</glyph>
<glyph name="E" format="1">
  <advance width="580"/>
  <unicode hex="0045"/>
  <outline>
    <contour>
      <point x="512" y="163" type="line"/>
      <point x="486" y="163" type="line"/>
      <point x="439" y="58" type="line" smooth="yes"/>
      <point x="428" y="34"/>
      <point x="427" y="32"/>
      <point x="380" y="32" type="curve"/>
      <point x="174" y="32" type="line"/>
      <point x="226" y="327" type="line"/>
      <point x="360" y="327" type="line" smooth="yes"/>
      <point x="407" y="327"/>
      <point x="408" y="325"/>
      <point x="410" y="301" type="curve" smooth="yes"/>
      <point x="416" y="226" type="line"/>
      <point x="441" y="226" type="line"/>
      <point x="482" y="460" type="line"/>
      <point x="457" y="460" type="line"/>
      <point x="425" y="385" type="line" smooth="yes"/>
      <point x="414" y="361"/>
      <point x="413" y="359"/>
      <point x="366" y="359" type="curve" smooth="yes"/>
      <point x="232" y="359" type="line"/>
      <point x="283" y="648" type="line"/>
      <point x="477" y="648" type="line" smooth="yes"/>
      <point x="524" y="648"/>
      <point x="523" y="645"/>
      <point x="526" y="622" type="curve" smooth="yes"/>
      <point x="536" y="517" type="line"/>
      <point x="562" y="517" type="line"/>
      <point x="591" y="680" type="line"/>
      <point x="124" y="680" type="line"/>
      <point x="119" y="653" type="line"/>
      <point x="174" y="648" type="line" smooth="yes"/>
      <point x="194" y="645"/>
      <point x="195" y="645"/>
      <point x="187" y="599" type="curve" smooth="yes"/>
      <point x="96" y="81" type="line" smooth="yes"/>
      <point x="88" y="34"/>
      <point x="87" y="34"/>
      <point x="65" y="32" type="curve" smooth="yes"/>
      <point x="9" y="26" type="line"/>
      <point x="4" y="0" type="line"/>
      <point x="483" y="0" type="line"/>
    </contour>
  </outline>
</glyph>
<glyph name="F" format="1">
  <advance width="543"/>
  <unicode hex="0046"/>
  <outline>
    <contour>
      <point x="270" y="26" type="line"/>
      <point x="196" y="32" type="line" smooth="yes"/>
      <point x="175" y="33"/>
      <point x="174" y="34"/>
      <point x="182" y="81" type="curve" smooth="yes"/>
      <point x="224" y="318" type="line"/>
      <point x="348" y="318" type="line" smooth="yes"/>
      <point x="395" y="318"/>
      <point x="396" y="316"/>
      <point x="398" y="292" type="curve" smooth="yes"/>
      <point x="404" y="217" type="line"/>
      <point x="430" y="217" type="line"/>
      <point x="471" y="451" type="line"/>
      <point x="445" y="451" type="line"/>
      <point x="412" y="376" type="line" smooth="yes"/>
      <point x="402" y="352"/>
      <point x="401" y="350"/>
      <point x="354" y="350" type="curve" smooth="yes"/>
      <point x="229" y="350" type="line"/>
      <point x="282" y="648" type="line"/>
      <point x="466" y="648" type="line" smooth="yes"/>
      <point x="513" y="648"/>
      <point x="513" y="645"/>
      <point x="516" y="622" type="curve" smooth="yes"/>
      <point x="526" y="517" type="line"/>
      <point x="553" y="517" type="line"/>
      <point x="581" y="680" type="line"/>
      <point x="124" y="680" type="line"/>
      <point x="119" y="653" type="line"/>
      <point x="173" y="648" type="line" smooth="yes"/>
      <point x="194" y="645"/>
      <point x="195" y="645"/>
      <point x="187" y="599" type="curve" smooth="yes"/>
      <point x="95" y="81" type="line" smooth="yes"/>
      <point x="87" y="34"/>
      <point x="86" y="34"/>
      <point x="65" y="32" type="curve" smooth="yes"/>
      <point x="9" y="26" type="line"/>
      <point x="4" y="0" type="line"/>
      <point x="265" y="0" type="line"/>
    </contour>
  </outline>
</glyph>
<glyph name="G" format="1">
  <advance width="649"/>
  <unicode hex="0047"/>
  <outline>
    <contour>
      <point x="484" y="12" type="curve"/>
      <point x="508" y="12" type="line"/>
      <point x="546" y="227" type="line" smooth="yes"/>
      <point x="554" y="272"/>
      <point x="556" y="273"/>
      <point x="577" y="276" type="curve" smooth="yes"/>
      <point x="633" y="281" type="line"/>
      <point x="637" y="308" type="line"/>
      <point x="382" y="308" type="line"/>
      <point x="378" y="281" type="line"/>
      <point x="452" y="276" type="line" smooth="yes"/>
      <point x="473" y="274"/>
      <point x="474" y="273"/>
      <point x="465" y="227" type="curve" smooth="yes"/>
      <point x="442" y="98" type="line"/>
      <point x="407" y="41"/>
      <point x="349" y="22"/>
      <point x="294" y="22" type="curve" smooth="yes"/>
      <point x="188" y="22"/>
      <point x="145" y="96"/>
      <point x="173" y="265" type="curve" smooth="yes"/>
      <point x="201" y="432" type="line" smooth="yes"/>
      <point x="228" y="592"/>
      <point x="301" y="658"/>
      <point x="399" y="658" type="curve" smooth="yes"/>
      <point x="502" y="658"/>
      <point x="536" y="588"/>
      <point x="500" y="459" type="curve"/>
      <point x="590" y="480" type="line"/>
      <point x="622" y="587"/>
      <point x="555" y="690"/>
      <point x="401" y="690" type="curve" smooth="yes"/>
      <point x="237" y="690"/>
      <point x="127" y="572"/>
      <point x="97" y="382" type="curve" smooth="yes"/>
      <point x="86" y="315" type="line" smooth="yes"/>
      <point x="55" y="120"/>
      <point x="129" y="-10"/>
      <point x="290" y="-10" type="curve" smooth="yes"/>
      <point x="353" y="-10"/>
      <point x="408" y="12"/>
      <point x="450" y="56" type="curve"/>
      <point x="465" y="44"/>
      <point x="476" y="29"/>
    </contour>
  </outline>
</glyph>
<glyph name="H" format="1">
  <advance width="726"/>
  <unicode hex="0048"/>
  <outline>
    <contour>
      <point x="250" y="26" type="line"/>
      <point x="196" y="32" type="line" smooth="yes"/>
      <point x="175" y="34"/>
      <point x="174" y="34"/>
      <point x="182" y="81" type="curve" smooth="yes"/>
      <point x="226" y="327" type="line"/>
      <point x="528" y="327" type="line"/>
      <point x="484" y="81" type="line" smooth="yes"/>
      <point x="476" y="34"/>
      <point x="475" y="34"/>
      <point x="454" y="32" type="curve" smooth="yes"/>
      <point x="398" y="26" type="line"/>
      <point x="393" y="0" type="line"/>
      <point x="634" y="0" type="line"/>
      <point x="639" y="26" type="line"/>
      <point x="585" y="32" type="line" smooth="yes"/>
      <point x="564" y="34"/>
      <point x="563" y="34"/>
      <point x="571" y="81" type="curve" smooth="yes"/>
      <point x="663" y="599" type="line" smooth="yes"/>
      <point x="671" y="645"/>
      <point x="672" y="645"/>
      <point x="693" y="648" type="curve" smooth="yes"/>
      <point x="749" y="653" type="line"/>
      <point x="754" y="680" type="line"/>
      <point x="513" y="680" type="line"/>
      <point x="508" y="653" type="line"/>
      <point x="562" y="648" type="line" smooth="yes"/>
      <point x="583" y="645"/>
      <point x="584" y="645"/>
      <point x="576" y="599" type="curve" smooth="yes"/>
      <point x="533" y="359" type="line"/>
      <point x="231" y="359" type="line"/>
      <point x="274" y="599" type="line" smooth="yes"/>
      <point x="282" y="645"/>
      <point x="283" y="645"/>
      <point x="304" y="648" type="curve" smooth="yes"/>
      <point x="360" y="653" type="line"/>
      <point x="365" y="680" type="line"/>
      <point x="124" y="680" type="line"/>
      <point x="119" y="653" type="line"/>
      <point x="173" y="648" type="line" smooth="yes"/>
      <point x="194" y="645"/>
      <point x="195" y="645"/>
      <point x="187" y="599" type="curve" smooth="yes"/>
      <point x="95" y="81" type="line" smooth="yes"/>
      <point x="87" y="34"/>
      <point x="86" y="34"/>
      <point x="65" y="32" type="curve" smooth="yes"/>
      <point x="9" y="26" type="line"/>
      <point x="4" y="0" type="line"/>
      <point x="245" y="0" type="line"/>
    </contour>
  </outline>
</glyph>
<glyph name="I" format="1">
  <advance width="337"/>
  <unicode hex="0049"/>
  <outline>
    <contour>
      <point x="119" y="653" type="line"/>
      <point x="173" y="648" type="line" smooth="yes"/>
      <point x="194" y="645"/>
      <point x="195" y="645"/>
      <point x="187" y="599" type="curve" smooth="yes"/>
      <point x="95" y="81" type="line" smooth="yes"/>
      <point x="87" y="34"/>
      <point x="86" y="34"/>
      <point x="65" y="32" type="curve" smooth="yes"/>
      <point x="9" y="26" type="line"/>
      <point x="4" y="0" type="line"/>
      <point x="245" y="0" type="line"/>
      <point x="250" y="26" type="line"/>
      <point x="196" y="32" type="line" smooth="yes"/>
      <point x="175" y="34"/>
      <point x="174" y="34"/>
      <point x="182" y="81" type="curve" smooth="yes"/>
      <point x="274" y="599" type="line" smooth="yes"/>
      <point x="282" y="645"/>
      <point x="283" y="645"/>
      <point x="304" y="648" type="curve" smooth="yes"/>
      <point x="360" y="653" type="line"/>
      <point x="365" y="680" type="line"/>
      <point x="124" y="680" type="line"/>
    </contour>
  </outline>
</glyph>
<glyph name="J" format="1">
  <advance width="461"/>
  <unicode hex="004A"/>
  <outline>
    <contour>
      <point x="255" y="653" type="line"/>
      <point x="310" y="648" type="line" smooth="yes"/>
      <point x="330" y="645"/>
      <point x="331" y="644"/>
      <point x="323" y="599" type="curve" smooth="yes"/>
      <point x="251" y="190" type="line" smooth="yes"/>
      <point x="228" y="57"/>
      <point x="178" y="22"/>
      <point x="123" y="22" type="curve" smooth="yes"/>
      <point x="84" y="22"/>
      <point x="44" y="45"/>
      <point x="58" y="153" type="curve"/>
      <point x="-7" y="134" type="line"/>
      <point x="-14" y="25"/>
      <point x="53" y="-10"/>
      <point x="127" y="-10" type="curve" smooth="yes"/>
      <point x="254" y="-10"/>
      <point x="319" y="81"/>
      <point x="339" y="194" type="curve" smooth="yes"/>
      <point x="410" y="599" type="line" smooth="yes"/>
      <point x="418" y="644"/>
      <point x="419" y="645"/>
      <point x="441" y="648" type="curve" smooth="yes"/>
      <point x="496" y="653" type="line"/>
      <point x="501" y="680" type="line"/>
      <point x="260" y="680" type="line"/>
    </contour>
  </outline>
</glyph>
<glyph name="L" format="1">
  <advance width="515"/>
  <unicode hex="004C"/>
  <outline>
    <contour>
      <point x="488" y="165" type="line"/>
      <point x="462" y="165" type="line"/>
      <point x="414" y="58" type="line" smooth="yes"/>
      <point x="403" y="34"/>
      <point x="402" y="32"/>
      <point x="355" y="32" type="curve" smooth="yes"/>
      <point x="174" y="32" type="line"/>
      <point x="274" y="599" type="line" smooth="yes"/>
      <point x="282" y="645"/>
      <point x="283" y="645"/>
      <point x="304" y="648" type="curve" smooth="yes"/>
      <point x="360" y="653" type="line"/>
      <point x="365" y="680" type="line"/>
      <point x="124" y="680" type="line"/>
      <point x="119" y="653" type="line"/>
      <point x="173" y="648" type="line" smooth="yes"/>
      <point x="194" y="645"/>
      <point x="195" y="645"/>
      <point x="187" y="599" type="curve" smooth="yes"/>
      <point x="95" y="81" type="line" smooth="yes"/>
      <point x="87" y="34"/>
      <point x="86" y="34"/>
      <point x="65" y="32" type="curve" smooth="yes"/>
      <point x="9" y="26" type="line"/>
      <point x="4" y="0" type="line"/>
      <point x="459" y="0" type="line"/>
    </contour>
  </outline>
</glyph>
<glyph name="M" format="1">
  <advance width="860"/>
  <unicode hex="004D"/>
  <outline>
    <contour>
      <point x="303" y="680" type="line"/>
      <point x="124" y="680" type="line"/>
      <point x="119" y="653" type="line"/>
      <point x="174" y="648" type="line" smooth="yes"/>
      <point x="194" y="645"/>
      <point x="195" y="644"/>
      <point x="187" y="599" type="curve" smooth="yes"/>
      <point x="96" y="81" type="line" smooth="yes"/>
      <point x="88" y="35"/>
      <point x="83" y="34"/>
      <point x="65" y="32" type="curve" smooth="yes"/>
      <point x="9" y="26" type="line"/>
      <point x="4" y="0" type="line"/>
      <point x="195" y="0" type="line"/>
      <point x="200" y="26" type="line"/>
      <point x="146" y="32" type="line" smooth="yes"/>
      <point x="126" y="34"/>
      <point x="125" y="35"/>
      <point x="133" y="81" type="curve" smooth="yes"/>
      <point x="227" y="628" type="line"/>
      <point x="341" y="80" type="line"/>
      <point x="409" y="80" type="line"/>
      <point x="714" y="625" type="line"/>
      <point x="618" y="81" type="line" smooth="yes"/>
      <point x="610" y="35"/>
      <point x="608" y="34"/>
      <point x="587" y="32" type="curve" smooth="yes"/>
      <point x="531" y="26" type="line"/>
      <point x="527" y="0" type="line"/>
      <point x="768" y="0" type="line"/>
      <point x="772" y="26" type="line"/>
      <point x="718" y="32" type="line" smooth="yes"/>
      <point x="698" y="34"/>
      <point x="697" y="35"/>
      <point x="705" y="81" type="curve" smooth="yes"/>
      <point x="796" y="599" type="line" smooth="yes"/>
      <point x="804" y="644"/>
      <point x="806" y="645"/>
      <point x="827" y="648" type="curve" smooth="yes"/>
      <point x="883" y="653" type="line"/>
      <point x="888" y="680" type="line"/>
      <point x="704" y="680" type="line"/>
      <point x="412" y="157" type="line"/>
    </contour>
  </outline>
</glyph>
<glyph name="N" format="1">
  <advance width="691"/>
  <unicode hex="004E"/>
  <outline>
    <contour>
      <point x="119" y="653" type="line"/>
      <point x="174" y="648" type="line" smooth="yes"/>
      <point x="194" y="645"/>
      <point x="195" y="644"/>
      <point x="187" y="599" type="curve" smooth="yes"/>
      <point x="96" y="81" type="line" smooth="yes"/>
      <point x="88" y="35"/>
      <point x="87" y="34"/>
      <point x="65" y="32" type="curve" smooth="yes"/>
      <point x="9" y="26" type="line"/>
      <point x="4" y="0" type="line"/>
      <point x="195" y="0" type="line"/>
      <point x="200" y="26" type="line"/>
      <point x="146" y="32" type="line" smooth="yes"/>
      <point x="126" y="34"/>
      <point x="125" y="35"/>
      <point x="133" y="81" type="curve" smooth="yes"/>
      <point x="227" y="613" type="line"/>
      <point x="491" y="0" type="line"/>
      <point x="531" y="0" type="line"/>
      <point x="637" y="599" type="line" smooth="yes"/>
      <point x="645" y="644"/>
      <point x="646" y="645"/>
      <point x="668" y="648" type="curve" smooth="yes"/>
      <point x="723" y="653" type="line"/>
      <point x="728" y="680" type="line"/>
      <point x="537" y="680" type="line"/>
      <point x="532" y="653" type="line"/>
      <point x="587" y="648" type="line" smooth="yes"/>
      <point x="607" y="645"/>
      <point x="608" y="644"/>
      <point x="600" y="599" type="curve" smooth="yes"/>
      <point x="519" y="146" type="line"/>
      <point x="291" y="680" type="line"/>
      <point x="124" y="680" type="line"/>
    </contour>
  </outline>
</glyph>
<glyph name="O" format="1">
  <advance width="666"/>
  <unicode hex="004F"/>
  <outline>
    <contour>
      <point x="614" y="366" type="line" smooth="yes"/>
      <point x="646" y="548"/>
      <point x="571" y="690"/>
      <point x="397" y="690" type="curve" smooth="yes"/>
      <point x="235" y="690"/>
      <point x="129" y="566"/>
      <point x="96" y="380" type="curve" smooth="yes"/>
      <point x="85" y="315" type="line" smooth="yes"/>
      <point x="53" y="130"/>
      <point x="126" y="-10"/>
      <point x="301" y="-10" type="curve" smooth="yes"/>
      <point x="463" y="-10"/>
      <point x="570" y="113"/>
      <point x="602" y="301" type="curve" smooth="yes"/>
    </contour>
    <contour>
      <point x="528" y="418" type="curve" smooth="yes"/>
      <point x="499" y="253" type="line" smooth="yes"/>
      <point x="473" y="102"/>
      <point x="406" y="22"/>
      <point x="301" y="22" type="curve" smooth="yes"/>
      <point x="187" y="22"/>
      <point x="144" y="110"/>
      <point x="171" y="263" type="curve" smooth="yes"/>
      <point x="200" y="428" type="line" smooth="yes"/>
      <point x="226" y="579"/>
      <point x="293" y="658"/>
      <point x="397" y="658" type="curve" smooth="yes"/>
      <point x="511" y="658"/>
      <point x="554" y="570"/>
    </contour>
  </outline>
</glyph>
<glyph name="P" format="1">
  <advance width="574"/>
  <unicode hex="0050"/>
  <outline>
    <contour>
      <point x="119" y="653" type="line"/>
      <point x="174" y="648" type="line" smooth="yes"/>
      <point x="194" y="645"/>
      <point x="195" y="645"/>
      <point x="187" y="599" type="curve" smooth="yes"/>
      <point x="96" y="81" type="line" smooth="yes"/>
      <point x="88" y="35"/>
      <point x="87" y="34"/>
      <point x="65" y="32" type="curve" smooth="yes"/>
      <point x="9" y="26" type="line"/>
      <point x="4" y="0" type="line"/>
      <point x="265" y="0" type="line"/>
      <point x="270" y="26" type="line"/>
      <point x="196" y="32" type="line" smooth="yes"/>
      <point x="175" y="33"/>
      <point x="175" y="34"/>
      <point x="183" y="81" type="curve" smooth="yes"/>
      <point x="219" y="288" type="line"/>
      <point x="344" y="288" type="line" smooth="yes"/>
      <point x="480" y="288"/>
      <point x="554" y="352"/>
      <point x="573" y="462" type="curve" smooth="yes"/>
      <point x="578" y="491" type="line" smooth="yes"/>
      <point x="597" y="598"/>
      <point x="532" y="680"/>
      <point x="403" y="680" type="curve" smooth="yes"/>
      <point x="124" y="680" type="line"/>
    </contour>
    <contour>
      <point x="402" y="648" type="line" smooth="yes"/>
      <point x="474" y="648"/>
      <point x="504" y="600"/>
      <point x="489" y="507" type="curve" smooth="yes"/>
      <point x="479" y="450" type="line" smooth="yes"/>
      <point x="464" y="363"/>
      <point x="417" y="320"/>
      <point x="344" y="320" type="curve" smooth="yes"/>
      <point x="225" y="320" type="line"/>
      <point x="282" y="648" type="line"/>
    </contour>
  </outline>
</glyph>
<glyph name="Q" format="1">
  <advance width="668"/>
  <unicode hex="0051"/>
  <outline>
    <contour>
      <point x="503" y="-98" type="line"/>
      <point x="398" y="-98"/>
      <point x="349" y="-78"/>
      <point x="331" y="-9" type="curve"/>
      <point x="477" y="5"/>
      <point x="572" y="124"/>
      <point x="603" y="301" type="curve" smooth="yes"/>
      <point x="615" y="366" type="line" smooth="yes"/>
      <point x="647" y="548"/>
      <point x="571" y="690"/>
      <point x="397" y="690" type="curve" smooth="yes"/>
      <point x="235" y="690"/>
      <point x="130" y="566"/>
      <point x="97" y="380" type="curve" smooth="yes"/>
      <point x="86" y="315" type="line" smooth="yes"/>
      <point x="54" y="133"/>
      <point x="125" y="-6"/>
      <point x="296" y="-10" type="curve"/>
      <point x="321" y="-137"/>
      <point x="404" y="-187"/>
      <point x="500" y="-187" type="curve"/>
    </contour>
    <contour>
      <point x="529" y="418" type="curve" smooth="yes"/>
      <point x="500" y="253" type="line" smooth="yes"/>
      <point x="474" y="102"/>
      <point x="407" y="22"/>
      <point x="302" y="22" type="curve" smooth="yes"/>
      <point x="188" y="22"/>
      <point x="145" y="110"/>
      <point x="172" y="263" type="curve" smooth="yes"/>
      <point x="200" y="428" type="line" smooth="yes"/>
      <point x="227" y="579"/>
      <point x="294" y="658"/>
      <point x="398" y="658" type="curve" smooth="yes"/>
      <point x="512" y="658"/>
      <point x="555" y="570"/>
    </contour>
  </outline>
</glyph>
<glyph name="R" format="1">
  <advance width="625"/>
  <unicode hex="0052"/>
  <outline>
    <contour>
      <point x="119" y="653" type="line"/>
      <point x="174" y="648" type="line" smooth="yes"/>
      <point x="194" y="645"/>
      <point x="195" y="644"/>
      <point x="187" y="599" type="curve" smooth="yes"/>
      <point x="96" y="81" type="line" smooth="yes"/>
      <point x="88" y="35"/>
      <point x="87" y="34"/>
      <point x="65" y="32" type="curve" smooth="yes"/>
      <point x="9" y="26" type="line"/>
      <point x="4" y="0" type="line"/>
      <point x="245" y="0" type="line"/>
      <point x="250" y="26" type="line"/>
      <point x="196" y="32" type="line" smooth="yes"/>
      <point x="176" y="34"/>
      <point x="175" y="35"/>
      <point x="183" y="81" type="curve" smooth="yes"/>
      <point x="223" y="308" type="line"/>
      <point x="325" y="308" type="line"/>
      <point x="430" y="0" type="line"/>
      <point x="576" y="0" type="line"/>
      <point x="580" y="26" type="line"/>
      <point x="536" y="32" type="line" smooth="yes"/>
      <point x="516" y="34"/>
      <point x="515" y="34"/>
      <point x="498" y="81" type="curve" smooth="yes"/>
      <point x="412" y="315" type="line"/>
      <point x="499" y="333"/>
      <point x="554" y="387"/>
      <point x="569" y="472" type="curve" smooth="yes"/>
      <point x="574" y="502" type="line" smooth="yes"/>
      <point x="592" y="603"/>
      <point x="528" y="680"/>
      <point x="395" y="680" type="curve" smooth="yes"/>
      <point x="124" y="680" type="line"/>
    </contour>
    <contour>
      <point x="397" y="648" type="line" smooth="yes"/>
      <point x="464" y="648"/>
      <point x="499" y="598"/>
      <point x="483" y="506" type="curve" smooth="yes"/>
      <point x="477" y="468" type="line" smooth="yes"/>
      <point x="463" y="386"/>
      <point x="410" y="340"/>
      <point x="342" y="340" type="curve" smooth="yes"/>
      <point x="228" y="340" type="line"/>
      <point x="282" y="648" type="line"/>
    </contour>
  </outline>
</glyph>
<glyph name="S" format="1">
  <advance width="548"/>
  <unicode hex="0053"/>
  <outline>
    <contour>
      <point x="239" y="-10" type="curve" smooth="yes"/>
      <point x="407" y="-10"/>
      <point x="486" y="90"/>
      <point x="486" y="197" type="curve" smooth="yes"/>
      <point x="486" y="280"/>
      <point x="439" y="332"/>
      <point x="355" y="365" type="curve" smooth="yes"/>
      <point x="281" y="395" type="line" smooth="yes"/>
      <point x="204" y="425"/>
      <point x="178" y="464"/>
      <point x="178" y="524" type="curve" smooth="yes"/>
      <point x="178" y="613"/>
      <point x="234" y="658"/>
      <point x="321" y="658" type="curve" smooth="yes"/>
      <point x="430" y="658"/>
      <point x="464" y="586"/>
      <point x="427" y="465" type="curve"/>
      <point x="514" y="483" type="line"/>
      <point x="547" y="578"/>
      <point x="489" y="690"/>
      <point x="325" y="690" type="curve" smooth="yes"/>
      <point x="172" y="690"/>
      <point x="100" y="600"/>
      <point x="100" y="494" type="curve" smooth="yes"/>
      <point x="100" y="408"/>
      <point x="145" y="352"/>
      <point x="225" y="320" type="curve" smooth="yes"/>
      <point x="299" y="291" type="line" smooth="yes"/>
      <point x="378" y="259"/>
      <point x="407" y="222"/>
      <point x="407" y="161" type="curve" smooth="yes"/>
      <point x="407" y="75"/>
      <point x="349" y="22"/>
      <point x="240" y="22" type="curve" smooth="yes"/>
      <point x="156" y="22"/>
      <point x="88" y="58"/>
      <point x="95" y="192" type="curve"/>
      <point x="32" y="172" type="line"/>
      <point x="34" y="31"/>
      <point x="133" y="-10"/>
    </contour>
  </outline>
</glyph>
<glyph name="T" format="1">
  <advance width="559"/>
  <unicode hex="0054"/>
  <outline>
    <contour>
      <point x="60" y="517" type="line"/>
      <point x="86" y="517" type="line"/>
      <point x="134" y="622" type="line" smooth="yes"/>
      <point x="144" y="646"/>
      <point x="145" y="648"/>
      <point x="192" y="648" type="curve" smooth="yes"/>
      <point x="306" y="648" type="line"/>
      <point x="206" y="81" type="line" smooth="yes"/>
      <point x="198" y="34"/>
      <point x="197" y="34"/>
      <point x="175" y="32" type="curve" smooth="yes"/>
      <point x="119" y="26" type="line"/>
      <point x="115" y="0" type="line"/>
      <point x="356" y="0" type="line"/>
      <point x="360" y="26" type="line"/>
      <point x="306" y="32" type="line" smooth="yes"/>
      <point x="286" y="34"/>
      <point x="285" y="34"/>
      <point x="293" y="81" type="curve" smooth="yes"/>
      <point x="393" y="648" type="line"/>
      <point x="507" y="648" type="line"/>
      <point x="554" y="648"/>
      <point x="554" y="646"/>
      <point x="556" y="622" type="curve" smooth="yes"/>
      <point x="566" y="517" type="line"/>
      <point x="593" y="517" type="line"/>
      <point x="621" y="680" type="line"/>
      <point x="89" y="680" type="line"/>
    </contour>
  </outline>
</glyph>
<glyph name="U" format="1">
  <advance width="677"/>
  <unicode hex="0055"/>
  <outline>
    <contour>
      <point x="524" y="653" type="line"/>
      <point x="579" y="648" type="line" smooth="yes"/>
      <point x="599" y="645"/>
      <point x="600" y="644"/>
      <point x="592" y="599" type="curve" smooth="yes"/>
      <point x="527" y="230" type="line" smooth="yes"/>
      <point x="503" y="95"/>
      <point x="434" y="22"/>
      <point x="320" y="22" type="curve" smooth="yes"/>
      <point x="209" y="22"/>
      <point x="169" y="89"/>
      <point x="194" y="230" type="curve" smooth="yes"/>
      <point x="259" y="599" type="line" smooth="yes"/>
      <point x="267" y="644"/>
      <point x="270" y="645"/>
      <point x="290" y="648" type="curve" smooth="yes"/>
      <point x="345" y="653" type="line"/>
      <point x="350" y="680" type="line"/>
      <point x="109" y="680" type="line"/>
      <point x="104" y="653" type="line"/>
      <point x="159" y="648" type="line" smooth="yes"/>
      <point x="179" y="645"/>
      <point x="180" y="644"/>
      <point x="172" y="599" type="curve" smooth="yes"/>
      <point x="110" y="246" type="line" smooth="yes"/>
      <point x="82" y="88"/>
      <point x="157" y="-10"/>
      <point x="315" y="-10" type="curve" smooth="yes"/>
      <point x="459" y="-10"/>
      <point x="538" y="81"/>
      <point x="564" y="230" type="curve" smooth="yes"/>
      <point x="629" y="599" type="line" smooth="yes"/>
      <point x="637" y="644"/>
      <point x="640" y="645"/>
      <point x="660" y="648" type="curve" smooth="yes"/>
      <point x="715" y="653" type="line"/>
      <point x="720" y="680" type="line"/>
      <point x="529" y="680" type="line"/>
    </contour>
  </outline>
</glyph>
<glyph name="V" format="1">
  <advance width="620"/>
  <unicode hex="0056"/>
  <outline>
    <contour>
      <point x="600" y="605" type="line" smooth="yes"/>
      <point x="620" y="645"/>
      <point x="621" y="645"/>
      <point x="641" y="648" type="curve" smooth="yes"/>
      <point x="693" y="653" type="line"/>
      <point x="698" y="680" type="line"/>
      <point x="513" y="680" type="line"/>
      <point x="508" y="653" type="line"/>
      <point x="559" y="648" type="line" smooth="yes"/>
      <point x="580" y="645"/>
      <point x="581" y="644"/>
      <point x="561" y="605" type="curve" smooth="yes"/>
      <point x="306" y="89" type="line"/>
      <point x="232" y="605" type="line" smooth="yes"/>
      <point x="226" y="644"/>
      <point x="227" y="645"/>
      <point x="249" y="648" type="curve" smooth="yes"/>
      <point x="301" y="653" type="line"/>
      <point x="306" y="680" type="line"/>
      <point x="73" y="680" type="line"/>
      <point x="68" y="653" type="line"/>
      <point x="119" y="648" type="line" smooth="yes"/>
      <point x="139" y="645"/>
      <point x="139" y="645"/>
      <point x="145" y="605" type="curve" smooth="yes"/>
      <point x="232" y="0" type="line"/>
      <point x="300" y="0" type="line"/>
    </contour>
  </outline>
</glyph>
<glyph name="W" format="1">
  <advance width="921"/>
  <unicode hex="0057"/>
  <outline>
    <contour>
      <point x="586" y="0" type="line"/>
      <point x="651" y="0" type="line"/>
      <point x="904" y="605" type="line" smooth="yes"/>
      <point x="921" y="645"/>
      <point x="922" y="645"/>
      <point x="943" y="648" type="curve" smooth="yes"/>
      <point x="995" y="653" type="line"/>
      <point x="1000" y="680" type="line"/>
      <point x="814" y="680" type="line"/>
      <point x="809" y="653" type="line"/>
      <point x="860" y="648" type="line" smooth="yes"/>
      <point x="880" y="646"/>
      <point x="881" y="645"/>
      <point x="865" y="605" type="curve" smooth="yes"/>
      <point x="659" y="109" type="line"/>
      <point x="589" y="680" type="line"/>
      <point x="527" y="680" type="line"/>
      <point x="259" y="105" type="line"/>
      <point x="227" y="605" type="line" smooth="yes"/>
      <point x="225" y="645"/>
      <point x="225" y="645"/>
      <point x="247" y="648" type="curve" smooth="yes"/>
      <point x="299" y="653" type="line"/>
      <point x="304" y="680" type="line"/>
      <point x="74" y="680" type="line"/>
      <point x="69" y="653" type="line"/>
      <point x="120" y="648" type="line" smooth="yes"/>
      <point x="140" y="645"/>
      <point x="141" y="644"/>
      <point x="143" y="605" type="curve" smooth="yes"/>
      <point x="183" y="0" type="line"/>
      <point x="248" y="0" type="line"/>
      <point x="517" y="573" type="line"/>
    </contour>
  </outline>
</glyph>
<glyph name="X" format="1">
  <advance width="598"/>
  <unicode hex="0058"/>
  <outline>
    <contour>
      <point x="152" y="26" type="line"/>
      <point x="102" y="32" type="line" smooth="yes"/>
      <point x="82" y="34"/>
      <point x="81" y="36"/>
      <point x="112" y="75" type="curve" smooth="yes"/>
      <point x="287" y="297" type="line"/>
      <point x="374" y="75" type="line" smooth="yes"/>
      <point x="389" y="35"/>
      <point x="388" y="34"/>
      <point x="366" y="32" type="curve" smooth="yes"/>
      <point x="314" y="26" type="line"/>
      <point x="309" y="0" type="line"/>
      <point x="547" y="0" type="line"/>
      <point x="552" y="26" type="line"/>
      <point x="501" y="32" type="line" smooth="yes"/>
      <point x="482" y="34"/>
      <point x="480" y="35"/>
      <point x="466" y="75" type="curve" smooth="yes"/>
      <point x="355" y="359" type="line"/>
      <point x="549" y="605" type="line" smooth="yes"/>
      <point x="581" y="645"/>
      <point x="582" y="645"/>
      <point x="602" y="648" type="curve" smooth="yes"/>
      <point x="654" y="653" type="line"/>
      <point x="659" y="680" type="line"/>
      <point x="469" y="680" type="line"/>
      <point x="464" y="653" type="line"/>
      <point x="515" y="648" type="line" smooth="yes"/>
      <point x="535" y="645"/>
      <point x="535" y="644"/>
      <point x="504" y="605" type="curve" smooth="yes"/>
      <point x="341" y="397" type="line"/>
      <point x="260" y="605" type="line" smooth="yes"/>
      <point x="245" y="644"/>
      <point x="246" y="645"/>
      <point x="268" y="648" type="curve" smooth="yes"/>
      <point x="320" y="653" type="line"/>
      <point x="325" y="680" type="line"/>
      <point x="86" y="680" type="line"/>
      <point x="81" y="653" type="line"/>
      <point x="132" y="648" type="line" smooth="yes"/>
      <point x="151" y="645"/>
      <point x="152" y="645"/>
      <point x="167" y="605" type="curve"/>
      <point x="273" y="335" type="line"/>
      <point x="67" y="75" type="line" smooth="yes"/>
      <point x="35" y="34"/>
      <point x="34" y="34"/>
      <point x="14" y="32" type="curve" smooth="yes"/>
      <point x="-38" y="26" type="line"/>
      <point x="-42" y="0" type="line"/>
      <point x="148" y="0" type="line"/>
    </contour>
  </outline>
</glyph>
<glyph name="Y" format="1">
  <advance width="588"/>
  <unicode hex="0059"/>
  <outline>
    <contour>
      <point x="376" y="26" type="line"/>
      <point x="322" y="32" type="line" smooth="yes"/>
      <point x="302" y="34"/>
      <point x="301" y="34"/>
      <point x="309" y="81" type="curve"/>
      <point x="308" y="79" type="line"/>
      <point x="345" y="291" type="line"/>
      <point x="561" y="605" type="line" smooth="yes"/>
      <point x="588" y="644"/>
      <point x="589" y="645"/>
      <point x="611" y="648" type="curve" smooth="yes"/>
      <point x="663" y="653" type="line"/>
      <point x="668" y="680" type="line"/>
      <point x="480" y="680" type="line"/>
      <point x="475" y="653" type="line"/>
      <point x="526" y="648" type="line" smooth="yes"/>
      <point x="545" y="646"/>
      <point x="547" y="644"/>
      <point x="520" y="605" type="curve" smooth="yes"/>
      <point x="333" y="332" type="line"/>
      <point x="245" y="605" type="line" smooth="yes"/>
      <point x="232" y="644"/>
      <point x="233" y="645"/>
      <point x="254" y="648" type="curve" smooth="yes"/>
      <point x="306" y="653" type="line"/>
      <point x="311" y="680" type="line"/>
      <point x="72" y="680" type="line"/>
      <point x="67" y="653" type="line"/>
      <point x="118" y="648" type="line" smooth="yes"/>
      <point x="137" y="645"/>
      <point x="139" y="645"/>
      <point x="153" y="605" type="curve" smooth="yes"/>
      <point x="258" y="292" type="line"/>
      <point x="216" y="49" type="line"/>
      <point x="211" y="34"/>
      <point x="206" y="33"/>
      <point x="191" y="32" type="curve" smooth="yes"/>
      <point x="135" y="26" type="line"/>
      <point x="130" y="0" type="line"/>
      <point x="371" y="0" type="line"/>
    </contour>
  </outline>
</glyph>
<glyph name="Z" format="1">
  <advance width="531"/>
  <unicode hex="005A"/>
  <outline>
    <contour>
      <point x="476" y="163" type="line"/>
      <point x="450" y="163" type="line"/>
      <point x="403" y="58" type="line" smooth="yes"/>
      <point x="392" y="34"/>
      <point x="391" y="32"/>
      <point x="344" y="32" type="curve" smooth="yes"/>
      <point x="106" y="32" type="line"/>
      <point x="553" y="658" type="line"/>
      <point x="558" y="680" type="line"/>
      <point x="128" y="680" type="line"/>
      <point x="99" y="517" type="line"/>
      <point x="125" y="517" type="line"/>
      <point x="173" y="622" type="line" smooth="yes"/>
      <point x="183" y="645"/>
      <point x="185" y="648"/>
      <point x="232" y="648" type="curve" smooth="yes"/>
      <point x="447" y="648" type="line"/>
      <point x="0" y="22" type="line"/>
      <point x="-4" y="0" type="line"/>
      <point x="448" y="0" type="line"/>
    </contour>
  </outline>
</glyph>
<glyph name="bracketleft" format="1">
  <advance width="356"/>
  <unicode hex="005B"/>
  <outline>
    <contour>
      <point x="272" y="-111" type="line"/>
      <point x="121" y="-111" type="line"/>
      <point x="266" y="708" type="line"/>
      <point x="416" y="708" type="line"/>
      <point x="422" y="740" type="line"/>
      <point x="189" y="740" type="line"/>
      <point x="33" y="-143" type="line"/>
      <point x="266" y="-143" type="line"/>
    </contour>
  </outline>
</glyph>
<glyph name="backslash" format="1">
  <advance width="379"/>
  <unicode hex="005C"/>
  <outline>
    <contour>
      <point x="135" y="740" type="line"/>
      <point x="99" y="727" type="line"/>
      <point x="293" y="-141" type="line"/>
      <point x="330" y="-128" type="line"/>
    </contour>
  </outline>
</glyph>
<glyph name="bracketright" format="1">
  <advance width="356"/>
  <unicode hex="005D"/>
  <outline>
    <contour>
      <point x="339" y="740" type="line"/>
      <point x="106" y="740" type="line"/>
      <point x="101" y="708" type="line"/>
      <point x="252" y="708" type="line"/>
      <point x="107" y="-111" type="line"/>
      <point x="-43" y="-111" type="line"/>
      <point x="-48" y="-143" type="line"/>
      <point x="184" y="-143" type="line"/>
    </contour>
  </outline>
</glyph>
<glyph name="asciicircum" format="1">
  <advance width="588"/>
  <unicode hex="005E"/>
  <outline>
    <contour>
      <point x="474" y="278" type="line"/>
      <point x="384" y="680" type="line"/>
      <point x="356" y="680" type="line"/>
      <point x="124" y="278" type="line"/>
      <point x="154" y="266" type="line"/>
      <point x="362" y="629" type="line"/>
      <point x="442" y="266" type="line"/>
    </contour>
  </outline>
</glyph>
<glyph name="underscore" format="1">
  <advance width="409"/>
  <unicode hex="005F"/>
  <outline>
    <contour>
      <point x="-50" y="-143" type="line"/>
      <point x="321" y="-143" type="line"/>
      <point x="327" y="-109" type="line"/>
      <point x="-44" y="-109" type="line"/>
    </contour>
  </outline>
</glyph>
<glyph name="grave" format="1">
  <advance width="500"/>
  <unicode hex="0060"/>
  <outline>
    <contour>
      <point x="309" y="579" type="curve"/>
      <point x="332" y="596" type="line"/>
      <point x="306" y="642"/>
      <point x="292" y="677"/>
      <point x="286" y="740" type="curve"/>
      <point x="195" y="740" type="line"/>
      <point x="224" y="679"/>
      <point x="258" y="631"/>
    </contour>
  </outline>
</glyph>
<glyph name="a" format="1">
  <advance width="581"/>
  <unicode hex="0061"/>
  <outline>
    <contour>
      <point x="444" y="-5" type="curve" smooth="yes"/>
      <point x="489" y="-5"/>
      <point x="528" y="22"/>
      <point x="558" y="83" type="curve"/>
      <point x="523" y="105" type="line"/>
      <point x="504" y="49"/>
      <point x="479" y="28"/>
      <point x="459" y="28" type="curve" smooth="yes"/>
      <point x="438" y="28"/>
      <point x="432" y="51"/>
      <point x="450" y="150" type="curve" smooth="yes"/>
      <point x="511" y="495" type="line"/>
      <point x="476" y="495" type="line"/>
      <point x="459" y="476"/>
      <point x="441" y="457"/>
      <point x="423" y="442" type="curve"/>
      <point x="396" y="482"/>
      <point x="354" y="505"/>
      <point x="298" y="505" type="curve" smooth="yes"/>
      <point x="190" y="505"/>
      <point x="93" y="422"/>
      <point x="68" y="282" type="curve" smooth="yes"/>
      <point x="64" y="260" type="line" smooth="yes"/>
      <point x="36" y="110"/>
      <point x="91" y="-10"/>
      <point x="209" y="-10" type="curve" smooth="yes"/>
      <point x="263" y="-10"/>
      <point x="317" y="15"/>
      <point x="362" y="86" type="curve"/>
      <point x="364" y="24"/>
      <point x="395" y="-5"/>
    </contour>
    <contour>
      <point x="149" y="234" type="curve" smooth="yes"/>
      <point x="158" y="291" type="line" smooth="yes"/>
      <point x="177" y="403"/>
      <point x="223" y="471"/>
      <point x="304" y="471" type="curve" smooth="yes"/>
      <point x="352" y="471"/>
      <point x="387" y="448"/>
      <point x="411" y="396" type="curve"/>
      <point x="370" y="160" type="line"/>
      <point x="314" y="48"/>
      <point x="260" y="24"/>
      <point x="222" y="24" type="curve" smooth="yes"/>
      <point x="159" y="24"/>
      <point x="126" y="100"/>
    </contour>
  </outline>
</glyph>
<glyph name="b" format="1">
  <advance width="568"/>
  <unicode hex="0062"/>
  <outline>
    <contour>
      <point x="500" y="213" type="curve" smooth="yes"/>
      <point x="504" y="235" type="line" smooth="yes"/>
      <point x="531" y="384"/>
      <point x="477" y="505"/>
      <point x="358" y="505" type="curve" smooth="yes"/>
      <point x="304" y="505"/>
      <point x="253" y="480"/>
      <point x="208" y="412" type="curve"/>
      <point x="266" y="740" type="line"/>
      <point x="107" y="740" type="line"/>
      <point x="103" y="713" type="line"/>
      <point x="156" y="708" type="line" smooth="yes"/>
      <point x="176" y="705"/>
      <point x="177" y="704"/>
      <point x="169" y="659" type="curve" smooth="yes"/>
      <point x="53" y="-5" type="line"/>
      <point x="77" y="-5" type="line"/>
      <point x="99" y="18"/>
      <point x="118" y="35"/>
      <point x="143" y="49" type="curve"/>
      <point x="171" y="11"/>
      <point x="212" y="-10"/>
      <point x="268" y="-10" type="curve" smooth="yes"/>
      <point x="377" y="-10"/>
      <point x="475" y="73"/>
    </contour>
    <contour>
      <point x="344" y="470" type="curve" smooth="yes"/>
      <point x="408" y="470"/>
      <point x="441" y="394"/>
      <point x="419" y="260" type="curve" smooth="yes"/>
      <point x="409" y="203" type="line" smooth="yes"/>
      <point x="390" y="91"/>
      <point x="344" y="24"/>
      <point x="262" y="24" type="curve" smooth="yes"/>
      <point x="213" y="24"/>
      <point x="177" y="46"/>
      <point x="153" y="98" type="curve"/>
      <point x="192" y="324" type="line"/>
      <point x="251" y="444"/>
      <point x="305" y="470"/>
    </contour>
  </outline>
</glyph>
<glyph name="c" format="1">
  <advance width="485"/>
  <unicode hex="0063"/>
  <outline>
    <contour>
      <point x="307" y="473" type="curve" smooth="yes"/>
      <point x="381" y="473"/>
      <point x="408" y="411"/>
      <point x="374" y="304" type="curve"/>
      <point x="455" y="320" type="line"/>
      <point x="489" y="422"/>
      <point x="428" y="505"/>
      <point x="311" y="505" type="curve" smooth="yes"/>
      <point x="184" y="505"/>
      <point x="90" y="411"/>
      <point x="65" y="276" type="curve" smooth="yes"/>
      <point x="61" y="254" type="line" smooth="yes"/>
      <point x="32" y="96"/>
      <point x="101" y="-10"/>
      <point x="231" y="-10" type="curve" smooth="yes"/>
      <point x="302" y="-10"/>
      <point x="373" y="17"/>
      <point x="420" y="98" type="curve"/>
      <point x="374" y="124" type="line"/>
      <point x="346" y="45"/>
      <point x="283" y="22"/>
      <point x="237" y="22" type="curve" smooth="yes"/>
      <point x="159" y="22"/>
      <point x="124" y="90"/>
      <point x="147" y="229" type="curve" smooth="yes"/>
      <point x="157" y="289" type="line" smooth="yes"/>
      <point x="178" y="418"/>
      <point x="240" y="473"/>
    </contour>
  </outline>
</glyph>
<glyph name="d" format="1">
  <advance width="585"/>
  <unicode hex="0064"/>
  <outline>
    <contour>
      <point x="448" y="-5" type="curve" smooth="yes"/>
      <point x="493" y="-5"/>
      <point x="532" y="22"/>
      <point x="562" y="83" type="curve"/>
      <point x="526" y="105" type="line"/>
      <point x="508" y="49"/>
      <point x="483" y="28"/>
      <point x="463" y="28" type="curve" smooth="yes"/>
      <point x="442" y="28"/>
      <point x="436" y="51"/>
      <point x="454" y="150" type="curve" smooth="yes"/>
      <point x="558" y="740" type="line"/>
      <point x="398" y="740" type="line"/>
      <point x="394" y="713" type="line"/>
      <point x="448" y="708" type="line" smooth="yes"/>
      <point x="468" y="705"/>
      <point x="469" y="705"/>
      <point x="461" y="659" type="curve" smooth="yes"/>
      <point x="424" y="446" type="line"/>
      <point x="396" y="483"/>
      <point x="354" y="505"/>
      <point x="299" y="505" type="curve" smooth="yes"/>
      <point x="191" y="505"/>
      <point x="93" y="422"/>
      <point x="68" y="282" type="curve" smooth="yes"/>
      <point x="64" y="260" type="line" smooth="yes"/>
      <point x="36" y="110"/>
      <point x="91" y="-10"/>
      <point x="210" y="-10" type="curve" smooth="yes"/>
      <point x="265" y="-10"/>
      <point x="319" y="16"/>
      <point x="366" y="92" type="curve"/>
      <point x="367" y="26"/>
      <point x="398" y="-5"/>
    </contour>
    <contour>
      <point x="149" y="234" type="curve" smooth="yes"/>
      <point x="158" y="291" type="line" smooth="yes"/>
      <point x="177" y="403"/>
      <point x="224" y="471"/>
      <point x="305" y="471" type="curve" smooth="yes"/>
      <point x="354" y="471"/>
      <point x="390" y="448"/>
      <point x="415" y="395" type="curve"/>
      <point x="375" y="168" type="line"/>
      <point x="317" y="50"/>
      <point x="262" y="24"/>
      <point x="223" y="24" type="curve" smooth="yes"/>
      <point x="159" y="24"/>
      <point x="126" y="100"/>
    </contour>
  </outline>
</glyph>
<glyph name="e" format="1">
  <advance width="502"/>
  <unicode hex="0065"/>
  <outline>
    <contour>
      <point x="435" y="98" type="curve"/>
      <point x="388" y="123" type="line"/>
      <point x="361" y="45"/>
      <point x="292" y="22"/>
      <point x="245" y="22" type="curve" smooth="yes"/>
      <point x="163" y="22"/>
      <point x="126" y="85"/>
      <point x="144" y="212" type="curve"/>
      <point x="196" y="216" type="line" smooth="yes"/>
      <point x="359" y="227"/>
      <point x="474" y="284"/>
      <point x="474" y="385" type="curve" smooth="yes"/>
      <point x="474" y="447"/>
      <point x="419" y="505"/>
      <point x="317" y="505" type="curve" smooth="yes"/>
      <point x="185" y="505"/>
      <point x="89" y="411"/>
      <point x="65" y="276" type="curve" smooth="yes"/>
      <point x="61" y="254" type="line" smooth="yes"/>
      <point x="32" y="96"/>
      <point x="103" y="-10"/>
      <point x="242" y="-10" type="curve" smooth="yes"/>
      <point x="311" y="-10"/>
      <point x="388" y="16"/>
    </contour>
    <contour>
      <point x="156" y="289" type="line" smooth="yes"/>
      <point x="178" y="418"/>
      <point x="243" y="473"/>
      <point x="314" y="473" type="curve" smooth="yes"/>
      <point x="367" y="473"/>
      <point x="399" y="441"/>
      <point x="399" y="389" type="curve" smooth="yes"/>
      <point x="399" y="327"/>
      <point x="358" y="257"/>
      <point x="195" y="247" type="curve" smooth="yes"/>
      <point x="149" y="244" type="line"/>
    </contour>
  </outline>
</glyph>
<glyph name="f" format="1">
  <advance width="331"/>
  <unicode hex="0066"/>
  <outline>
    <contour>
      <point x="383" y="463" type="line"/>
      <point x="388" y="495" type="line"/>
      <point x="229" y="495" type="line"/>
      <point x="244" y="581" type="line" smooth="yes"/>
      <point x="264" y="691"/>
      <point x="298" y="718"/>
      <point x="350" y="718" type="curve" smooth="yes"/>
      <point x="412" y="718"/>
      <point x="429" y="673"/>
      <point x="399" y="579" type="curve"/>
      <point x="481" y="595" type="line"/>
      <point x="508" y="678"/>
      <point x="465" y="750"/>
      <point x="350" y="750" type="curve" smooth="yes"/>
      <point x="226" y="750"/>
      <point x="178" y="664"/>
      <point x="160" y="567" type="curve" smooth="yes"/>
      <point x="147" y="495" type="line"/>
      <point x="70" y="495" type="line"/>
      <point x="65" y="468" type="line"/>
      <point x="120" y="463" type="line" smooth="yes"/>
      <point x="140" y="460"/>
      <point x="141" y="459"/>
      <point x="133" y="414" type="curve" smooth="yes"/>
      <point x="22" y="-213" type="line"/>
      <point x="104" y="-213" type="line"/>
      <point x="223" y="463" type="line"/>
    </contour>
  </outline>
</glyph>
<glyph name="g" format="1">
  <advance width="564"/>
  <unicode hex="0067"/>
  <outline>
    <contour>
      <point x="428" y="9" type="curve" smooth="yes"/>
      <point x="514" y="495" type="line"/>
      <point x="479" y="495" type="line"/>
      <point x="462" y="475"/>
      <point x="444" y="457"/>
      <point x="427" y="442" type="curve"/>
      <point x="399" y="482"/>
      <point x="356" y="505"/>
      <point x="299" y="505" type="curve" smooth="yes"/>
      <point x="191" y="505"/>
      <point x="93" y="422"/>
      <point x="68" y="282" type="curve" smooth="yes"/>
      <point x="64" y="260" type="line" smooth="yes"/>
      <point x="36" y="110"/>
      <point x="91" y="-10"/>
      <point x="210" y="-10" type="curve" smooth="yes"/>
      <point x="262" y="-10"/>
      <point x="314" y="12"/>
      <point x="359" y="75" type="curve"/>
      <point x="345" y="-1" type="line" smooth="yes"/>
      <point x="319" y="-144"/>
      <point x="258" y="-193"/>
      <point x="175" y="-193" type="curve" smooth="yes"/>
      <point x="111" y="-193"/>
      <point x="73" y="-156"/>
      <point x="83" y="-60" type="curve"/>
      <point x="26" y="-72" type="line"/>
      <point x="19" y="-162"/>
      <point x="71" y="-223"/>
      <point x="175" y="-223" type="curve" smooth="yes"/>
      <point x="332" y="-223"/>
      <point x="406" y="-113"/>
    </contour>
    <contour>
      <point x="149" y="234" type="curve" smooth="yes"/>
      <point x="158" y="291" type="line" smooth="yes"/>
      <point x="177" y="403"/>
      <point x="224" y="471"/>
      <point x="305" y="471" type="curve" smooth="yes"/>
      <point x="354" y="471"/>
      <point x="391" y="448"/>
      <point x="415" y="394" type="curve"/>
      <point x="374" y="160" type="line"/>
      <point x="318" y="48"/>
      <point x="262" y="24"/>
      <point x="223" y="24" type="curve" smooth="yes"/>
      <point x="159" y="24"/>
      <point x="126" y="100"/>
    </contour>
  </outline>
</glyph>
<glyph name="i" format="1">
  <advance width="300"/>
  <unicode hex="0069"/>
  <outline>
    <contour>
      <point x="212" y="608" type="curve" smooth="yes"/>
      <point x="249" y="608"/>
      <point x="273" y="636"/>
      <point x="273" y="669" type="curve" smooth="yes"/>
      <point x="273" y="698"/>
      <point x="254" y="716"/>
      <point x="223" y="716" type="curve" smooth="yes"/>
      <point x="187" y="716"/>
      <point x="163" y="689"/>
      <point x="163" y="656" type="curve" smooth="yes"/>
      <point x="163" y="626"/>
      <point x="181" y="608"/>
    </contour>
    <contour>
      <point x="66" y="468" type="line"/>
      <point x="120" y="463" type="line" smooth="yes"/>
      <point x="140" y="460"/>
      <point x="141" y="459"/>
      <point x="133" y="414" type="curve" smooth="yes"/>
      <point x="86" y="142" type="line" smooth="yes"/>
      <point x="69" y="42"/>
      <point x="102" y="-5"/>
      <point x="164" y="-5" type="curve" smooth="yes"/>
      <point x="208" y="-5"/>
      <point x="248" y="22"/>
      <point x="278" y="83" type="curve"/>
      <point x="242" y="105" type="line"/>
      <point x="224" y="49"/>
      <point x="199" y="28"/>
      <point x="179" y="28" type="curve" smooth="yes"/>
      <point x="158" y="28"/>
      <point x="152" y="51"/>
      <point x="170" y="150" type="curve" smooth="yes"/>
      <point x="230" y="495" type="line"/>
      <point x="71" y="495" type="line"/>
    </contour>
  </outline>
</glyph>
<glyph name="j" format="1">
  <advance width="284"/>
  <unicode hex="006A"/>
  <outline>
    <contour>
      <point x="212" y="608" type="curve" smooth="yes"/>
      <point x="246" y="608"/>
      <point x="272" y="634"/>
      <point x="275" y="666" type="curve" smooth="yes"/>
      <point x="278" y="697"/>
      <point x="259" y="716"/>
      <point x="227" y="716" type="curve" smooth="yes"/>
      <point x="194" y="716"/>
      <point x="168" y="692"/>
      <point x="165" y="659" type="curve" smooth="yes"/>
      <point x="162" y="628"/>
      <point x="181" y="608"/>
    </contour>
    <contour>
      <point x="68" y="468" type="line"/>
      <point x="122" y="463" type="line" smooth="yes"/>
      <point x="142" y="460"/>
      <point x="143" y="459"/>
      <point x="135" y="414" type="curve" smooth="yes"/>
      <point x="52" y="-60" type="line" smooth="yes"/>
      <point x="34" y="-162"/>
      <point x="4" y="-191"/>
      <point x="-44" y="-191" type="curve" smooth="yes"/>
      <point x="-78" y="-191"/>
      <point x="-100" y="-165"/>
      <point x="-95" y="-91" type="curve"/>
      <point x="-152" y="-107" type="line"/>
      <point x="-158" y="-183"/>
      <point x="-111" y="-223"/>
      <point x="-41" y="-223" type="curve" smooth="yes"/>
      <point x="70" y="-223"/>
      <point x="119" y="-142"/>
      <point x="135" y="-52" type="curve" smooth="yes"/>
      <point x="231" y="495" type="line"/>
      <point x="72" y="495" type="line"/>
    </contour>
  </outline>
</glyph>
<glyph name="k" format="1">
  <advance width="521"/>
  <unicode hex="006B"/>
  <outline>
    <contour>
      <point x="357" y="0" type="line"/>
      <point x="501" y="0" type="line"/>
      <point x="506" y="26" type="line"/>
      <point x="455" y="32" type="line" smooth="yes"/>
      <point x="435" y="34"/>
      <point x="432" y="35"/>
      <point x="415" y="75" type="curve" smooth="yes"/>
      <point x="307" y="316" type="line"/>
      <point x="365" y="366"/>
      <point x="435" y="402"/>
      <point x="523" y="420" type="curve"/>
      <point x="507" y="505" type="line"/>
      <point x="432" y="478"/>
      <point x="390" y="441"/>
      <point x="294" y="353" type="curve" smooth="yes"/>
      <point x="174" y="241" type="line"/>
      <point x="262" y="740" type="line"/>
      <point x="103" y="740" type="line"/>
      <point x="99" y="713" type="line"/>
      <point x="153" y="708" type="line" smooth="yes"/>
      <point x="173" y="705"/>
      <point x="174" y="704"/>
      <point x="166" y="659" type="curve" smooth="yes"/>
      <point x="50" y="0" type="line"/>
      <point x="131" y="0" type="line"/>
      <point x="164" y="188" type="line"/>
      <point x="245" y="260" type="line"/>
    </contour>
  </outline>
</glyph>
<glyph name="l" format="1">
  <advance width="291"/>
  <unicode hex="006C"/>
  <outline>
    <contour>
      <point x="99" y="713" type="line"/>
      <point x="153" y="708" type="line" smooth="yes"/>
      <point x="173" y="705"/>
      <point x="174" y="704"/>
      <point x="166" y="659" type="curve" smooth="yes"/>
      <point x="76" y="142" type="line" smooth="yes"/>
      <point x="59" y="42"/>
      <point x="91" y="-5"/>
      <point x="154" y="-5" type="curve" smooth="yes"/>
      <point x="198" y="-5"/>
      <point x="237" y="22"/>
      <point x="267" y="83" type="curve"/>
      <point x="232" y="105" type="line"/>
      <point x="214" y="49"/>
      <point x="188" y="28"/>
      <point x="169" y="28" type="curve" smooth="yes"/>
      <point x="148" y="28"/>
      <point x="142" y="51"/>
      <point x="159" y="150" type="curve" smooth="yes"/>
      <point x="262" y="740" type="line"/>
      <point x="103" y="740" type="line"/>
    </contour>
  </outline>
</glyph>
<glyph name="m" format="1">
  <advance width="920"/>
  <unicode hex="006D"/>
  <outline>
    <contour>
      <point x="894" y="83" type="curve"/>
      <point x="858" y="105" type="line"/>
      <point x="840" y="49"/>
      <point x="815" y="28"/>
      <point x="793" y="28" type="curve" smooth="yes"/>
      <point x="768" y="28"/>
      <point x="768" y="56"/>
      <point x="782" y="124" type="curve" smooth="yes"/>
      <point x="823" y="324" type="line" smooth="yes"/>
      <point x="846" y="434"/>
      <point x="800" y="505"/>
      <point x="706" y="505" type="curve" smooth="yes"/>
      <point x="641" y="505"/>
      <point x="577" y="470"/>
      <point x="518" y="384" type="curve"/>
      <point x="514" y="459"/>
      <point x="471" y="505"/>
      <point x="396" y="505" type="curve" smooth="yes"/>
      <point x="332" y="505"/>
      <point x="270" y="471"/>
      <point x="212" y="390" type="curve"/>
      <point x="229" y="495" type="line"/>
      <point x="73" y="495" type="line"/>
      <point x="68" y="468" type="line"/>
      <point x="122" y="463" type="line" smooth="yes"/>
      <point x="142" y="460"/>
      <point x="143" y="459"/>
      <point x="135" y="414" type="curve" smooth="yes"/>
      <point x="63" y="0" type="line"/>
      <point x="145" y="0" type="line"/>
      <point x="201" y="316" type="line"/>
      <point x="268" y="434"/>
      <point x="331" y="467"/>
      <point x="378" y="467" type="curve" smooth="yes"/>
      <point x="425" y="467"/>
      <point x="449" y="424"/>
      <point x="431" y="323" type="curve" smooth="yes"/>
      <point x="374" y="0" type="line"/>
      <point x="456" y="0" type="line"/>
      <point x="512" y="319" type="line"/>
      <point x="579" y="435"/>
      <point x="641" y="467"/>
      <point x="688" y="467" type="curve" smooth="yes"/>
      <point x="735" y="467"/>
      <point x="761" y="424"/>
      <point x="741" y="323" type="curve" smooth="yes"/>
      <point x="701" y="127" type="line" smooth="yes"/>
      <point x="683" y="36"/>
      <point x="717" y="-5"/>
      <point x="778" y="-5" type="curve" smooth="yes"/>
      <point x="825" y="-5"/>
      <point x="864" y="22"/>
    </contour>
  </outline>
</glyph>
<glyph name="n" format="1">
  <advance width="616"/>
  <unicode hex="006E"/>
  <outline>
    <contour>
      <point x="594" y="83" type="curve"/>
      <point x="558" y="105" type="line"/>
      <point x="540" y="49"/>
      <point x="515" y="28"/>
      <point x="493" y="28" type="curve" smooth="yes"/>
      <point x="468" y="28"/>
      <point x="468" y="56"/>
      <point x="482" y="124" type="curve" smooth="yes"/>
      <point x="523" y="324" type="line" smooth="yes"/>
      <point x="546" y="434"/>
      <point x="499" y="505"/>
      <point x="401" y="505" type="curve" smooth="yes"/>
      <point x="336" y="505"/>
      <point x="270" y="472"/>
      <point x="211" y="389" type="curve"/>
      <point x="229" y="495" type="line"/>
      <point x="73" y="495" type="line"/>
      <point x="68" y="468" type="line"/>
      <point x="122" y="463" type="line" smooth="yes"/>
      <point x="142" y="460"/>
      <point x="143" y="459"/>
      <point x="135" y="414" type="curve" smooth="yes"/>
      <point x="63" y="0" type="line"/>
      <point x="145" y="0" type="line"/>
      <point x="200" y="316" type="line"/>
      <point x="269" y="435"/>
      <point x="335" y="467"/>
      <point x="383" y="467" type="curve" smooth="yes"/>
      <point x="435" y="467"/>
      <point x="461" y="424"/>
      <point x="441" y="323" type="curve" smooth="yes"/>
      <point x="401" y="127" type="line" smooth="yes"/>
      <point x="383" y="36"/>
      <point x="417" y="-5"/>
      <point x="478" y="-5" type="curve" smooth="yes"/>
      <point x="525" y="-5"/>
      <point x="564" y="22"/>
    </contour>
  </outline>
</glyph>
<glyph name="o" format="1">
  <advance width="554"/>
  <unicode hex="006F"/>
  <outline>
    <contour>
      <point x="492" y="242" type="line" smooth="yes"/>
      <point x="518" y="386"/>
      <point x="452" y="505"/>
      <point x="310" y="505" type="curve" smooth="yes"/>
      <point x="178" y="505"/>
      <point x="91" y="420"/>
      <point x="65" y="275" type="curve" smooth="yes"/>
      <point x="61" y="252" type="line" smooth="yes"/>
      <point x="35" y="107"/>
      <point x="101" y="-10"/>
      <point x="241" y="-10" type="curve" smooth="yes"/>
      <point x="374" y="-10"/>
      <point x="462" y="74"/>
      <point x="488" y="220" type="curve" smooth="yes"/>
    </contour>
    <contour>
      <point x="406" y="268" type="curve" smooth="yes"/>
      <point x="395" y="207" type="line" smooth="yes"/>
      <point x="373" y="75"/>
      <point x="318" y="20"/>
      <point x="244" y="20" type="curve" smooth="yes"/>
      <point x="162" y="20"/>
      <point x="123" y="91"/>
      <point x="147" y="227" type="curve" smooth="yes"/>
      <point x="157" y="288" type="line" smooth="yes"/>
      <point x="180" y="420"/>
      <point x="234" y="474"/>
      <point x="308" y="474" type="curve" smooth="yes"/>
      <point x="391" y="474"/>
      <point x="430" y="404"/>
    </contour>
  </outline>
</glyph>
<glyph name="p" format="1">
  <advance width="577"/>
  <unicode hex="0070"/>
  <outline>
    <contour>
      <point x="277" y="-10" type="curve" smooth="yes"/>
      <point x="386" y="-10"/>
      <point x="484" y="73"/>
      <point x="509" y="213" type="curve" smooth="yes"/>
      <point x="513" y="235" type="line" smooth="yes"/>
      <point x="540" y="384"/>
      <point x="486" y="505"/>
      <point x="367" y="505" type="curve" smooth="yes"/>
      <point x="312" y="505"/>
      <point x="260" y="479"/>
      <point x="213" y="406" type="curve"/>
      <point x="229" y="495" type="line"/>
      <point x="73" y="495" type="line"/>
      <point x="68" y="469" type="line"/>
      <point x="122" y="463" type="line" smooth="yes"/>
      <point x="142" y="460"/>
      <point x="143" y="459"/>
      <point x="135" y="414" type="curve" smooth="yes"/>
      <point x="25" y="-213" type="line"/>
      <point x="107" y="-213" type="line"/>
      <point x="153" y="48" type="line"/>
      <point x="181" y="11"/>
      <point x="222" y="-10"/>
    </contour>
    <contour>
      <point x="353" y="470" type="curve" smooth="yes"/>
      <point x="417" y="470"/>
      <point x="450" y="394"/>
      <point x="428" y="260" type="curve" smooth="yes"/>
      <point x="418" y="203" type="line" smooth="yes"/>
      <point x="399" y="91"/>
      <point x="353" y="24"/>
      <point x="271" y="24" type="curve" smooth="yes"/>
      <point x="222" y="24"/>
      <point x="186" y="46"/>
      <point x="162" y="98" type="curve"/>
      <point x="201" y="323" type="line"/>
      <point x="259" y="444"/>
      <point x="314" y="470"/>
    </contour>
  </outline>
</glyph>
<glyph name="q" format="1">
  <advance width="565"/>
  <unicode hex="0071"/>
  <outline>
    <contour>
      <point x="516" y="500" type="line"/>
      <point x="492" y="500" type="line"/>
      <point x="469" y="475"/>
      <point x="449" y="458"/>
      <point x="425" y="444" type="curve"/>
      <point x="397" y="483"/>
      <point x="355" y="505"/>
      <point x="299" y="505" type="curve" smooth="yes"/>
      <point x="191" y="505"/>
      <point x="93" y="422"/>
      <point x="68" y="282" type="curve" smooth="yes"/>
      <point x="64" y="260" type="line" smooth="yes"/>
      <point x="36" y="110"/>
      <point x="91" y="-10"/>
      <point x="210" y="-10" type="curve" smooth="yes"/>
      <point x="263" y="-10"/>
      <point x="314" y="14"/>
      <point x="360" y="83" type="curve"/>
      <point x="307" y="-213" type="line"/>
      <point x="389" y="-213" type="line"/>
    </contour>
    <contour>
      <point x="149" y="234" type="curve" smooth="yes"/>
      <point x="158" y="291" type="line" smooth="yes"/>
      <point x="177" y="403"/>
      <point x="224" y="471"/>
      <point x="305" y="471" type="curve" smooth="yes"/>
      <point x="354" y="471"/>
      <point x="391" y="448"/>
      <point x="415" y="394" type="curve"/>
      <point x="375" y="169" type="line"/>
      <point x="317" y="51"/>
      <point x="262" y="24"/>
      <point x="223" y="24" type="curve" smooth="yes"/>
      <point x="159" y="24"/>
      <point x="126" y="100"/>
    </contour>
  </outline>
</glyph>
<glyph name="r" format="1">
  <advance width="428"/>
  <unicode hex="0072"/>
  <outline>
    <contour>
      <point x="332" y="450" type="curve" smooth="yes"/>
      <point x="362" y="450"/>
      <point x="383" y="432"/>
      <point x="394" y="381" type="curve"/>
      <point x="464" y="428" type="line"/>
      <point x="450" y="482"/>
      <point x="414" y="505"/>
      <point x="372" y="505" type="curve" smooth="yes"/>
      <point x="320" y="505"/>
      <point x="264" y="473"/>
      <point x="212" y="391" type="curve"/>
      <point x="230" y="495" type="line"/>
      <point x="73" y="495" type="line"/>
      <point x="68" y="468" type="line"/>
      <point x="123" y="463" type="line" smooth="yes"/>
      <point x="143" y="460"/>
      <point x="144" y="459"/>
      <point x="136" y="414" type="curve" smooth="yes"/>
      <point x="63" y="0" type="line"/>
      <point x="145" y="0" type="line"/>
      <point x="201" y="316" type="line"/>
      <point x="254" y="424"/>
      <point x="297" y="450"/>
    </contour>
  </outline>
</glyph>
<glyph name="s" format="1">
  <advance width="458"/>
  <unicode hex="0073"/>
  <outline>
    <contour>
      <point x="193" y="-10" type="curve" smooth="yes"/>
      <point x="331" y="-10"/>
      <point x="390" y="64"/>
      <point x="390" y="141" type="curve" smooth="yes"/>
      <point x="390" y="209"/>
      <point x="346" y="254"/>
      <point x="277" y="276" type="curve" smooth="yes"/>
      <point x="219" y="295" type="line" smooth="yes"/>
      <point x="172" y="309"/>
      <point x="145" y="335"/>
      <point x="145" y="382" type="curve" smooth="yes"/>
      <point x="145" y="438"/>
      <point x="187" y="473"/>
      <point x="251" y="473" type="curve" smooth="yes"/>
      <point x="329" y="473"/>
      <point x="360" y="422"/>
      <point x="327" y="330" type="curve"/>
      <point x="409" y="346" type="line"/>
      <point x="437" y="427"/>
      <point x="386" y="505"/>
      <point x="256" y="505" type="curve" smooth="yes"/>
      <point x="124" y="505"/>
      <point x="73" y="424"/>
      <point x="73" y="351" type="curve" smooth="yes"/>
      <point x="73" y="290"/>
      <point x="110" y="244"/>
      <point x="174" y="224" type="curve" smooth="yes"/>
      <point x="232" y="205" type="line" smooth="yes"/>
      <point x="296" y="185"/>
      <point x="319" y="155"/>
      <point x="319" y="115" type="curve" smooth="yes"/>
      <point x="319" y="55"/>
      <point x="266" y="21"/>
      <point x="192" y="21" type="curve" smooth="yes"/>
      <point x="128" y="21"/>
      <point x="80" y="47"/>
      <point x="81" y="134" type="curve"/>
      <point x="23" y="114" type="line"/>
      <point x="29" y="23"/>
      <point x="104" y="-10"/>
    </contour>
  </outline>
</glyph>
<glyph name="t" format="1">
  <advance width="363"/>
  <unicode hex="0074"/>
  <outline>
    <contour>
      <point x="334" y="102" type="curve"/>
      <point x="285" y="121" type="line"/>
      <point x="261" y="46"/>
      <point x="235" y="22"/>
      <point x="199" y="22" type="curve" smooth="yes"/>
      <point x="163" y="22"/>
      <point x="141" y="50"/>
      <point x="158" y="145" type="curve" smooth="yes"/>
      <point x="214" y="463" type="line"/>
      <point x="377" y="463" type="line"/>
      <point x="383" y="495" type="line"/>
      <point x="220" y="495" type="line"/>
      <point x="246" y="643" type="line"/>
      <point x="161" y="626" type="line"/>
      <point x="138" y="495" type="line"/>
      <point x="61" y="495" type="line"/>
      <point x="56" y="468" type="line"/>
      <point x="110" y="463" type="line" smooth="yes"/>
      <point x="131" y="460"/>
      <point x="132" y="459"/>
      <point x="124" y="415" type="curve" smooth="yes"/>
      <point x="81" y="165" type="line" smooth="yes"/>
      <point x="63" y="62"/>
      <point x="95" y="-10"/>
      <point x="196" y="-10" type="curve" smooth="yes"/>
      <point x="249" y="-10"/>
      <point x="298" y="17"/>
    </contour>
  </outline>
</glyph>
<glyph name="u" format="1">
  <advance width="605"/>
  <unicode hex="0075"/>
  <outline>
    <contour>
      <point x="468" y="-5" type="curve" smooth="yes"/>
      <point x="512" y="-5"/>
      <point x="552" y="22"/>
      <point x="582" y="83" type="curve"/>
      <point x="546" y="105" type="line"/>
      <point x="528" y="49"/>
      <point x="503" y="28"/>
      <point x="483" y="28" type="curve" smooth="yes"/>
      <point x="462" y="28"/>
      <point x="456" y="51"/>
      <point x="474" y="150" type="curve" smooth="yes"/>
      <point x="534" y="495" type="line"/>
      <point x="452" y="495" type="line"/>
      <point x="396" y="178" type="line"/>
      <point x="328" y="59"/>
      <point x="266" y="27"/>
      <point x="218" y="27" type="curve" smooth="yes"/>
      <point x="171" y="27"/>
      <point x="148" y="70"/>
      <point x="166" y="171" type="curve" smooth="yes"/>
      <point x="223" y="495" type="line"/>
      <point x="63" y="495" type="line"/>
      <point x="58" y="468" type="line"/>
      <point x="113" y="463" type="line" smooth="yes"/>
      <point x="133" y="460"/>
      <point x="134" y="459"/>
      <point x="126" y="414" type="curve" smooth="yes"/>
      <point x="83" y="170" type="line" smooth="yes"/>
      <point x="64" y="59"/>
      <point x="107" y="-10"/>
      <point x="200" y="-10" type="curve" smooth="yes"/>
      <point x="265" y="-10"/>
      <point x="328" y="23"/>
      <point x="386" y="105" type="curve"/>
      <point x="382" y="30"/>
      <point x="414" y="-5"/>
    </contour>
  </outline>
</glyph>
<glyph name="v" format="1">
  <advance width="538"/>
  <unicode hex="0076"/>
  <outline>
    <contour>
      <point x="53" y="468" type="line"/>
      <point x="107" y="463" type="line" smooth="yes"/>
      <point x="128" y="460"/>
      <point x="129" y="459"/>
      <point x="121" y="414" type="curve" smooth="yes"/>
      <point x="87" y="221" type="line" smooth="yes"/>
      <point x="62" y="76"/>
      <point x="105" y="-10"/>
      <point x="209" y="-10" type="curve" smooth="yes"/>
      <point x="321" y="-10"/>
      <point x="481" y="98"/>
      <point x="506" y="505" type="curve"/>
      <point x="414" y="475" type="line"/>
      <point x="417" y="441"/>
      <point x="419" y="409"/>
      <point x="419" y="378" type="curve" smooth="yes"/>
      <point x="419" y="137"/>
      <point x="316" y="27"/>
      <point x="228" y="27" type="curve" smooth="yes"/>
      <point x="166" y="27"/>
      <point x="145" y="82"/>
      <point x="170" y="222" type="curve" smooth="yes"/>
      <point x="217" y="495" type="line"/>
      <point x="58" y="495" type="line"/>
    </contour>
  </outline>
</glyph>
<glyph name="w" format="1">
  <advance width="804"/>
  <unicode hex="0077"/>
  <outline>
    <contour>
      <point x="769" y="505" type="curve"/>
      <point x="677" y="475" type="line"/>
      <point x="681" y="438"/>
      <point x="682" y="404"/>
      <point x="682" y="372" type="curve" smooth="yes"/>
      <point x="682" y="138"/>
      <point x="589" y="27"/>
      <point x="505" y="27" type="curve" smooth="yes"/>
      <point x="444" y="27"/>
      <point x="431" y="82"/>
      <point x="455" y="222" type="curve" smooth="yes"/>
      <point x="502" y="495" type="line"/>
      <point x="420" y="495" type="line"/>
      <point x="372" y="221" type="line" smooth="yes"/>
      <point x="369" y="203"/>
      <point x="367" y="187"/>
      <point x="366" y="171" type="curve"/>
      <point x="324" y="73"/>
      <point x="266" y="27"/>
      <point x="212" y="27" type="curve" smooth="yes"/>
      <point x="154" y="27"/>
      <point x="144" y="79"/>
      <point x="166" y="203" type="curve" smooth="yes"/>
      <point x="218" y="495" type="line"/>
      <point x="58" y="495" type="line"/>
      <point x="53" y="468" type="line"/>
      <point x="108" y="463" type="line" smooth="yes"/>
      <point x="129" y="460"/>
      <point x="130" y="459"/>
      <point x="122" y="414" type="curve" smooth="yes"/>
      <point x="84" y="202" type="line" smooth="yes"/>
      <point x="60" y="72"/>
      <point x="94" y="-10"/>
      <point x="197" y="-10" type="curve" smooth="yes"/>
      <point x="252" y="-10"/>
      <point x="315" y="19"/>
      <point x="367" y="102" type="curve"/>
      <point x="377" y="30"/>
      <point x="417" y="-10"/>
      <point x="487" y="-10" type="curve" smooth="yes"/>
      <point x="597" y="-10"/>
      <point x="744" y="98"/>
    </contour>
  </outline>
</glyph>
<glyph name="x" format="1">
  <advance width="502"/>
  <unicode hex="0078"/>
  <outline>
    <contour>
      <point x="208" y="179" type="curve" smooth="yes"/>
      <point x="233" y="214" type="line"/>
      <point x="317" y="0" type="line"/>
      <point x="456" y="0" type="line"/>
      <point x="460" y="26" type="line"/>
      <point x="410" y="32" type="line" smooth="yes"/>
      <point x="390" y="34"/>
      <point x="386" y="35"/>
      <point x="371" y="75" type="curve" smooth="yes"/>
      <point x="294" y="270" type="line"/>
      <point x="309" y="285" type="line" smooth="yes"/>
      <point x="366" y="343"/>
      <point x="431" y="397"/>
      <point x="517" y="456" type="curve"/>
      <point x="448" y="505" type="line"/>
      <point x="398" y="450"/>
      <point x="360" y="401"/>
      <point x="296" y="316" type="curve" smooth="yes"/>
      <point x="283" y="298" type="line"/>
      <point x="206" y="495" type="line"/>
      <point x="67" y="495" type="line"/>
      <point x="62" y="468" type="line"/>
      <point x="113" y="463" type="line" smooth="yes"/>
      <point x="133" y="460"/>
      <point x="137" y="460"/>
      <point x="152" y="420" type="curve" smooth="yes"/>
      <point x="224" y="238" type="line"/>
      <point x="195" y="209" type="line" smooth="yes"/>
      <point x="137" y="151"/>
      <point x="73" y="97"/>
      <point x="-12" y="38" type="curve"/>
      <point x="57" y="-10" type="line"/>
      <point x="106" y="44"/>
      <point x="144" y="93"/>
    </contour>
  </outline>
</glyph>
<glyph name="y" format="1">
  <advance width="585"/>
  <unicode hex="0079"/>
  <outline>
    <contour>
      <point x="448" y="9" type="curve" smooth="yes"/>
      <point x="534" y="495" type="line"/>
      <point x="452" y="495" type="line"/>
      <point x="396" y="178" type="line"/>
      <point x="328" y="60"/>
      <point x="266" y="27"/>
      <point x="218" y="27" type="curve" smooth="yes"/>
      <point x="171" y="27"/>
      <point x="148" y="70"/>
      <point x="166" y="171" type="curve" smooth="yes"/>
      <point x="223" y="495" type="line"/>
      <point x="63" y="495" type="line"/>
      <point x="58" y="468" type="line"/>
      <point x="113" y="463" type="line" smooth="yes"/>
      <point x="133" y="460"/>
      <point x="134" y="459"/>
      <point x="126" y="414" type="curve" smooth="yes"/>
      <point x="83" y="170" type="line" smooth="yes"/>
      <point x="64" y="59"/>
      <point x="107" y="-10"/>
      <point x="200" y="-10" type="curve" smooth="yes"/>
      <point x="263" y="-10"/>
      <point x="325" y="22"/>
      <point x="383" y="101" type="curve"/>
      <point x="365" y="-1" type="line" smooth="yes"/>
      <point x="340" y="-144"/>
      <point x="278" y="-193"/>
      <point x="195" y="-193" type="curve" smooth="yes"/>
      <point x="132" y="-193"/>
      <point x="93" y="-156"/>
      <point x="104" y="-60" type="curve"/>
      <point x="47" y="-72" type="line"/>
      <point x="39" y="-162"/>
      <point x="91" y="-223"/>
      <point x="195" y="-223" type="curve" smooth="yes"/>
      <point x="353" y="-223"/>
      <point x="427" y="-113"/>
    </contour>
  </outline>
</glyph>
<glyph name="z" format="1">
  <advance width="457"/>
  <unicode hex="007A"/>
  <outline>
    <contour>
      <point x="413" y="140" type="curve"/>
      <point x="386" y="147" type="line"/>
      <point x="373" y="87"/>
      <point x="355" y="54"/>
      <point x="313" y="54" type="curve" smooth="yes"/>
      <point x="258" y="54"/>
      <point x="218" y="108"/>
      <point x="163" y="108" type="curve" smooth="yes"/>
      <point x="146" y="108"/>
      <point x="130" y="104"/>
      <point x="109" y="92" type="curve"/>
      <point x="435" y="470" type="line"/>
      <point x="440" y="495" type="line"/>
      <point x="98" y="495" type="line"/>
      <point x="69" y="329" type="line"/>
      <point x="95" y="329" type="line"/>
      <point x="130" y="407" type="line" smooth="yes"/>
      <point x="139" y="428"/>
      <point x="142" y="429"/>
      <point x="189" y="429" type="curve" smooth="yes"/>
      <point x="354" y="429" type="line"/>
      <point x="4" y="23" type="line"/>
      <point x="29" y="0" type="line"/>
      <point x="62" y="39"/>
      <point x="89" y="52"/>
      <point x="114" y="52" type="curve" smooth="yes"/>
      <point x="168" y="52"/>
      <point x="222" y="-10"/>
      <point x="292" y="-10" type="curve" smooth="yes"/>
      <point x="362" y="-10"/>
      <point x="399" y="53"/>
    </contour>
  </outline>
</glyph>
<glyph name="braceleft" format="1">
  <advance width="401"/>
  <unicode hex="007B"/>
  <outline>
    <contour>
      <point x="317" y="-112" type="line"/>
      <point x="232" y="-112" type="line" smooth="yes"/>
      <point x="160" y="-112"/>
      <point x="149" y="-62"/>
      <point x="182" y="22" type="curve" smooth="yes"/>
      <point x="225" y="128" type="line" smooth="yes"/>
      <point x="261" y="217"/>
      <point x="236" y="274"/>
      <point x="177" y="295" type="curve"/>
      <point x="250" y="313"/>
      <point x="291" y="367"/>
      <point x="285" y="468" type="curve" smooth="yes"/>
      <point x="279" y="574" type="line" smooth="yes"/>
      <point x="276" y="658"/>
      <point x="305" y="708"/>
      <point x="376" y="708" type="curve" smooth="yes"/>
      <point x="461" y="708" type="line"/>
      <point x="467" y="740" type="line"/>
      <point x="373" y="740" type="line" smooth="yes"/>
      <point x="257" y="740"/>
      <point x="188" y="692"/>
      <point x="195" y="555" type="curve" smooth="yes"/>
      <point x="200" y="449" type="line" smooth="yes"/>
      <point x="203" y="371"/>
      <point x="172" y="314"/>
      <point x="119" y="314" type="curve" smooth="yes"/>
      <point x="42" y="314" type="line"/>
      <point x="37" y="282" type="line"/>
      <point x="114" y="282" type="line" smooth="yes"/>
      <point x="166" y="282"/>
      <point x="178" y="225"/>
      <point x="147" y="147" type="curve" smooth="yes"/>
      <point x="104" y="41" type="line" smooth="yes"/>
      <point x="56" y="-76"/>
      <point x="124" y="-144"/>
      <point x="235" y="-144" type="curve" smooth="yes"/>
      <point x="312" y="-144" type="line"/>
    </contour>
  </outline>
</glyph>
<glyph name="bar" format="1">
  <advance width="237"/>
  <unicode hex="007C"/>
  <outline>
    <contour>
      <point x="186" y="740" type="line"/>
      <point x="18" y="-213" type="line"/>
      <point x="55" y="-213" type="line"/>
      <point x="223" y="740" type="line"/>
    </contour>
  </outline>
</glyph>
<glyph name="braceright" format="1">
  <advance width="401"/>
  <unicode hex="007D"/>
  <outline>
    <contour>
      <point x="223" y="41" type="curve" smooth="yes"/>
      <point x="218" y="147" type="line" smooth="yes"/>
      <point x="214" y="225"/>
      <point x="246" y="281"/>
      <point x="299" y="281" type="curve" smooth="yes"/>
      <point x="376" y="281" type="line"/>
      <point x="381" y="313" type="line"/>
      <point x="304" y="313" type="line" smooth="yes"/>
      <point x="251" y="313"/>
      <point x="240" y="371"/>
      <point x="271" y="449" type="curve" smooth="yes"/>
      <point x="314" y="555" type="line" smooth="yes"/>
      <point x="362" y="672"/>
      <point x="294" y="740"/>
      <point x="182" y="740" type="curve" smooth="yes"/>
      <point x="106" y="740" type="line"/>
      <point x="101" y="708" type="line"/>
      <point x="186" y="708" type="line" smooth="yes"/>
      <point x="257" y="708"/>
      <point x="269" y="658"/>
      <point x="235" y="574" type="curve" smooth="yes"/>
      <point x="192" y="468" type="line" smooth="yes"/>
      <point x="156" y="379"/>
      <point x="181" y="322"/>
      <point x="240" y="301" type="curve"/>
      <point x="167" y="283"/>
      <point x="126" y="229"/>
      <point x="132" y="128" type="curve" smooth="yes"/>
      <point x="138" y="22" type="line" smooth="yes"/>
      <point x="141" y="-62"/>
      <point x="113" y="-112"/>
      <point x="41" y="-112" type="curve" smooth="yes"/>
      <point x="-43" y="-112" type="line"/>
      <point x="-48" y="-144" type="line"/>
      <point x="45" y="-144" type="line" smooth="yes"/>
      <point x="160" y="-144"/>
      <point x="230" y="-96"/>
    </contour>
  </outline>
</glyph>
<glyph name="asciitilde" format="1">
  <advance width="588"/>
  <unicode hex="007E"/>
  <outline>
    <contour>
      <point x="394" y="257" type="curve" smooth="yes"/>
      <point x="439" y="257"/>
      <point x="479" y="281"/>
      <point x="522" y="371" type="curve"/>
      <point x="492" y="386" type="line"/>
      <point x="455" y="312"/>
      <point x="429" y="292"/>
      <point x="396" y="292" type="curve" smooth="yes"/>
      <point x="321" y="292"/>
      <point x="319" y="408"/>
      <point x="222" y="408" type="curve" smooth="yes"/>
      <point x="178" y="408"/>
      <point x="138" y="385"/>
      <point x="95" y="294" type="curve"/>
      <point x="125" y="280" type="line"/>
      <point x="162" y="354"/>
      <point x="188" y="374"/>
      <point x="221" y="374" type="curve" smooth="yes"/>
      <point x="295" y="374"/>
      <point x="297" y="257"/>
    </contour>
  </outline>
</glyph>
<glyph name="exclamdown" format="1">
  <advance width="258"/>
  <unicode hex="00A1"/>
  <outline>
    <contour>
      <point x="168" y="505" type="curve" smooth="yes"/>
      <point x="131" y="505"/>
      <point x="107" y="477"/>
      <point x="107" y="442" type="curve" smooth="yes"/>
      <point x="107" y="410"/>
      <point x="127" y="392"/>
      <point x="160" y="392" type="curve" smooth="yes"/>
      <point x="197" y="392"/>
      <point x="221" y="420"/>
      <point x="221" y="454" type="curve" smooth="yes"/>
      <point x="221" y="486"/>
      <point x="201" y="505"/>
    </contour>
    <contour>
      <point x="125" y="311" type="line"/>
      <point x="83" y="75"/>
      <point x="48" y="20"/>
      <point x="11" y="-185" type="curve"/>
      <point x="93" y="-185" type="line"/>
      <point x="130" y="20"/>
      <point x="114" y="75"/>
      <point x="155" y="311" type="curve"/>
    </contour>
  </outline>
</glyph>
<glyph name="cent" format="1">
  <advance width="485"/>
  <unicode hex="00A2"/>
  <outline>
    <contour>
      <point x="420" y="98" type="curve"/>
      <point x="374" y="124" type="line"/>
      <point x="348" y="51"/>
      <point x="293" y="26"/>
      <point x="248" y="22" type="curve"/>
      <point x="327" y="471" type="line"/>
      <point x="386" y="461"/>
      <point x="405" y="401"/>
      <point x="374" y="304" type="curve"/>
      <point x="455" y="320" type="line"/>
      <point x="487" y="416"/>
      <point x="435" y="494"/>
      <point x="333" y="504" type="curve"/>
      <point x="353" y="620" type="line"/>
      <point x="317" y="620" type="line"/>
      <point x="297" y="505" type="line"/>
      <point x="177" y="498"/>
      <point x="89" y="406"/>
      <point x="65" y="276" type="curve" smooth="yes"/>
      <point x="61" y="254" type="line" smooth="yes"/>
      <point x="34" y="106"/>
      <point x="92" y="4"/>
      <point x="206" y="-9" type="curve"/>
      <point x="186" y="-125" type="line"/>
      <point x="222" y="-125" type="line"/>
      <point x="242" y="-10" type="line"/>
      <point x="309" y="-7"/>
      <point x="375" y="21"/>
    </contour>
    <contour>
      <point x="147" y="229" type="curve" smooth="yes"/>
      <point x="157" y="289" type="line" smooth="yes"/>
      <point x="176" y="408"/>
      <point x="230" y="464"/>
      <point x="291" y="472" type="curve"/>
      <point x="212" y="25" type="line"/>
      <point x="152" y="38"/>
      <point x="127" y="106"/>
    </contour>
  </outline>
</glyph>
<glyph name="sterling" format="1">
  <advance width="525"/>
  <unicode hex="00A3"/>
  <outline>
    <contour>
      <point x="449" y="184" type="line"/>
      <point x="423" y="184" type="line"/>
      <point x="391" y="99" type="line" smooth="yes"/>
      <point x="382" y="75"/>
      <point x="379" y="73"/>
      <point x="332" y="73" type="curve"/>
      <point x="104" y="73" type="line"/>
      <point x="199" y="152"/>
      <point x="225" y="215"/>
      <point x="225" y="279" type="curve" smooth="yes"/>
      <point x="225" y="284" type="line"/>
      <point x="390" y="284" type="line"/>
      <point x="396" y="316" type="line"/>
      <point x="223" y="316" type="line"/>
      <point x="218" y="367"/>
      <point x="205" y="417"/>
      <point x="205" y="470" type="curve" smooth="yes"/>
      <point x="205" y="580"/>
      <point x="253" y="658"/>
      <point x="337" y="658" type="curve" smooth="yes"/>
      <point x="427" y="658"/>
      <point x="450" y="587"/>
      <point x="415" y="467" type="curve"/>
      <point x="505" y="483" type="line"/>
      <point x="542" y="585"/>
      <point x="490" y="690"/>
      <point x="335" y="690" type="curve" smooth="yes"/>
      <point x="165" y="690"/>
      <point x="109" y="577"/>
      <point x="109" y="484" type="curve" smooth="yes"/>
      <point x="109" y="414"/>
      <point x="138" y="367"/>
      <point x="155" y="316" type="curve"/>
      <point x="66" y="316" type="line"/>
      <point x="60" y="284" type="line"/>
      <point x="163" y="284" type="line"/>
      <point x="164" y="275"/>
      <point x="165" y="265"/>
      <point x="165" y="255" type="curve" smooth="yes"/>
      <point x="165" y="208"/>
      <point x="146" y="147"/>
      <point x="28" y="55" type="curve"/>
      <point x="18" y="0" type="line"/>
      <point x="417" y="0" type="line"/>
    </contour>
  </outline>
</glyph>
<glyph name="currency" format="1">
  <advance width="580"/>
  <unicode hex="00A4"/>
  <outline>
    <contour>
      <point x="505" y="67" type="line"/>
      <point x="431" y="161" type="line"/>
      <point x="471" y="200"/>
      <point x="495" y="256"/>
      <point x="495" y="318" type="curve" smooth="yes"/>
      <point x="495" y="360"/>
      <point x="484" y="397"/>
      <point x="464" y="425" type="curve"/>
      <point x="586" y="532" type="line"/>
      <point x="565" y="557" type="line"/>
      <point x="443" y="451" type="line"/>
      <point x="411" y="480"/>
      <point x="367" y="497"/>
      <point x="315" y="497" type="curve" smooth="yes"/>
      <point x="270" y="497"/>
      <point x="229" y="484"/>
      <point x="196" y="462" type="curve"/>
      <point x="120" y="557" type="line"/>
      <point x="95" y="533" type="line"/>
      <point x="169" y="440" type="line"/>
      <point x="128" y="401"/>
      <point x="104" y="345"/>
      <point x="104" y="282" type="curve" smooth="yes"/>
      <point x="104" y="239"/>
      <point x="115" y="203"/>
      <point x="135" y="174" type="curve"/>
      <point x="14" y="67" type="line"/>
      <point x="36" y="43" type="line"/>
      <point x="157" y="148" type="line"/>
      <point x="189" y="119"/>
      <point x="232" y="103"/>
      <point x="284" y="103" type="curve" smooth="yes"/>
      <point x="330" y="103"/>
      <point x="371" y="116"/>
      <point x="404" y="139" type="curve"/>
      <point x="481" y="43" type="line"/>
    </contour>
    <contour>
      <point x="315" y="463" type="curve" smooth="yes"/>
      <point x="404" y="463"/>
      <point x="457" y="408"/>
      <point x="457" y="317" type="curve" smooth="yes"/>
      <point x="457" y="213"/>
      <point x="386" y="136"/>
      <point x="284" y="136" type="curve" smooth="yes"/>
      <point x="195" y="136"/>
      <point x="143" y="191"/>
      <point x="143" y="283" type="curve" smooth="yes"/>
      <point x="143" y="386"/>
      <point x="213" y="463"/>
    </contour>
  </outline>
</glyph>
<glyph name="yen" format="1">
  <advance width="608"/>
  <unicode hex="00A5"/>
  <outline>
    <contour>
      <point x="386" y="26" type="line"/>
      <point x="332" y="32" type="line" smooth="yes"/>
      <point x="312" y="34"/>
      <point x="311" y="34"/>
      <point x="319" y="81" type="curve"/>
      <point x="318" y="79" type="line"/>
      <point x="342" y="214" type="line"/>
      <point x="524" y="214" type="line"/>
      <point x="530" y="246" type="line"/>
      <point x="347" y="246" type="line"/>
      <point x="355" y="291" type="line"/>
      <point x="399" y="354" type="line"/>
      <point x="549" y="354" type="line"/>
      <point x="554" y="386" type="line"/>
      <point x="421" y="386" type="line"/>
      <point x="571" y="605" type="line" smooth="yes"/>
      <point x="598" y="644"/>
      <point x="599" y="645"/>
      <point x="621" y="648" type="curve" smooth="yes"/>
      <point x="673" y="653" type="line"/>
      <point x="678" y="680" type="line"/>
      <point x="490" y="680" type="line"/>
      <point x="485" y="653" type="line"/>
      <point x="536" y="648" type="line" smooth="yes"/>
      <point x="555" y="646"/>
      <point x="557" y="644"/>
      <point x="530" y="605" type="curve" smooth="yes"/>
      <point x="343" y="332" type="line"/>
      <point x="255" y="605" type="line" smooth="yes"/>
      <point x="242" y="644"/>
      <point x="243" y="645"/>
      <point x="264" y="648" type="curve" smooth="yes"/>
      <point x="316" y="653" type="line"/>
      <point x="321" y="680" type="line"/>
      <point x="82" y="680" type="line"/>
      <point x="77" y="653" type="line"/>
      <point x="128" y="648" type="line" smooth="yes"/>
      <point x="147" y="645"/>
      <point x="149" y="645"/>
      <point x="163" y="605" type="curve" smooth="yes"/>
      <point x="237" y="386" type="line"/>
      <point x="103" y="386" type="line"/>
      <point x="97" y="354" type="line"/>
      <point x="248" y="354" type="line"/>
      <point x="268" y="292" type="line"/>
      <point x="260" y="246" type="line"/>
      <point x="78" y="246" type="line"/>
      <point x="73" y="214" type="line"/>
      <point x="255" y="214" type="line"/>
      <point x="226" y="49" type="line"/>
      <point x="221" y="34"/>
      <point x="216" y="33"/>
      <point x="201" y="32" type="curve" smooth="yes"/>
      <point x="145" y="26" type="line"/>
      <point x="140" y="0" type="line"/>
      <point x="381" y="0" type="line"/>
    </contour>
  </outline>
</glyph>
<glyph name="brokenbar" format="1">
  <advance width="224"/>
  <unicode hex="00A6"/>
  <outline>
    <contour>
      <point x="180" y="740" type="line"/>
      <point x="112" y="357" type="line"/>
      <point x="149" y="357" type="line"/>
      <point x="217" y="740" type="line"/>
    </contour>
    <contour>
      <point x="79" y="170" type="line"/>
      <point x="12" y="-213" type="line"/>
      <point x="49" y="-213" type="line"/>
      <point x="116" y="170" type="line"/>
    </contour>
  </outline>
</glyph>
<glyph name="section" format="1">
  <advance width="539"/>
  <unicode hex="00A7"/>
  <outline>
    <contour>
      <point x="412" y="-35" type="curve" smooth="yes"/>
      <point x="412" y="19"/>
      <point x="390" y="59"/>
      <point x="347" y="88" type="curve"/>
      <point x="439" y="116"/>
      <point x="490" y="180"/>
      <point x="490" y="252" type="curve" smooth="yes"/>
      <point x="490" y="322"/>
      <point x="444" y="377"/>
      <point x="360" y="408" type="curve" smooth="yes"/>
      <point x="288" y="434" type="line" smooth="yes"/>
      <point x="220" y="460"/>
      <point x="198" y="493"/>
      <point x="198" y="544" type="curve" smooth="yes"/>
      <point x="198" y="620"/>
      <point x="246" y="658"/>
      <point x="321" y="658" type="curve" smooth="yes"/>
      <point x="408" y="658"/>
      <point x="440" y="593"/>
      <point x="409" y="484" type="curve"/>
      <point x="496" y="502" type="line"/>
      <point x="522" y="591"/>
      <point x="467" y="690"/>
      <point x="325" y="690" type="curve" smooth="yes"/>
      <point x="185" y="690"/>
      <point x="120" y="609"/>
      <point x="120" y="514" type="curve" smooth="yes"/>
      <point x="120" y="456"/>
      <point x="143" y="412"/>
      <point x="187" y="383" type="curve"/>
      <point x="98" y="360"/>
      <point x="42" y="300"/>
      <point x="42" y="223" type="curve" smooth="yes"/>
      <point x="42" y="151"/>
      <point x="89" y="99"/>
      <point x="172" y="67" type="curve" smooth="yes"/>
      <point x="241" y="39" type="line" smooth="yes"/>
      <point x="310" y="12"/>
      <point x="333" y="-19"/>
      <point x="333" y="-71" type="curve" smooth="yes"/>
      <point x="333" y="-144"/>
      <point x="282" y="-191"/>
      <point x="192" y="-191" type="curve" smooth="yes"/>
      <point x="113" y="-191"/>
      <point x="53" y="-145"/>
      <point x="61" y="-26" type="curve"/>
      <point x="-1" y="-46" type="line"/>
      <point x="0" y="-171"/>
      <point x="88" y="-223"/>
      <point x="190" y="-223" type="curve" smooth="yes"/>
      <point x="340" y="-223"/>
      <point x="412" y="-131"/>
    </contour>
    <contour>
      <point x="227" y="141" type="line" smooth="yes"/>
      <point x="149" y="172"/>
      <point x="120" y="203"/>
      <point x="120" y="257" type="curve" smooth="yes"/>
      <point x="120" y="318"/>
      <point x="159" y="353"/>
      <point x="230" y="361" type="curve"/>
      <point x="304" y="333" type="line" smooth="yes"/>
      <point x="384" y="304"/>
      <point x="412" y="271"/>
      <point x="412" y="215" type="curve" smooth="yes"/>
      <point x="412" y="161"/>
      <point x="378" y="123"/>
      <point x="306" y="109" type="curve"/>
    </contour>
  </outline>
</glyph>
<glyph name="dieresis" format="1">
  <advance width="500"/>
  <unicode hex="00A8"/>
  <outline>
    <contour>
      <point x="216" y="611" type="curve" smooth="yes"/>
      <point x="251" y="611"/>
      <point x="273" y="638"/>
      <point x="273" y="669" type="curve" smooth="yes"/>
      <point x="273" y="696"/>
      <point x="256" y="713"/>
      <point x="227" y="713" type="curve" smooth="yes"/>
      <point x="193" y="713"/>
      <point x="170" y="687"/>
      <point x="170" y="656" type="curve" smooth="yes"/>
      <point x="170" y="629"/>
      <point x="188" y="611"/>
    </contour>
    <contour>
      <point x="418" y="611" type="curve" smooth="yes"/>
      <point x="454" y="611"/>
      <point x="476" y="638"/>
      <point x="476" y="669" type="curve" smooth="yes"/>
      <point x="476" y="696"/>
      <point x="458" y="713"/>
      <point x="429" y="713" type="curve" smooth="yes"/>
      <point x="395" y="713"/>
      <point x="372" y="687"/>
      <point x="372" y="656" type="curve" smooth="yes"/>
      <point x="372" y="629"/>
      <point x="391" y="611"/>
    </contour>
  </outline>
</glyph>
<glyph name="copyright" format="1">
  <advance width="852"/>
  <unicode hex="00A9"/>
  <outline>
    <contour>
      <point x="442" y="-37" type="curve" smooth="yes"/>
      <point x="651" y="-37"/>
      <point x="814" y="128"/>
      <point x="814" y="340" type="curve" smooth="yes"/>
      <point x="814" y="553"/>
      <point x="651" y="717"/>
      <point x="442" y="717" type="curve" smooth="yes"/>
      <point x="232" y="717"/>
      <point x="70" y="553"/>
      <point x="70" y="340" type="curve" smooth="yes"/>
      <point x="70" y="128"/>
      <point x="232" y="-37"/>
    </contour>
    <contour>
      <point x="442" y="-5" type="curve" smooth="yes"/>
      <point x="251" y="-5"/>
      <point x="104" y="145"/>
      <point x="104" y="340" type="curve" smooth="yes"/>
      <point x="104" y="534"/>
      <point x="251" y="685"/>
      <point x="442" y="685" type="curve" smooth="yes"/>
      <point x="633" y="685"/>
      <point x="780" y="534"/>
      <point x="780" y="340" type="curve" smooth="yes"/>
      <point x="780" y="145"/>
      <point x="633" y="-5"/>
    </contour>
    <contour>
      <point x="446" y="542" type="curve" smooth="yes"/>
      <point x="524" y="542"/>
      <point x="562" y="487"/>
      <point x="548" y="389" type="curve"/>
      <point x="613" y="398" type="line"/>
      <point x="629" y="497"/>
      <point x="564" y="572"/>
      <point x="446" y="572" type="curve" smooth="yes"/>
      <point x="320" y="572"/>
      <point x="252" y="485"/>
      <point x="252" y="351" type="curve" smooth="yes"/>
      <point x="252" y="330" type="line" smooth="yes"/>
      <point x="252" y="195"/>
      <point x="318" y="108"/>
      <point x="450" y="108" type="curve" smooth="yes"/>
      <point x="526" y="108"/>
      <point x="596" y="139"/>
      <point x="620" y="230" type="curve"/>
      <point x="570" y="243" type="line"/>
      <point x="554" y="164"/>
      <point x="516" y="138"/>
      <point x="455" y="138" type="curve" smooth="yes"/>
      <point x="365" y="138"/>
      <point x="328" y="187"/>
      <point x="328" y="310" type="curve" smooth="yes"/>
      <point x="328" y="371" type="line" smooth="yes"/>
      <point x="328" y="493"/>
      <point x="371" y="542"/>
    </contour>
  </outline>
</glyph>
<glyph name="ordfeminine" format="1">
  <advance width="410"/>
  <unicode hex="00AA"/>
  <outline>
    <contour>
      <point x="356" y="338" type="curve" smooth="yes"/>
      <point x="386" y="338"/>
      <point x="413" y="357"/>
      <point x="433" y="397" type="curve"/>
      <point x="407" y="412" type="line"/>
      <point x="396" y="377"/>
      <point x="379" y="362"/>
      <point x="366" y="362" type="curve" smooth="yes"/>
      <point x="352" y="362"/>
      <point x="348" y="378"/>
      <point x="359" y="443" type="curve" smooth="yes"/>
      <point x="401" y="678" type="line"/>
      <point x="375" y="678" type="line"/>
      <point x="365" y="664"/>
      <point x="354" y="653"/>
      <point x="343" y="642" type="curve"/>
      <point x="324" y="669"/>
      <point x="295" y="685"/>
      <point x="257" y="685" type="curve" smooth="yes"/>
      <point x="184" y="685"/>
      <point x="118" y="628"/>
      <point x="101" y="533" type="curve" smooth="yes"/>
      <point x="98" y="517" type="line" smooth="yes"/>
      <point x="80" y="416"/>
      <point x="116" y="335"/>
      <point x="197" y="335" type="curve" smooth="yes"/>
      <point x="232" y="335"/>
      <point x="267" y="350"/>
      <point x="297" y="395" type="curve"/>
      <point x="301" y="356"/>
      <point x="322" y="338"/>
    </contour>
    <contour>
      <point x="159" y="501" type="curve" smooth="yes"/>
      <point x="165" y="539" type="line" smooth="yes"/>
      <point x="178" y="614"/>
      <point x="208" y="659"/>
      <point x="260" y="659" type="curve" smooth="yes"/>
      <point x="292" y="659"/>
      <point x="315" y="646"/>
      <point x="331" y="615" type="curve"/>
      <point x="301" y="441" type="line"/>
      <point x="265" y="375"/>
      <point x="230" y="360"/>
      <point x="205" y="360" type="curve" smooth="yes"/>
      <point x="166" y="360"/>
      <point x="144" y="412"/>
    </contour>
  </outline>
</glyph>
<glyph name="guillemotleft" format="1">
  <advance width="645"/>
  <unicode hex="00AB"/>
  <outline>
    <contour>
      <point x="297" y="25" type="line"/>
      <point x="150" y="238" type="line"/>
      <point x="376" y="456" type="line"/>
      <point x="361" y="478" type="line"/>
      <point x="54" y="256" type="line"/>
      <point x="50" y="232" type="line"/>
      <point x="279" y="10" type="line"/>
    </contour>
    <contour>
      <point x="547" y="25" type="line"/>
      <point x="400" y="238" type="line"/>
      <point x="626" y="456" type="line"/>
      <point x="611" y="478" type="line"/>
      <point x="304" y="256" type="line"/>
      <point x="300" y="232" type="line"/>
      <point x="529" y="10" type="line"/>
    </contour>
  </outline>
</glyph>
<glyph name="logicalnot" format="1">
  <advance width="588"/>
  <unicode hex="00AC"/>
  <outline>
    <contour>
      <point x="118" y="428" type="line"/>
      <point x="497" y="428" type="line"/>
      <point x="463" y="237" type="line"/>
      <point x="499" y="237" type="line"/>
      <point x="538" y="461" type="line"/>
      <point x="124" y="461" type="line"/>
    </contour>
  </outline>
</glyph>
<glyph name="registered" format="1">
  <advance width="556"/>
  <unicode hex="00AE"/>
  <note>
    nouvelle rduction 75%
  </note>
  <outline>
    <contour>
      <point x="318" y="241" type="curve" smooth="yes"/>
      <point x="449" y="241"/>
      <point x="552" y="346"/>
      <point x="552" y="479" type="curve" smooth="yes"/>
      <point x="552" y="613"/>
      <point x="449" y="717"/>
      <point x="318" y="717" type="curve" smooth="yes"/>
      <point x="186" y="717"/>
      <point x="84" y="613"/>
      <point x="84" y="479" type="curve" smooth="yes"/>
      <point x="84" y="346"/>
      <point x="186" y="241"/>
    </contour>
    <contour>
      <point x="318" y="271" type="curve" smooth="yes"/>
      <point x="205" y="271"/>
      <point x="117" y="361"/>
      <point x="117" y="479" type="curve" smooth="yes"/>
      <point x="117" y="596"/>
      <point x="205" y="687"/>
      <point x="318" y="687" type="curve" smooth="yes"/>
      <point x="432" y="687"/>
      <point x="520" y="596"/>
      <point x="520" y="479" type="curve" smooth="yes"/>
      <point x="520" y="361"/>
      <point x="432" y="271"/>
    </contour>
    <contour>
      <point x="211" y="588" type="line"/>
      <point x="232" y="586" type="line" smooth="yes"/>
      <point x="240" y="585"/>
      <point x="241" y="585"/>
      <point x="241" y="568" type="curve"/>
      <point x="241" y="396" type="line"/>
      <point x="241" y="378"/>
      <point x="240" y="377"/>
      <point x="232" y="377" type="curve" smooth="yes"/>
      <point x="211" y="376" type="line"/>
      <point x="211" y="354" type="line"/>
      <point x="316" y="354" type="line"/>
      <point x="316" y="376" type="line"/>
      <point x="295" y="377" type="line" smooth="yes"/>
      <point x="288" y="377"/>
      <point x="287" y="378"/>
      <point x="287" y="396" type="curve"/>
      <point x="287" y="459" type="line"/>
      <point x="312" y="459" type="line"/>
      <point x="371" y="354" type="line"/>
      <point x="440" y="354" type="line"/>
      <point x="440" y="376" type="line"/>
      <point x="422" y="377" type="line" smooth="yes"/>
      <point x="414" y="377"/>
      <point x="415" y="378"/>
      <point x="404" y="396" type="curve" smooth="yes"/>
      <point x="361" y="465" type="line"/>
      <point x="389" y="476"/>
      <point x="405" y="498"/>
      <point x="405" y="527" type="curve" smooth="yes"/>
      <point x="405" y="543" type="line" smooth="yes"/>
      <point x="405" y="583"/>
      <point x="375" y="609"/>
      <point x="322" y="609" type="curve" smooth="yes"/>
      <point x="211" y="609" type="line"/>
    </contour>
    <contour>
      <point x="322" y="586" type="line" smooth="yes"/>
      <point x="344" y="586"/>
      <point x="357" y="571"/>
      <point x="357" y="543" type="curve" smooth="yes"/>
      <point x="357" y="527" type="line" smooth="yes"/>
      <point x="357" y="499"/>
      <point x="344" y="483"/>
      <point x="322" y="483" type="curve" smooth="yes"/>
      <point x="287" y="483" type="line"/>
      <point x="287" y="586" type="line"/>
    </contour>
  </outline>
</glyph>
<glyph name="macron" format="1">
  <advance width="500"/>
  <unicode hex="00AF"/>
  <outline>
    <contour>
      <point x="467" y="666" type="line"/>
      <point x="180" y="666" type="line"/>
      <point x="172" y="619" type="line"/>
      <point x="459" y="619" type="line"/>
    </contour>
  </outline>
</glyph>
<glyph name="degree" format="1">
  <advance width="387"/>
  <unicode hex="00B0"/>
  <outline>
    <contour>
      <point x="228" y="366" type="curve" smooth="yes"/>
      <point x="330" y="366"/>
      <point x="404" y="446"/>
      <point x="404" y="546" type="curve" smooth="yes"/>
      <point x="404" y="634"/>
      <point x="345" y="690"/>
      <point x="259" y="690" type="curve" smooth="yes"/>
      <point x="157" y="690"/>
      <point x="83" y="610"/>
      <point x="83" y="510" type="curve" smooth="yes"/>
      <point x="83" y="422"/>
      <point x="142" y="366"/>
    </contour>
    <contour>
      <point x="259" y="656" type="curve" smooth="yes"/>
      <point x="325" y="656"/>
      <point x="365" y="614"/>
      <point x="365" y="545" type="curve" smooth="yes"/>
      <point x="365" y="461"/>
      <point x="309" y="399"/>
      <point x="228" y="399" type="curve" smooth="yes"/>
      <point x="161" y="399"/>
      <point x="121" y="441"/>
      <point x="121" y="511" type="curve" smooth="yes"/>
      <point x="121" y="594"/>
      <point x="177" y="656"/>
    </contour>
  </outline>
</glyph>
<glyph name="plusminus" format="1">
  <advance width="588"/>
  <unicode hex="00B1"/>
  <outline>
    <contour>
      <point x="513" y="317" type="line"/>
      <point x="519" y="350" type="line"/>
      <point x="329" y="350" type="line"/>
      <point x="363" y="545" type="line"/>
      <point x="328" y="545" type="line"/>
      <point x="294" y="350" type="line"/>
      <point x="105" y="350" type="line"/>
      <point x="99" y="317" type="line"/>
      <point x="288" y="317" type="line"/>
      <point x="254" y="123" type="line"/>
      <point x="289" y="123" type="line"/>
      <point x="323" y="317" type="line"/>
    </contour>
    <contour>
      <point x="43" y="0" type="line"/>
      <point x="457" y="0" type="line"/>
      <point x="463" y="33" type="line"/>
      <point x="49" y="33" type="line"/>
    </contour>
  </outline>
</glyph>
<glyph name="acute" format="1">
  <advance width="500"/>
  <unicode hex="00B4"/>
  <outline>
    <contour>
      <point x="307" y="579" type="line"/>
      <point x="376" y="631"/>
      <point x="427" y="679"/>
      <point x="478" y="740" type="curve"/>
      <point x="377" y="740" type="line"/>
      <point x="351" y="679"/>
      <point x="327" y="644"/>
      <point x="288" y="601" type="curve"/>
    </contour>
  </outline>
</glyph>
<glyph name="mu" format="1">
  <advance width="610"/>
  <unicode hex="00B5"/>
  <outline>
    <contour>
      <point x="115" y="-187" type="line"/>
      <point x="96" y="-120"/>
      <point x="90" y="-65"/>
      <point x="103" y="40" type="curve"/>
      <point x="127" y="6"/>
      <point x="160" y="-10"/>
      <point x="204" y="-10" type="curve" smooth="yes"/>
      <point x="269" y="-10"/>
      <point x="331" y="23"/>
      <point x="389" y="105" type="curve"/>
      <point x="385" y="30"/>
      <point x="417" y="-5"/>
      <point x="471" y="-5" type="curve" smooth="yes"/>
      <point x="516" y="-5"/>
      <point x="555" y="22"/>
      <point x="585" y="83" type="curve"/>
      <point x="550" y="105" type="line"/>
      <point x="532" y="49"/>
      <point x="506" y="28"/>
      <point x="487" y="28" type="curve" smooth="yes"/>
      <point x="465" y="28"/>
      <point x="460" y="51"/>
      <point x="477" y="150" type="curve" smooth="yes"/>
      <point x="538" y="495" type="line"/>
      <point x="456" y="495" type="line"/>
      <point x="400" y="178" type="line"/>
      <point x="332" y="59"/>
      <point x="269" y="27"/>
      <point x="222" y="27" type="curve" smooth="yes"/>
      <point x="175" y="27"/>
      <point x="152" y="70"/>
      <point x="170" y="171" type="curve" smooth="yes"/>
      <point x="226" y="495" type="line"/>
      <point x="67" y="495" type="line"/>
      <point x="62" y="468" type="line"/>
      <point x="116" y="463" type="line" smooth="yes"/>
      <point x="137" y="460"/>
      <point x="138" y="460"/>
      <point x="130" y="414" type="curve" smooth="yes"/>
      <point x="19" y="-213" type="line"/>
    </contour>
  </outline>
</glyph>
<glyph name="paragraph" format="1">
  <advance width="572"/>
  <unicode hex="00B6"/>
  <outline>
    <contour>
      <point x="84" y="506" type="curve" smooth="yes"/>
      <point x="78" y="476" type="line" smooth="yes"/>
      <point x="60" y="369"/>
      <point x="124" y="288"/>
      <point x="254" y="288" type="curve" smooth="yes"/>
      <point x="300" y="288" type="line"/>
      <point x="364" y="648" type="line"/>
      <point x="431" y="648" type="line"/>
      <point x="306" y="-62" type="line" smooth="yes"/>
      <point x="298" y="-108"/>
      <point x="297" y="-109"/>
      <point x="276" y="-111" type="curve" smooth="yes"/>
      <point x="200" y="-116" type="line"/>
      <point x="195" y="-143" type="line"/>
      <point x="456" y="-143" type="line"/>
      <point x="461" y="-116" type="line"/>
      <point x="407" y="-111" type="line" smooth="yes"/>
      <point x="386" y="-108"/>
      <point x="385" y="-108"/>
      <point x="393" y="-62" type="curve" smooth="yes"/>
      <point x="510" y="599" type="line" smooth="yes"/>
      <point x="518" y="645"/>
      <point x="519" y="645"/>
      <point x="541" y="648" type="curve" smooth="yes"/>
      <point x="597" y="653" type="line"/>
      <point x="601" y="680" type="line"/>
      <point x="313" y="680" type="line" smooth="yes"/>
      <point x="177" y="680"/>
      <point x="103" y="615"/>
    </contour>
  </outline>
</glyph>
<glyph name="periodcentered" format="1">
  <advance width="500"/>
  <unicode hex="00B7"/>
  <outline>
    <contour>
      <point x="268" y="330" type="curve" smooth="yes"/>
      <point x="305" y="330"/>
      <point x="329" y="358"/>
      <point x="329" y="391" type="curve" smooth="yes"/>
      <point x="329" y="420"/>
      <point x="310" y="438"/>
      <point x="279" y="438" type="curve" smooth="yes"/>
      <point x="243" y="438"/>
      <point x="219" y="411"/>
      <point x="219" y="378" type="curve" smooth="yes"/>
      <point x="219" y="348"/>
      <point x="238" y="330"/>
    </contour>
  </outline>
</glyph>
<glyph name="cedilla" format="1">
  <advance width="500"/>
  <unicode hex="00B8"/>
  <outline>
    <contour>
      <point x="291" y="-133" type="curve" smooth="yes"/>
      <point x="291" y="-89"/>
      <point x="253" y="-58"/>
      <point x="186" y="-58" type="curve"/>
      <point x="220" y="0" type="line"/>
      <point x="185" y="0" type="line"/>
      <point x="148" y="-63" type="line"/>
      <point x="153" y="-89" type="line"/>
      <point x="160" y="-88"/>
      <point x="170" y="-86"/>
      <point x="177" y="-86" type="curve" smooth="yes"/>
      <point x="215" y="-86"/>
      <point x="226" y="-102"/>
      <point x="226" y="-131" type="curve" smooth="yes"/>
      <point x="226" y="-166"/>
      <point x="203" y="-195"/>
      <point x="167" y="-195" type="curve" smooth="yes"/>
      <point x="135" y="-195"/>
      <point x="119" y="-178"/>
      <point x="122" y="-131" type="curve"/>
      <point x="71" y="-145" type="line"/>
      <point x="72" y="-201"/>
      <point x="119" y="-223"/>
      <point x="172" y="-223" type="curve" smooth="yes"/>
      <point x="239" y="-223"/>
      <point x="291" y="-187"/>
    </contour>
  </outline>
</glyph>
<glyph name="ordmasculine" format="1">
  <advance width="395"/>
  <unicode hex="00BA"/>
  <outline>
    <contour>
      <point x="390" y="507" type="line" smooth="yes"/>
      <point x="406" y="604"/>
      <point x="363" y="685"/>
      <point x="264" y="685" type="curve" smooth="yes"/>
      <point x="176" y="685"/>
      <point x="116" y="627"/>
      <point x="100" y="527" type="curve" smooth="yes"/>
      <point x="97" y="513" type="line" smooth="yes"/>
      <point x="81" y="414"/>
      <point x="125" y="335"/>
      <point x="222" y="335" type="curve" smooth="yes"/>
      <point x="310" y="335"/>
      <point x="371" y="392"/>
      <point x="387" y="492" type="curve" smooth="yes"/>
    </contour>
    <contour>
      <point x="328" y="524" type="curve" smooth="yes"/>
      <point x="321" y="482" type="line" smooth="yes"/>
      <point x="306" y="395"/>
      <point x="271" y="359"/>
      <point x="223" y="359" type="curve" smooth="yes"/>
      <point x="169" y="359"/>
      <point x="144" y="409"/>
      <point x="159" y="496" type="curve" smooth="yes"/>
      <point x="166" y="537" type="line" smooth="yes"/>
      <point x="181" y="624"/>
      <point x="217" y="661"/>
      <point x="263" y="661" type="curve" smooth="yes"/>
      <point x="318" y="661"/>
      <point x="343" y="610"/>
    </contour>
  </outline>
</glyph>
<glyph name="guillemotright" format="1">
  <advance width="645"/>
  <unicode hex="00BB"/>
  <outline>
    <contour>
      <point x="589" y="232" type="line"/>
      <point x="593" y="256" type="line"/>
      <point x="365" y="478" type="line"/>
      <point x="346" y="463" type="line"/>
      <point x="493" y="250" type="line"/>
      <point x="267" y="31" type="line"/>
      <point x="283" y="10" type="line"/>
    </contour>
    <contour>
      <point x="339" y="232" type="line"/>
      <point x="343" y="256" type="line"/>
      <point x="115" y="478" type="line"/>
      <point x="96" y="463" type="line"/>
      <point x="243" y="250" type="line"/>
      <point x="17" y="31" type="line"/>
      <point x="33" y="10" type="line"/>
    </contour>
  </outline>
</glyph>
<glyph name="questiondown" format="1">
  <advance width="479"/>
  <unicode hex="00BF"/>
  <outline>
    <contour>
      <point x="288" y="505" type="curve" smooth="yes"/>
      <point x="251" y="505"/>
      <point x="227" y="477"/>
      <point x="227" y="442" type="curve" smooth="yes"/>
      <point x="227" y="410"/>
      <point x="247" y="392"/>
      <point x="280" y="392" type="curve" smooth="yes"/>
      <point x="317" y="392"/>
      <point x="341" y="420"/>
      <point x="341" y="454" type="curve" smooth="yes"/>
      <point x="341" y="486"/>
      <point x="321" y="505"/>
    </contour>
    <contour>
      <point x="238" y="311" type="line"/>
      <point x="236" y="288" type="line" smooth="yes"/>
      <point x="226" y="128"/>
      <point x="-3" y="135"/>
      <point x="-3" y="-41" type="curve" smooth="yes"/>
      <point x="-3" y="-129"/>
      <point x="57" y="-195"/>
      <point x="179" y="-195" type="curve" smooth="yes"/>
      <point x="331" y="-195"/>
      <point x="395" y="-97"/>
      <point x="396" y="12" type="curve"/>
      <point x="317" y="28" type="line"/>
      <point x="308" y="-96"/>
      <point x="263" y="-163"/>
      <point x="182" y="-163" type="curve" smooth="yes"/>
      <point x="127" y="-163"/>
      <point x="89" y="-129"/>
      <point x="89" y="-45" type="curve" smooth="yes"/>
      <point x="89" y="141"/>
      <point x="251" y="117"/>
      <point x="280" y="289" type="curve" smooth="yes"/>
      <point x="284" y="311" type="line"/>
    </contour>
  </outline>
</glyph>
<glyph name="Aring" format="1">
  <advance width="628"/>
  <unicode hex="00C5"/>
  <outline>
    <contour>
      <point x="152" y="26" type="line"/>
      <point x="98" y="32" type="line" smooth="yes"/>
      <point x="77" y="34"/>
      <point x="76" y="35"/>
      <point x="99" y="81" type="curve" smooth="yes"/>
      <point x="163" y="209" type="line"/>
      <point x="407" y="209" type="line"/>
      <point x="425" y="81" type="line" smooth="yes"/>
      <point x="431" y="36"/>
      <point x="430" y="34"/>
      <point x="408" y="32" type="curve" smooth="yes"/>
      <point x="352" y="26" type="line"/>
      <point x="347" y="0" type="line"/>
      <point x="587" y="0" type="line"/>
      <point x="591" y="26" type="line"/>
      <point x="537" y="32" type="line" smooth="yes"/>
      <point x="518" y="34"/>
      <point x="517" y="35"/>
      <point x="510" y="81" type="curve" smooth="yes"/>
      <point x="424" y="658" type="line"/>
      <point x="477" y="669"/>
      <point x="512" y="709"/>
      <point x="520" y="755" type="curve" smooth="yes"/>
      <point x="522" y="766" type="line" smooth="yes"/>
      <point x="532" y="823"/>
      <point x="495" y="882"/>
      <point x="413" y="882" type="curve" smooth="yes"/>
      <point x="342" y="882"/>
      <point x="295" y="838"/>
      <point x="285" y="782" type="curve" smooth="yes"/>
      <point x="283" y="771" type="line" smooth="yes"/>
      <point x="275" y="725"/>
      <point x="298" y="677"/>
      <point x="348" y="661" type="curve"/>
      <point x="59" y="81" type="line" smooth="yes"/>
      <point x="37" y="35"/>
      <point x="36" y="34"/>
      <point x="14" y="32" type="curve" smooth="yes"/>
      <point x="-41" y="26" type="line"/>
      <point x="-46" y="0" type="line"/>
      <point x="147" y="0" type="line"/>
    </contour>
    <contour>
      <point x="389" y="680" type="curve" smooth="yes"/>
      <point x="351" y="680"/>
      <point x="332" y="708"/>
      <point x="341" y="756" type="curve" smooth="yes"/>
      <point x="345" y="781" type="line" smooth="yes"/>
      <point x="354" y="830"/>
      <point x="378" y="857"/>
      <point x="415" y="857" type="curve" smooth="yes"/>
      <point x="454" y="857"/>
      <point x="472" y="829"/>
      <point x="464" y="780" type="curve" smooth="yes"/>
      <point x="459" y="755" type="line" smooth="yes"/>
      <point x="451" y="707"/>
      <point x="426" y="680"/>
    </contour>
    <contour>
      <point x="179" y="241" type="line"/>
      <point x="352" y="589" type="line"/>
      <point x="402" y="241" type="line"/>
    </contour>
  </outline>
</glyph>
<glyph name="AE" format="1">
  <advance width="888"/>
  <unicode hex="00C6"/>
  <outline>
    <contour>
      <point x="395" y="653" type="line"/>
      <point x="449" y="648" type="line" smooth="yes"/>
      <point x="470" y="645"/>
      <point x="470" y="644"/>
      <point x="437" y="599" type="curve" smooth="yes"/>
      <point x="70" y="81" type="line" smooth="yes"/>
      <point x="37" y="35"/>
      <point x="36" y="34"/>
      <point x="14" y="32" type="curve" smooth="yes"/>
      <point x="-41" y="26" type="line"/>
      <point x="-46" y="0" type="line"/>
      <point x="151" y="0" type="line"/>
      <point x="155" y="26" type="line"/>
      <point x="101" y="32" type="line" smooth="yes"/>
      <point x="80" y="34"/>
      <point x="81" y="36"/>
      <point x="113" y="81" type="curve" smooth="yes"/>
      <point x="204" y="209" type="line"/>
      <point x="426" y="209" type="line"/>
      <point x="403" y="81" type="line" smooth="yes"/>
      <point x="395" y="35"/>
      <point x="394" y="34"/>
      <point x="373" y="32" type="curve" smooth="yes"/>
      <point x="316" y="26" type="line"/>
      <point x="312" y="0" type="line"/>
      <point x="789" y="0" type="line"/>
      <point x="818" y="163" type="line"/>
      <point x="792" y="163" type="line"/>
      <point x="745" y="58" type="line" smooth="yes"/>
      <point x="734" y="34"/>
      <point x="733" y="32"/>
      <point x="686" y="32" type="curve" smooth="yes"/>
      <point x="482" y="32" type="line"/>
      <point x="534" y="327" type="line"/>
      <point x="668" y="327" type="line" smooth="yes"/>
      <point x="715" y="327"/>
      <point x="716" y="325"/>
      <point x="717" y="301" type="curve" smooth="yes"/>
      <point x="724" y="226" type="line"/>
      <point x="749" y="226" type="line"/>
      <point x="790" y="460" type="line"/>
      <point x="765" y="460" type="line"/>
      <point x="733" y="385" type="line" smooth="yes"/>
      <point x="723" y="361"/>
      <point x="721" y="359"/>
      <point x="674" y="359" type="curve" smooth="yes"/>
      <point x="540" y="359" type="line"/>
      <point x="591" y="648" type="line"/>
      <point x="785" y="648" type="line" smooth="yes"/>
      <point x="832" y="648"/>
      <point x="832" y="645"/>
      <point x="834" y="622" type="curve" smooth="yes"/>
      <point x="845" y="517" type="line"/>
      <point x="870" y="517" type="line"/>
      <point x="899" y="680" type="line"/>
      <point x="400" y="680" type="line"/>
    </contour>
    <contour>
      <point x="227" y="241" type="line"/>
      <point x="499" y="626" type="line"/>
      <point x="431" y="241" type="line"/>
    </contour>
  </outline>
</glyph>
<glyph name="Ccedilla" format="1">
  <advance width="586"/>
  <unicode hex="00C7"/>
  <outline>
    <contour>
      <point x="375" y="-133" type="curve" smooth="yes"/>
      <point x="375" y="-89"/>
      <point x="337" y="-58"/>
      <point x="270" y="-58" type="curve"/>
      <point x="298" y="-10" type="line"/>
      <point x="388" y="-10"/>
      <point x="470" y="29"/>
      <point x="518" y="135" type="curve"/>
      <point x="456" y="156" type="line"/>
      <point x="427" y="54"/>
      <point x="364" y="22"/>
      <point x="300" y="22" type="curve" smooth="yes"/>
      <point x="188" y="22"/>
      <point x="145" y="96"/>
      <point x="173" y="265" type="curve" smooth="yes"/>
      <point x="201" y="432" type="line" smooth="yes"/>
      <point x="228" y="592"/>
      <point x="297" y="658"/>
      <point x="392" y="658" type="curve" smooth="yes"/>
      <point x="486" y="658"/>
      <point x="520" y="587"/>
      <point x="484" y="459" type="curve"/>
      <point x="574" y="480" type="line"/>
      <point x="607" y="586"/>
      <point x="540" y="690"/>
      <point x="393" y="690" type="curve" smooth="yes"/>
      <point x="233" y="690"/>
      <point x="127" y="572"/>
      <point x="97" y="382" type="curve" smooth="yes"/>
      <point x="86" y="315" type="line" smooth="yes"/>
      <point x="57" y="133"/>
      <point x="121" y="8"/>
      <point x="264" y="-8" type="curve"/>
      <point x="232" y="-63" type="line"/>
      <point x="237" y="-89" type="line"/>
      <point x="244" y="-88"/>
      <point x="254" y="-86"/>
      <point x="261" y="-86" type="curve" smooth="yes"/>
      <point x="299" y="-86"/>
      <point x="310" y="-102"/>
      <point x="310" y="-131" type="curve" smooth="yes"/>
      <point x="310" y="-166"/>
      <point x="287" y="-195"/>
      <point x="251" y="-195" type="curve" smooth="yes"/>
      <point x="219" y="-195"/>
      <point x="203" y="-178"/>
      <point x="206" y="-131" type="curve"/>
      <point x="155" y="-145" type="line"/>
      <point x="156" y="-201"/>
      <point x="203" y="-223"/>
      <point x="256" y="-223" type="curve" smooth="yes"/>
      <point x="323" y="-223"/>
      <point x="375" y="-187"/>
    </contour>
  </outline>
</glyph>
<glyph name="Eth" format="1">
  <advance width="663"/>
  <unicode hex="00D0"/>
  <outline>
    <contour>
      <point x="123" y="653" type="line"/>
      <point x="178" y="648" type="line" smooth="yes"/>
      <point x="198" y="645"/>
      <point x="199" y="645"/>
      <point x="191" y="599" type="curve" smooth="yes"/>
      <point x="150" y="370" type="line"/>
      <point x="73" y="370" type="line"/>
      <point x="68" y="338" type="line"/>
      <point x="145" y="338" type="line"/>
      <point x="99" y="81" type="line" smooth="yes"/>
      <point x="91" y="35"/>
      <point x="90" y="34"/>
      <point x="68" y="32" type="curve" smooth="yes"/>
      <point x="12" y="26" type="line"/>
      <point x="8" y="0" type="line"/>
      <point x="296" y="0" type="line" smooth="yes"/>
      <point x="459" y="0"/>
      <point x="566" y="119"/>
      <point x="598" y="301" type="curve" smooth="yes"/>
      <point x="609" y="366" type="line" smooth="yes"/>
      <point x="640" y="543"/>
      <point x="566" y="680"/>
      <point x="390" y="680" type="curve" smooth="yes"/>
      <point x="128" y="680" type="line"/>
    </contour>
    <contour>
      <point x="385" y="338" type="line"/>
      <point x="390" y="370" type="line"/>
      <point x="237" y="370" type="line"/>
      <point x="286" y="648" type="line"/>
      <point x="390" y="648" type="line" smooth="yes"/>
      <point x="507" y="648"/>
      <point x="548" y="564"/>
      <point x="523" y="418" type="curve" smooth="yes"/>
      <point x="495" y="253" type="line" smooth="yes"/>
      <point x="470" y="108"/>
      <point x="400" y="32"/>
      <point x="295" y="32" type="curve" smooth="yes"/>
      <point x="178" y="32" type="line"/>
      <point x="232" y="338" type="line"/>
    </contour>
  </outline>
</glyph>
<glyph name="multiply" format="1">
  <advance width="588"/>
  <unicode hex="00D7"/>
  <outline>
    <contour>
      <point x="465" y="170" type="line"/>
      <point x="332" y="332" type="line"/>
      <point x="525" y="497" type="line"/>
      <point x="503" y="523" type="line"/>
      <point x="310" y="359" type="line"/>
      <point x="176" y="522" type="line"/>
      <point x="149" y="497" type="line"/>
      <point x="282" y="336" type="line"/>
      <point x="90" y="172" type="line"/>
      <point x="113" y="146" type="line"/>
      <point x="304" y="309" type="line"/>
      <point x="439" y="146" type="line"/>
    </contour>
  </outline>
</glyph>
<glyph name="Oslash" format="1">
  <advance width="666"/>
  <unicode hex="00D8"/>
  <outline>
    <contour>
      <point x="602" y="301" type="curve" smooth="yes"/>
      <point x="614" y="366" type="line" smooth="yes"/>
      <point x="629" y="453"/>
      <point x="620" y="530"/>
      <point x="588" y="588" type="curve"/>
      <point x="668" y="680" type="line"/>
      <point x="621" y="680" type="line"/>
      <point x="567" y="618" type="line"/>
      <point x="529" y="663"/>
      <point x="473" y="690"/>
      <point x="397" y="690" type="curve" smooth="yes"/>
      <point x="235" y="690"/>
      <point x="129" y="566"/>
      <point x="96" y="380" type="curve" smooth="yes"/>
      <point x="85" y="315" type="line" smooth="yes"/>
      <point x="70" y="227"/>
      <point x="78" y="150"/>
      <point x="110" y="92" type="curve"/>
      <point x="30" y="0" type="line"/>
      <point x="77" y="0" type="line"/>
      <point x="131" y="62" type="line"/>
      <point x="168" y="17"/>
      <point x="225" y="-10"/>
      <point x="301" y="-10" type="curve" smooth="yes"/>
      <point x="463" y="-10"/>
      <point x="569" y="113"/>
    </contour>
    <contour>
      <point x="171" y="263" type="curve" smooth="yes"/>
      <point x="200" y="428" type="line" smooth="yes"/>
      <point x="226" y="579"/>
      <point x="293" y="658"/>
      <point x="397" y="658" type="curve" smooth="yes"/>
      <point x="465" y="658"/>
      <point x="507" y="627"/>
      <point x="525" y="570" type="curve"/>
      <point x="164" y="155" type="line"/>
      <point x="162" y="186"/>
      <point x="164" y="222"/>
    </contour>
    <contour>
      <point x="528" y="418" type="curve" smooth="yes"/>
      <point x="499" y="253" type="line" smooth="yes"/>
      <point x="473" y="102"/>
      <point x="406" y="22"/>
      <point x="301" y="22" type="curve" smooth="yes"/>
      <point x="233" y="22"/>
      <point x="191" y="53"/>
      <point x="173" y="110" type="curve"/>
      <point x="534" y="526" type="line"/>
      <point x="537" y="495"/>
      <point x="535" y="459"/>
    </contour>
  </outline>
</glyph>
<glyph name="Thorn" format="1">
  <advance width="574"/>
  <unicode hex="00DE"/>
  <outline>
    <contour>
      <point x="270" y="26" type="line"/>
      <point x="196" y="32" type="line" smooth="yes"/>
      <point x="175" y="33"/>
      <point x="174" y="34"/>
      <point x="182" y="81" type="curve" smooth="yes"/>
      <point x="194" y="146" type="line"/>
      <point x="320" y="146" type="line" smooth="yes"/>
      <point x="456" y="146"/>
      <point x="529" y="210"/>
      <point x="549" y="320" type="curve" smooth="yes"/>
      <point x="554" y="349" type="line" smooth="yes"/>
      <point x="572" y="456"/>
      <point x="508" y="538"/>
      <point x="378" y="538" type="curve" smooth="yes"/>
      <point x="263" y="538" type="line"/>
      <point x="274" y="599" type="line" smooth="yes"/>
      <point x="282" y="645"/>
      <point x="283" y="646"/>
      <point x="304" y="648" type="curve" smooth="yes"/>
      <point x="380" y="653" type="line"/>
      <point x="385" y="680" type="line"/>
      <point x="124" y="680" type="line"/>
      <point x="119" y="653" type="line"/>
      <point x="173" y="648" type="line" smooth="yes"/>
      <point x="194" y="645"/>
      <point x="195" y="645"/>
      <point x="187" y="599" type="curve" smooth="yes"/>
      <point x="95" y="81" type="line" smooth="yes"/>
      <point x="87" y="34"/>
      <point x="86" y="34"/>
      <point x="65" y="32" type="curve" smooth="yes"/>
      <point x="9" y="26" type="line"/>
      <point x="4" y="0" type="line"/>
      <point x="265" y="0" type="line"/>
    </contour>
    <contour>
      <point x="378" y="506" type="line" smooth="yes"/>
      <point x="450" y="506"/>
      <point x="480" y="458"/>
      <point x="464" y="365" type="curve" smooth="yes"/>
      <point x="454" y="308" type="line" smooth="yes"/>
      <point x="439" y="221"/>
      <point x="392" y="178"/>
      <point x="320" y="178" type="curve" smooth="yes"/>
      <point x="199" y="178" type="line"/>
      <point x="257" y="506" type="line"/>
    </contour>
  </outline>
</glyph>
<glyph name="germandbls" format="1">
  <advance width="602"/>
  <unicode hex="00DF"/>
  <outline>
    <contour>
      <point x="244" y="581" type="line" smooth="yes"/>
      <point x="263" y="689"/>
      <point x="308" y="718"/>
      <point x="374" y="718" type="curve" smooth="yes"/>
      <point x="434" y="718"/>
      <point x="462" y="692"/>
      <point x="462" y="636" type="curve" smooth="yes"/>
      <point x="462" y="510"/>
      <point x="331" y="459"/>
      <point x="331" y="353" type="curve" smooth="yes"/>
      <point x="331" y="300"/>
      <point x="361" y="269"/>
      <point x="401" y="236" type="curve" smooth="yes"/>
      <point x="437" y="206" type="line" smooth="yes"/>
      <point x="474" y="175"/>
      <point x="487" y="149"/>
      <point x="487" y="113" type="curve" smooth="yes"/>
      <point x="487" y="52"/>
      <point x="442" y="21"/>
      <point x="384" y="21" type="curve" smooth="yes"/>
      <point x="333" y="21"/>
      <point x="296" y="48"/>
      <point x="294" y="134" type="curve"/>
      <point x="236" y="114" type="line"/>
      <point x="247" y="26"/>
      <point x="306" y="-10"/>
      <point x="384" y="-10" type="curve" smooth="yes"/>
      <point x="491" y="-10"/>
      <point x="557" y="56"/>
      <point x="557" y="142" type="curve" smooth="yes"/>
      <point x="557" y="199"/>
      <point x="535" y="238"/>
      <point x="495" y="270" type="curve" smooth="yes"/>
      <point x="459" y="301" type="line" smooth="yes"/>
      <point x="420" y="333"/>
      <point x="399" y="358"/>
      <point x="399" y="395" type="curve" smooth="yes"/>
      <point x="399" y="499"/>
      <point x="533" y="527"/>
      <point x="533" y="630" type="curve" smooth="yes"/>
      <point x="533" y="694"/>
      <point x="483" y="750"/>
      <point x="371" y="750" type="curve" smooth="yes"/>
      <point x="230" y="750"/>
      <point x="178" y="666"/>
      <point x="160" y="567" type="curve" smooth="yes"/>
      <point x="147" y="495" type="line"/>
      <point x="70" y="495" type="line"/>
      <point x="65" y="468" type="line"/>
      <point x="120" y="463" type="line" smooth="yes"/>
      <point x="140" y="460"/>
      <point x="141" y="460"/>
      <point x="133" y="414" type="curve" smooth="yes"/>
      <point x="22" y="-213" type="line"/>
      <point x="104" y="-213" type="line"/>
    </contour>
  </outline>
</glyph>
<glyph name="ae" format="1">
  <advance width="799"/>
  <unicode hex="00E6"/>
  <outline>
    <contour>
      <point x="733" y="98" type="curve"/>
      <point x="686" y="123" type="line"/>
      <point x="659" y="45"/>
      <point x="590" y="22"/>
      <point x="543" y="22" type="curve" smooth="yes"/>
      <point x="460" y="22"/>
      <point x="423" y="87"/>
      <point x="442" y="219" type="curve"/>
      <point x="494" y="219" type="line" smooth="yes"/>
      <point x="663" y="219"/>
      <point x="772" y="286"/>
      <point x="772" y="385" type="curve" smooth="yes"/>
      <point x="772" y="447"/>
      <point x="716" y="505"/>
      <point x="615" y="505" type="curve" smooth="yes"/>
      <point x="541" y="505"/>
      <point x="479" y="475"/>
      <point x="435" y="422" type="curve"/>
      <point x="418" y="469"/>
      <point x="375" y="505"/>
      <point x="295" y="505" type="curve" smooth="yes"/>
      <point x="179" y="505"/>
      <point x="105" y="431"/>
      <point x="99" y="338" type="curve"/>
      <point x="178" y="326" type="line"/>
      <point x="183" y="445"/>
      <point x="238" y="473"/>
      <point x="295" y="473" type="curve" smooth="yes"/>
      <point x="352" y="473"/>
      <point x="391" y="439"/>
      <point x="372" y="332" type="curve" smooth="yes"/>
      <point x="358" y="251" type="line"/>
      <point x="241" y="251" type="line" smooth="yes"/>
      <point x="88" y="251"/>
      <point x="39" y="180"/>
      <point x="39" y="103" type="curve" smooth="yes"/>
      <point x="39" y="34"/>
      <point x="83" y="-10"/>
      <point x="166" y="-10" type="curve" smooth="yes"/>
      <point x="232" y="-10"/>
      <point x="310" y="20"/>
      <point x="364" y="112" type="curve"/>
      <point x="387" y="36"/>
      <point x="449" y="-10"/>
      <point x="540" y="-10" type="curve" smooth="yes"/>
      <point x="609" y="-10"/>
      <point x="686" y="16"/>
    </contour>
    <contour>
      <point x="454" y="289" type="line" smooth="yes"/>
      <point x="475" y="418"/>
      <point x="541" y="473"/>
      <point x="612" y="473" type="curve" smooth="yes"/>
      <point x="664" y="473"/>
      <point x="697" y="441"/>
      <point x="697" y="389" type="curve" smooth="yes"/>
      <point x="697" y="328"/>
      <point x="663" y="251"/>
      <point x="493" y="251" type="curve" smooth="yes"/>
      <point x="448" y="251" type="line"/>
    </contour>
    <contour>
      <point x="190" y="32" type="curve" smooth="yes"/>
      <point x="147" y="32"/>
      <point x="124" y="56"/>
      <point x="124" y="106" type="curve" smooth="yes"/>
      <point x="124" y="174"/>
      <point x="157" y="219"/>
      <point x="246" y="219" type="curve" smooth="yes"/>
      <point x="354" y="219" type="line"/>
      <point x="352" y="197"/>
      <point x="352" y="176"/>
      <point x="355" y="156" type="curve"/>
      <point x="296" y="51"/>
      <point x="232" y="32"/>
    </contour>
  </outline>
</glyph>
<glyph name="ccedilla" format="1">
  <advance width="485"/>
  <unicode hex="00E7"/>
  <outline>
    <contour>
      <point x="322" y="-133" type="curve" smooth="yes"/>
      <point x="322" y="-89"/>
      <point x="284" y="-58"/>
      <point x="217" y="-58" type="curve"/>
      <point x="245" y="-10" type="line"/>
      <point x="311" y="-6"/>
      <point x="376" y="22"/>
      <point x="420" y="98" type="curve"/>
      <point x="374" y="124" type="line"/>
      <point x="346" y="45"/>
      <point x="283" y="22"/>
      <point x="237" y="22" type="curve" smooth="yes"/>
      <point x="159" y="22"/>
      <point x="124" y="90"/>
      <point x="147" y="229" type="curve" smooth="yes"/>
      <point x="157" y="289" type="line" smooth="yes"/>
      <point x="178" y="418"/>
      <point x="240" y="473"/>
      <point x="307" y="473" type="curve" smooth="yes"/>
      <point x="381" y="473"/>
      <point x="408" y="411"/>
      <point x="374" y="304" type="curve"/>
      <point x="455" y="320" type="line"/>
      <point x="489" y="422"/>
      <point x="428" y="505"/>
      <point x="311" y="505" type="curve" smooth="yes"/>
      <point x="184" y="505"/>
      <point x="90" y="411"/>
      <point x="65" y="276" type="curve" smooth="yes"/>
      <point x="61" y="254" type="line" smooth="yes"/>
      <point x="34" y="104"/>
      <point x="94" y="1"/>
      <point x="211" y="-9" type="curve"/>
      <point x="179" y="-63" type="line"/>
      <point x="184" y="-89" type="line"/>
      <point x="191" y="-88"/>
      <point x="201" y="-86"/>
      <point x="208" y="-86" type="curve" smooth="yes"/>
      <point x="246" y="-86"/>
      <point x="257" y="-102"/>
      <point x="257" y="-131" type="curve" smooth="yes"/>
      <point x="257" y="-166"/>
      <point x="234" y="-195"/>
      <point x="198" y="-195" type="curve" smooth="yes"/>
      <point x="166" y="-195"/>
      <point x="150" y="-178"/>
      <point x="153" y="-131" type="curve"/>
      <point x="102" y="-145" type="line"/>
      <point x="103" y="-201"/>
      <point x="150" y="-223"/>
      <point x="203" y="-223" type="curve" smooth="yes"/>
      <point x="270" y="-223"/>
      <point x="322" y="-187"/>
    </contour>
  </outline>
</glyph>
<glyph name="eth" format="1">
  <advance width="559"/>
  <unicode hex="00F0"/>
  <outline>
    <contour>
      <point x="495" y="256" type="curve" smooth="yes"/>
      <point x="499" y="284" type="line" smooth="yes"/>
      <point x="522" y="418"/>
      <point x="485" y="544"/>
      <point x="401" y="640" type="curve"/>
      <point x="527" y="722" type="line"/>
      <point x="511" y="750" type="line"/>
      <point x="378" y="664" type="line"/>
      <point x="344" y="698"/>
      <point x="303" y="727"/>
      <point x="257" y="750" type="curve"/>
      <point x="243" y="724" type="line"/>
      <point x="281" y="701"/>
      <point x="315" y="674"/>
      <point x="343" y="641" type="curve"/>
      <point x="217" y="559" type="line"/>
      <point x="233" y="531" type="line"/>
      <point x="363" y="615" type="line"/>
      <point x="403" y="557"/>
      <point x="425" y="482"/>
      <point x="422" y="387" type="curve"/>
      <point x="388" y="430"/>
      <point x="339" y="451"/>
      <point x="281" y="451" type="curve" smooth="yes"/>
      <point x="168" y="451"/>
      <point x="80" y="377"/>
      <point x="60" y="243" type="curve" smooth="yes"/>
      <point x="57" y="223" type="line" smooth="yes"/>
      <point x="37" y="88"/>
      <point x="99" y="-10"/>
      <point x="240" y="-10" type="curve" smooth="yes"/>
      <point x="380" y="-10"/>
      <point x="464" y="85"/>
    </contour>
    <contour>
      <point x="142" y="197" type="curve" smooth="yes"/>
      <point x="151" y="251" type="line" smooth="yes"/>
      <point x="170" y="367"/>
      <point x="225" y="419"/>
      <point x="295" y="419" type="curve" smooth="yes"/>
      <point x="334" y="419"/>
      <point x="384" y="402"/>
      <point x="418" y="338" type="curve"/>
      <point x="416" y="328"/>
      <point x="415" y="318"/>
      <point x="413" y="307" type="curve" smooth="yes"/>
      <point x="402" y="239" type="line" smooth="yes"/>
      <point x="375" y="84"/>
      <point x="324" y="22"/>
      <point x="239" y="22" type="curve" smooth="yes"/>
      <point x="157" y="22"/>
      <point x="123" y="82"/>
    </contour>
  </outline>
</glyph>
<glyph name="divide" format="1">
  <advance width="588"/>
  <unicode hex="00F7"/>
  <outline>
    <contour>
      <point x="287" y="529" type="curve" smooth="yes"/>
      <point x="287" y="497"/>
      <point x="308" y="478"/>
      <point x="340" y="478" type="curve" smooth="yes"/>
      <point x="378" y="478"/>
      <point x="402" y="506"/>
      <point x="402" y="541" type="curve" smooth="yes"/>
      <point x="402" y="573"/>
      <point x="381" y="591"/>
      <point x="349" y="591" type="curve" smooth="yes"/>
      <point x="311" y="591"/>
      <point x="287" y="563"/>
    </contour>
    <contour>
      <point x="99" y="317" type="line"/>
      <point x="513" y="317" type="line"/>
      <point x="519" y="350" type="line"/>
      <point x="105" y="350" type="line"/>
    </contour>
    <contour>
      <point x="217" y="127" type="curve" smooth="yes"/>
      <point x="217" y="95"/>
      <point x="237" y="76"/>
      <point x="270" y="76" type="curve" smooth="yes"/>
      <point x="307" y="76"/>
      <point x="331" y="104"/>
      <point x="331" y="139" type="curve" smooth="yes"/>
      <point x="331" y="170"/>
      <point x="311" y="189"/>
      <point x="278" y="189" type="curve" smooth="yes"/>
      <point x="241" y="189"/>
      <point x="217" y="161"/>
    </contour>
  </outline>
</glyph>
<glyph name="oslash" format="1">
  <advance width="556"/>
  <unicode hex="00F8"/>
  <outline>
    <contour>
      <point x="489" y="220" type="curve" smooth="yes"/>
      <point x="493" y="242" type="line" smooth="yes"/>
      <point x="506" y="312"/>
      <point x="497" y="376"/>
      <point x="468" y="423" type="curve"/>
      <point x="537" y="495" type="line"/>
      <point x="490" y="495" type="line"/>
      <point x="448" y="451" type="line"/>
      <point x="416" y="485"/>
      <point x="370" y="505"/>
      <point x="311" y="505" type="curve" smooth="yes"/>
      <point x="179" y="505"/>
      <point x="92" y="420"/>
      <point x="66" y="275" type="curve" smooth="yes"/>
      <point x="62" y="252" type="line" smooth="yes"/>
      <point x="50" y="182"/>
      <point x="58" y="119"/>
      <point x="86" y="72" type="curve"/>
      <point x="17" y="0" type="line"/>
      <point x="65" y="0" type="line"/>
      <point x="107" y="44" type="line"/>
      <point x="139" y="10"/>
      <point x="184" y="-10"/>
      <point x="243" y="-10" type="curve" smooth="yes"/>
      <point x="375" y="-10"/>
      <point x="463" y="74"/>
    </contour>
    <contour>
      <point x="148" y="227" type="curve" smooth="yes"/>
      <point x="158" y="288" type="line" smooth="yes"/>
      <point x="181" y="420"/>
      <point x="236" y="474"/>
      <point x="309" y="474" type="curve" smooth="yes"/>
      <point x="357" y="474"/>
      <point x="390" y="451"/>
      <point x="405" y="406" type="curve"/>
      <point x="142" y="131" type="line"/>
      <point x="140" y="158"/>
      <point x="142" y="190"/>
    </contour>
    <contour>
      <point x="407" y="268" type="curve" smooth="yes"/>
      <point x="397" y="207" type="line" smooth="yes"/>
      <point x="374" y="75"/>
      <point x="320" y="20"/>
      <point x="246" y="20" type="curve" smooth="yes"/>
      <point x="198" y="20"/>
      <point x="165" y="44"/>
      <point x="150" y="90" type="curve"/>
      <point x="413" y="365" type="line"/>
      <point x="415" y="338"/>
      <point x="414" y="305"/>
    </contour>
  </outline>
</glyph>
<glyph name="thorn" format="1">
  <advance width="572"/>
  <unicode hex="00FE"/>
  <outline>
    <contour>
      <point x="272" y="-10" type="curve" smooth="yes"/>
      <point x="380" y="-10"/>
      <point x="478" y="73"/>
      <point x="504" y="213" type="curve" smooth="yes"/>
      <point x="508" y="235" type="line" smooth="yes"/>
      <point x="535" y="384"/>
      <point x="480" y="505"/>
      <point x="362" y="505" type="curve" smooth="yes"/>
      <point x="308" y="505"/>
      <point x="257" y="480"/>
      <point x="211" y="411" type="curve"/>
      <point x="269" y="740" type="line"/>
      <point x="110" y="740" type="line"/>
      <point x="106" y="714" type="line"/>
      <point x="160" y="708" type="line" smooth="yes"/>
      <point x="178" y="706"/>
      <point x="181" y="705"/>
      <point x="173" y="659" type="curve" smooth="yes"/>
      <point x="19" y="-213" type="line"/>
      <point x="101" y="-213" type="line"/>
      <point x="147" y="48" type="line"/>
      <point x="175" y="11"/>
      <point x="217" y="-10"/>
    </contour>
    <contour>
      <point x="348" y="470" type="curve" smooth="yes"/>
      <point x="412" y="470"/>
      <point x="445" y="394"/>
      <point x="422" y="260" type="curve" smooth="yes"/>
      <point x="413" y="203" type="line" smooth="yes"/>
      <point x="394" y="91"/>
      <point x="347" y="24"/>
      <point x="266" y="24" type="curve" smooth="yes"/>
      <point x="217" y="24"/>
      <point x="180" y="46"/>
      <point x="156" y="99" type="curve"/>
      <point x="195" y="322" type="line"/>
      <point x="253" y="444"/>
      <point x="307" y="470"/>
    </contour>
  </outline>
</glyph>
<glyph name="Aogonek" format="1">
  <advance width="628"/>
  <unicode hex="0104"/>
  <outline>
    <contour>
      <point x="548" y="-125" type="curve"/>
      <point x="498" y="-112" type="line"/>
      <point x="477" y="-172"/>
      <point x="447" y="-193"/>
      <point x="416" y="-193" type="curve" smooth="yes"/>
      <point x="388" y="-193"/>
      <point x="374" y="-176"/>
      <point x="374" y="-141" type="curve" smooth="yes"/>
      <point x="374" y="-71"/>
      <point x="429" y="0"/>
      <point x="523" y="0" type="curve"/>
      <point x="587" y="0" type="line"/>
      <point x="591" y="26" type="line"/>
      <point x="537" y="32" type="line" smooth="yes"/>
      <point x="518" y="34"/>
      <point x="517" y="34"/>
      <point x="510" y="81" type="curve" smooth="yes"/>
      <point x="421" y="680" type="line"/>
      <point x="358" y="680" type="line"/>
      <point x="59" y="81" type="line" smooth="yes"/>
      <point x="37" y="34"/>
      <point x="36" y="34"/>
      <point x="14" y="32" type="curve" smooth="yes"/>
      <point x="-41" y="26" type="line"/>
      <point x="-46" y="0" type="line"/>
      <point x="147" y="0" type="line"/>
      <point x="152" y="26" type="line"/>
      <point x="98" y="32" type="line" smooth="yes"/>
      <point x="77" y="34"/>
      <point x="76" y="35"/>
      <point x="99" y="81" type="curve" smooth="yes"/>
      <point x="163" y="209" type="line"/>
      <point x="406" y="209" type="line"/>
      <point x="435" y="9" type="line"/>
      <point x="366" y="-19"/>
      <point x="310" y="-76"/>
      <point x="310" y="-138" type="curve" smooth="yes"/>
      <point x="310" y="-194"/>
      <point x="354" y="-223"/>
      <point x="414" y="-223" type="curve" smooth="yes"/>
      <point x="467" y="-223"/>
      <point x="515" y="-197"/>
    </contour>
    <contour>
      <point x="179" y="241" type="line"/>
      <point x="352" y="589" type="line"/>
      <point x="402" y="241" type="line"/>
    </contour>
  </outline>
</glyph>
<glyph name="aogonek" format="1">
  <advance width="582"/>
  <unicode hex="0105"/>
  <outline>
    <contour>
      <point x="522" y="-125" type="curve"/>
      <point x="472" y="-112" type="line"/>
      <point x="450" y="-172"/>
      <point x="420" y="-193"/>
      <point x="389" y="-193" type="curve" smooth="yes"/>
      <point x="361" y="-193"/>
      <point x="348" y="-176"/>
      <point x="348" y="-143" type="curve" smooth="yes"/>
      <point x="348" y="-32"/>
      <point x="505" y="-37"/>
      <point x="558" y="83" type="curve"/>
      <point x="523" y="105" type="line"/>
      <point x="504" y="49"/>
      <point x="479" y="28"/>
      <point x="459" y="28" type="curve" smooth="yes"/>
      <point x="438" y="28"/>
      <point x="432" y="51"/>
      <point x="450" y="150" type="curve" smooth="yes"/>
      <point x="511" y="495" type="line"/>
      <point x="476" y="495" type="line"/>
      <point x="459" y="476"/>
      <point x="441" y="457"/>
      <point x="423" y="442" type="curve"/>
      <point x="396" y="482"/>
      <point x="354" y="505"/>
      <point x="298" y="505" type="curve" smooth="yes"/>
      <point x="190" y="505"/>
      <point x="93" y="422"/>
      <point x="68" y="282" type="curve" smooth="yes"/>
      <point x="64" y="260" type="line" smooth="yes"/>
      <point x="36" y="110"/>
      <point x="91" y="-10"/>
      <point x="209" y="-10" type="curve" smooth="yes"/>
      <point x="263" y="-10"/>
      <point x="317" y="15"/>
      <point x="362" y="86" type="curve"/>
      <point x="364" y="32"/>
      <point x="388" y="3"/>
      <point x="426" y="-4" type="curve"/>
      <point x="364" y="-33"/>
      <point x="284" y="-69"/>
      <point x="284" y="-142" type="curve" smooth="yes"/>
      <point x="284" y="-194"/>
      <point x="328" y="-223"/>
      <point x="386" y="-223" type="curve" smooth="yes"/>
      <point x="441" y="-223"/>
      <point x="489" y="-197"/>
    </contour>
    <contour>
      <point x="149" y="234" type="curve" smooth="yes"/>
      <point x="158" y="291" type="line" smooth="yes"/>
      <point x="177" y="403"/>
      <point x="223" y="471"/>
      <point x="304" y="471" type="curve" smooth="yes"/>
      <point x="352" y="471"/>
      <point x="387" y="448"/>
      <point x="411" y="396" type="curve"/>
      <point x="370" y="160" type="line"/>
      <point x="314" y="48"/>
      <point x="260" y="24"/>
      <point x="222" y="24" type="curve" smooth="yes"/>
      <point x="159" y="24"/>
      <point x="126" y="100"/>
    </contour>
  </outline>
</glyph>
<glyph name="Eogonek" format="1">
  <advance width="580"/>
  <unicode hex="0118"/>
  <outline>
    <contour>
      <point x="461" y="-125" type="curve"/>
      <point x="411" y="-112" type="line"/>
      <point x="389" y="-172"/>
      <point x="360" y="-193"/>
      <point x="328" y="-193" type="curve" smooth="yes"/>
      <point x="300" y="-193"/>
      <point x="287" y="-176"/>
      <point x="287" y="-141" type="curve" smooth="yes"/>
      <point x="287" y="-71"/>
      <point x="342" y="0"/>
      <point x="436" y="0" type="curve"/>
      <point x="483" y="0" type="line"/>
      <point x="512" y="163" type="line"/>
      <point x="486" y="163" type="line"/>
      <point x="439" y="58" type="line" smooth="yes"/>
      <point x="428" y="34"/>
      <point x="427" y="32"/>
      <point x="380" y="32" type="curve"/>
      <point x="174" y="32" type="line"/>
      <point x="226" y="327" type="line"/>
      <point x="360" y="327" type="line" smooth="yes"/>
      <point x="407" y="327"/>
      <point x="408" y="325"/>
      <point x="410" y="301" type="curve" smooth="yes"/>
      <point x="416" y="226" type="line"/>
      <point x="441" y="226" type="line"/>
      <point x="482" y="460" type="line"/>
      <point x="457" y="460" type="line"/>
      <point x="425" y="385" type="line" smooth="yes"/>
      <point x="414" y="361"/>
      <point x="413" y="359"/>
      <point x="366" y="359" type="curve" smooth="yes"/>
      <point x="232" y="359" type="line"/>
      <point x="283" y="648" type="line"/>
      <point x="477" y="648" type="line" smooth="yes"/>
      <point x="524" y="648"/>
      <point x="523" y="645"/>
      <point x="526" y="622" type="curve" smooth="yes"/>
      <point x="536" y="517" type="line"/>
      <point x="562" y="517" type="line"/>
      <point x="591" y="680" type="line"/>
      <point x="124" y="680" type="line"/>
      <point x="119" y="653" type="line"/>
      <point x="174" y="648" type="line" smooth="yes"/>
      <point x="194" y="645"/>
      <point x="195" y="645"/>
      <point x="187" y="599" type="curve" smooth="yes"/>
      <point x="96" y="81" type="line" smooth="yes"/>
      <point x="88" y="34"/>
      <point x="87" y="34"/>
      <point x="65" y="32" type="curve" smooth="yes"/>
      <point x="9" y="26" type="line"/>
      <point x="4" y="0" type="line"/>
      <point x="343" y="0" type="line"/>
      <point x="277" y="-27"/>
      <point x="223" y="-80"/>
      <point x="223" y="-138" type="curve" smooth="yes"/>
      <point x="223" y="-194"/>
      <point x="267" y="-223"/>
      <point x="327" y="-223" type="curve" smooth="yes"/>
      <point x="380" y="-223"/>
      <point x="428" y="-197"/>
    </contour>
  </outline>
</glyph>
<glyph name="eogonek" format="1">
  <advance width="502"/>
  <unicode hex="0119"/>
  <outline>
    <contour>
      <point x="393" y="-125" type="curve"/>
      <point x="343" y="-112" type="line"/>
      <point x="321" y="-172"/>
      <point x="292" y="-193"/>
      <point x="260" y="-193" type="curve" smooth="yes"/>
      <point x="232" y="-193"/>
      <point x="219" y="-176"/>
      <point x="219" y="-141" type="curve" smooth="yes"/>
      <point x="219" y="-27"/>
      <point x="375" y="-10"/>
      <point x="435" y="98" type="curve"/>
      <point x="388" y="123" type="line"/>
      <point x="361" y="45"/>
      <point x="293" y="22"/>
      <point x="245" y="22" type="curve" smooth="yes"/>
      <point x="163" y="22"/>
      <point x="126" y="85"/>
      <point x="144" y="212" type="curve"/>
      <point x="196" y="216" type="line" smooth="yes"/>
      <point x="359" y="227"/>
      <point x="474" y="284"/>
      <point x="474" y="385" type="curve" smooth="yes"/>
      <point x="474" y="447"/>
      <point x="419" y="505"/>
      <point x="317" y="505" type="curve" smooth="yes"/>
      <point x="185" y="505"/>
      <point x="89" y="411"/>
      <point x="65" y="276" type="curve" smooth="yes"/>
      <point x="61" y="254" type="line" smooth="yes"/>
      <point x="32" y="96"/>
      <point x="103" y="-10"/>
      <point x="242" y="-10" type="curve" smooth="yes"/>
      <point x="252" y="-10"/>
      <point x="261" y="-9"/>
      <point x="271" y="-8" type="curve"/>
      <point x="215" y="-39"/>
      <point x="155" y="-72"/>
      <point x="155" y="-138" type="curve" smooth="yes"/>
      <point x="155" y="-194"/>
      <point x="199" y="-223"/>
      <point x="259" y="-223" type="curve" smooth="yes"/>
      <point x="312" y="-223"/>
      <point x="360" y="-197"/>
    </contour>
    <contour>
      <point x="156" y="289" type="line" smooth="yes"/>
      <point x="178" y="418"/>
      <point x="243" y="473"/>
      <point x="314" y="473" type="curve" smooth="yes"/>
      <point x="367" y="473"/>
      <point x="399" y="441"/>
      <point x="399" y="389" type="curve" smooth="yes"/>
      <point x="399" y="327"/>
      <point x="358" y="257"/>
      <point x="195" y="247" type="curve" smooth="yes"/>
      <point x="149" y="244" type="line"/>
    </contour>
  </outline>
</glyph>
